<svg width="11" height="11" viewBox="0 0 11 11" fill="none" xmlns="http://www.w3.org/2000/svg">
<path d="M5.931 6.45796C6.26157 6.93305 6.21738 7.59004 5.79378 8.01386L4.10563 9.70162C3.62968 10.1777 2.85783 10.1777 2.38188 9.70162L1.01712 8.3371C0.541168 7.86103 0.541168 7.08929 1.01712 6.61322L2.70513 4.92496C3.12883 4.50136 3.78571 4.45719 4.26106 4.78776L1.97978 7.06927C1.71525 7.33368 1.71977 7.7668 1.98954 8.03707L2.68194 8.72894C2.9521 8.99898 3.38519 9.00386 3.64958 8.73898L5.931 6.45796ZM7.67075 1.37783C7.93539 1.11366 8.3685 1.11807 8.63853 1.38783L9.33092 2.08021C9.60069 2.35 9.60509 2.78361 9.34069 3.04776L7.05943 5.32902C7.5345 5.65984 8.19175 5.61542 8.61534 5.19181L10.3031 3.50379C10.7792 3.02797 10.7792 2.25624 10.3031 1.78017L8.93835 0.415396C8.46275 -0.0604218 7.69077 -0.0604218 7.21471 0.415396L5.52683 2.10315C5.1031 2.52724 5.05905 3.18398 5.38962 3.65906L7.67075 1.37783ZM7.24205 3.01016C7.13168 2.90005 6.94127 2.91128 6.81676 3.03555L3.63751 6.21502C3.5131 6.3393 3.50163 6.52974 3.61211 6.64009L4.07867 7.10691C4.18902 7.21726 4.37957 7.20554 4.50398 7.0815L7.68296 3.90225C7.80746 3.77773 7.81893 3.58708 7.70834 3.47696L7.24205 3.01016Z" fill="black"/>
</svg>
