<svg width="18" height="13" viewBox="0 0 18 13" fill="none" xmlns="http://www.w3.org/2000/svg">
<path d="M14.1429 7H9.64286C9.28782 7 9 7.28782 9 7.64286C9 7.9979 9.28782 8.28571 9.64286 8.28571H14.1429C14.4979 8.28571 14.7857 7.9979 14.7857 7.64286C14.7857 7.28782 14.4979 7 14.1429 7Z" fill="#007BFD"/>
<path d="M14.1429 4H9.64286C9.28782 4 9 4.28782 9 4.64286C9 4.9979 9.28782 5.28571 9.64286 5.28571H14.1429C14.4979 5.28571 14.7857 4.9979 14.7857 4.64286C14.7857 4.28782 14.4979 4 14.1429 4Z" fill="#007BFD"/>
<path d="M3 0C1.34315 0 0 1.34315 0 3V9.85714C0 11.514 1.34315 12.8571 3 12.8571H15C16.6569 12.8571 18 11.514 18 9.85714V3C18 1.34314 16.6569 0 15 0H3ZM16.7143 8.57143C16.7143 10.2283 15.3711 11.5714 13.7143 11.5714H4.28572C2.62886 11.5714 1.28571 10.2283 1.28571 8.57143V4.28572C1.28571 2.62886 2.62886 1.28571 4.28571 1.28571H13.7143C15.3711 1.28571 16.7143 2.62886 16.7143 4.28571V8.57143ZM7.71429 5.14286C7.71429 3.7227 6.56302 2.57143 5.14286 2.57143C3.7227 2.57143 2.57143 3.7227 2.57143 5.14286V7.71428C2.57143 9.13444 3.7227 10.2857 5.14286 10.2857C6.56302 10.2857 7.71429 9.13445 7.71429 7.71429V5.14286ZM6.42857 7.71428C6.42857 8.42437 5.85294 9 5.14286 9C4.43278 9 3.85714 8.42437 3.85714 7.71429V5.14286C3.85714 4.43278 4.43278 3.85714 5.14286 3.85714C5.85294 3.85714 6.42857 4.43278 6.42857 5.14286V7.71428Z" fill="#20235A"/>
</svg>
