<svg width="55" height="55" viewBox="0 0 55 55" fill="none" xmlns="http://www.w3.org/2000/svg">
<circle cx="27" cy="27" r="20" fill="#4F78DA" fill-opacity="0.81"/>
<path d="M20.2174 21.1429V19H21.6957V21.1429H23.913V22.5714H21.6957V24.7143H20.2174V22.5714H18V21.1429H20.2174ZM22.4348 25.4286V23.2857H24.6522V21.1429H29.8261L31.1787 22.5714H33.5217C34.3348 22.5714 35 23.2143 35 24V32.5714C35 33.3571 34.3348 34 33.5217 34H21.6957C20.8826 34 20.2174 33.3571 20.2174 32.5714V25.4286H22.4348ZM27.6087 31.8571C29.6487 31.8571 31.3043 30.2571 31.3043 28.2857C31.3043 26.3143 29.6487 24.7143 27.6087 24.7143C25.5687 24.7143 23.913 26.3143 23.913 28.2857C23.913 30.2571 25.5687 31.8571 27.6087 31.8571ZM25.2435 28.2857C25.2435 29.55 26.3004 30.5714 27.6087 30.5714C28.917 30.5714 29.9739 29.55 29.9739 28.2857C29.9739 27.0214 28.917 26 27.6087 26C26.3004 26 25.2435 27.0214 25.2435 28.2857Z" fill="white" fill-opacity="0.9"/>
</svg>
