<svg width="20" height="16" viewBox="0 0 20 16" fill="none" xmlns="http://www.w3.org/2000/svg">
<path d="M16.4316 15.3H14.5879C14.2564 15.3 13.9384 15.1683 13.704 14.9339C13.4696 14.6995 13.3379 14.3815 13.3379 14.05V6.78125C13.3379 6.44973 13.4696 6.13179 13.704 5.89737C13.9384 5.66295 14.2564 5.53125 14.5879 5.53125H16.4316C16.7632 5.53125 17.0811 5.66295 17.3155 5.89737C17.5499 6.13179 17.6816 6.44973 17.6816 6.78125V14.05C17.6816 14.3815 17.5499 14.6995 17.3155 14.9339C17.0811 15.1683 16.7632 15.3 16.4316 15.3ZM14.5879 6.78125V14.05H16.4254V6.78125H14.5879Z" fill="#007BFD"/>
<path d="M5.48047 15.3H3.60547C3.27395 15.3 2.95601 15.1683 2.72159 14.9339C2.48716 14.6995 2.35547 14.3815 2.35547 14.05V11.0438C2.35547 10.7122 2.48716 10.3943 2.72159 10.1599C2.95601 9.92546 3.27395 9.79376 3.60547 9.79376H5.48047C5.81199 9.79376 6.12993 9.92546 6.36435 10.1599C6.59877 10.3943 6.73047 10.7122 6.73047 11.0438V14.05C6.73047 14.3815 6.59877 14.6995 6.36435 14.9339C6.12993 15.1683 5.81199 15.3 5.48047 15.3ZM3.60547 11.0438V14.05H5.48047V11.0438H3.60547Z" fill="#007BFD"/>
<path d="M10.9258 15.3H9.05078C8.71926 15.3 8.40132 15.1683 8.1669 14.9339C7.93248 14.6995 7.80078 14.3815 7.80078 14.05V1.95001C7.80078 1.61849 7.93248 1.30055 8.1669 1.06613C8.40132 0.831708 8.71926 0.700012 9.05078 0.700012H10.9258C11.2573 0.700012 11.5752 0.831708 11.8097 1.06613C12.0441 1.30055 12.1758 1.61849 12.1758 1.95001V14.05C12.1758 14.3815 12.0441 14.6995 11.8097 14.9339C11.5752 15.1683 11.2573 15.3 10.9258 15.3ZM9.05078 1.95001V14.05H10.8945V1.95001H9.05078Z" fill="#007BFD"/>
<path d="M18.7121 15.3H1.28711C1.12135 15.3 0.962378 15.2341 0.845168 15.1169C0.727957 14.9997 0.662109 14.8407 0.662109 14.675C0.662109 14.5092 0.727957 14.3503 0.845168 14.233C0.962378 14.1158 1.12135 14.05 1.28711 14.05H18.7121C18.8779 14.05 19.0368 14.1158 19.1541 14.233C19.2713 14.3503 19.3371 14.5092 19.3371 14.675C19.3371 14.8407 19.2713 14.9997 19.1541 15.1169C19.0368 15.2341 18.8779 15.3 18.7121 15.3Z" fill="#20235A"/>
</svg>
