<svg width="19" height="18" viewBox="0 0 19 18" fill="none" xmlns="http://www.w3.org/2000/svg">
<path fill-rule="evenodd" clip-rule="evenodd" d="M1.80078 10H7.80078C8.066 10 8.32035 10.1054 8.50789 10.2929C8.69542 10.4804 8.80078 10.7348 8.80078 11V17C8.80078 17.2652 8.69542 17.5196 8.50789 17.7071C8.32035 17.8946 8.066 18 7.80078 18H1.80078C1.53556 18 1.28121 17.8946 1.09367 17.7071C0.906138 17.5196 0.800781 17.2652 0.800781 17V11C0.800781 10.7348 0.906138 10.4804 1.09367 10.2929C1.28121 10.1054 1.53556 10 1.80078 10ZM2.80078 16H6.80078V12H2.80078V16ZM11.8008 0H17.8008C18.066 0 18.3204 0.105357 18.5079 0.292893C18.6954 0.48043 18.8008 0.734784 18.8008 1V7C18.8008 7.26522 18.6954 7.51957 18.5079 7.70711C18.3204 7.89464 18.066 8 17.8008 8H11.8008C11.5356 8 11.2812 7.89464 11.0937 7.70711C10.9061 7.51957 10.8008 7.26522 10.8008 7V1C10.8008 0.734784 10.9061 0.48043 11.0937 0.292893C11.2812 0.105357 11.5356 0 11.8008 0ZM12.8008 6H16.8008V2H12.8008V6ZM1.80078 0H7.80078C8.066 0 8.32035 0.105357 8.50789 0.292893C8.69542 0.48043 8.80078 0.734784 8.80078 1V7C8.80078 7.26522 8.69542 7.51957 8.50789 7.70711C8.32035 7.89464 8.066 8 7.80078 8H1.80078C1.53556 8 1.28121 7.89464 1.09367 7.70711C0.906138 7.51957 0.800781 7.26522 0.800781 7V1C0.800781 0.734784 0.906138 0.48043 1.09367 0.292893C1.28121 0.105357 1.53556 0 1.80078 0ZM2.80078 6H6.80078V2H2.80078V6Z" fill="black"/>
<path d="M17.8008 13H15.8008V11C15.8008 10.7348 15.6954 10.4804 15.5079 10.2929C15.3204 10.1054 15.066 10 14.8008 10C14.5356 10 14.2812 10.1054 14.0937 10.2929C13.9061 10.4804 13.8008 10.7348 13.8008 11V13H11.8008C11.5356 13 11.2812 13.1054 11.0937 13.2929C10.9061 13.4804 10.8008 13.7348 10.8008 14C10.8008 14.2652 10.9061 14.5196 11.0937 14.7071C11.2812 14.8946 11.5356 15 11.8008 15H13.8008V17C13.8008 17.2652 13.9061 17.5196 14.0937 17.7071C14.2812 17.8946 14.5356 18 14.8008 18C15.066 18 15.3204 17.8946 15.5079 17.7071C15.6954 17.5196 15.8008 17.2652 15.8008 17V15H17.8008C18.066 15 18.3204 14.8946 18.5079 14.7071C18.6954 14.5196 18.8008 14.2652 18.8008 14C18.8008 13.7348 18.6954 13.4804 18.5079 13.2929C18.3204 13.1054 18.066 13 17.8008 13Z" fill="url(#paint0_linear_911_1480)"/>
<defs>
<linearGradient id="paint0_linear_911_1480" x1="9.80078" y1="0" x2="9.80078" y2="18" gradientUnits="userSpaceOnUse">
<stop offset="0.72" stop-color="#339003"/>
<stop offset="0.87" stop-color="#4F78DA"/>
</linearGradient>
</defs>
</svg>
