<svg width="16" height="20" viewBox="0 0 16 20" fill="none" xmlns="http://www.w3.org/2000/svg">
<path d="M7.99982 19.1667C7.5578 19.1667 7.13387 18.9911 6.82131 18.6785C6.50875 18.3659 6.33316 17.942 6.33316 17.5H9.66649C9.66649 17.942 9.49089 18.3659 9.17833 18.6785C8.86577 18.9911 8.44185 19.1667 7.99982 19.1667ZM14.6665 5C14.6665 4.67036 14.5687 4.34813 14.3856 4.07404C14.2025 3.79996 13.9422 3.58634 13.6376 3.4602C13.3331 3.33405 12.998 3.30104 12.6747 3.36535C12.3514 3.42966 12.0544 3.5884 11.8213 3.82148C11.5882 4.05457 11.4295 4.35154 11.3652 4.67484C11.3009 4.99815 11.3339 5.33326 11.46 5.6378C11.5862 5.94234 11.7998 6.20264 12.0739 6.38578C12.348 6.56891 12.6702 6.66666 12.9998 6.66666C13.4419 6.66666 13.8658 6.49107 14.1783 6.17851C14.4909 5.86595 14.6665 5.44202 14.6665 5ZM15.2557 14.4108L13.8332 12.9883V8.33333H12.1665V13.3333C12.1665 13.5543 12.2544 13.7663 12.4107 13.9225L12.6548 14.1667H3.34482L3.58899 13.9225C3.74528 13.7663 3.83311 13.5543 3.83316 13.3333V8.33333C3.8307 7.72112 3.96372 7.11595 4.22269 6.56121C4.48165 6.00647 4.86015 5.51589 5.33103 5.12466C5.80192 4.73342 6.35354 4.45121 6.94634 4.29826C7.53913 4.14531 8.15843 4.12542 8.75982 4.24L10.0832 2.91666C10.0396 2.88395 9.99267 2.85602 9.94316 2.83333C9.58265 2.70949 9.21087 2.6213 8.83316 2.57V1.66666C8.83316 1.44565 8.74536 1.23369 8.58908 1.07741C8.4328 0.921126 8.22084 0.833328 7.99982 0.833328C7.77881 0.833328 7.56685 0.921126 7.41057 1.07741C7.25429 1.23369 7.16649 1.44565 7.16649 1.66666V2.56666C5.77932 2.76688 4.51062 3.45984 3.59247 4.51877C2.67433 5.57769 2.16813 6.93179 2.16649 8.33333V12.9883L0.743989 14.4108C0.627481 14.5274 0.548143 14.6758 0.516003 14.8375C0.483863 14.9991 0.500366 15.1666 0.563424 15.3189C0.626483 15.4711 0.733265 15.6013 0.870274 15.6928C1.00728 15.7844 1.16836 15.8333 1.33316 15.8333H14.6665C14.8313 15.8333 14.9924 15.7844 15.1294 15.6928C15.2664 15.6013 15.3732 15.4711 15.4362 15.3189C15.4993 15.1666 15.5158 14.9991 15.4836 14.8375C15.4515 14.6758 15.3722 14.5274 15.2557 14.4108Z" fill="black"/>
</svg>
