<svg width="10" height="10" viewBox="0 0 10 10" fill="none" xmlns="http://www.w3.org/2000/svg">
<g clip-path="url(#clip0_238_647)">
<path d="M4.99992 8.85415L3.77075 7.62498H2.45825C1.72909 7.62498 1.14575 7.08331 1.14575 6.39581V2.37498C1.14575 1.68748 1.68742 1.14581 2.37492 1.14581H7.62492C8.29159 1.14581 8.85409 1.68748 8.85409 2.37498V6.39581C8.85409 7.08331 8.31242 7.62498 7.62492 7.62498H6.22909L4.99992 8.85415Z" stroke="white" stroke-linecap="round" stroke-linejoin="round"/>
<path d="M4.99992 3.6875C5.33325 3.6875 5.60409 3.95833 5.60409 4.29167C5.60409 4.625 5.33325 4.89583 4.99992 4.89583C4.66659 4.89583 4.39575 4.625 4.39575 4.29167C4.39575 3.95833 4.66659 3.6875 4.99992 3.6875ZM3.24992 3.6875C2.91659 3.6875 2.64575 3.95833 2.64575 4.29167C2.64575 4.625 2.91659 4.89583 3.24992 4.89583C3.58325 4.89583 3.85409 4.625 3.85409 4.29167C3.85409 3.95833 3.58325 3.6875 3.24992 3.6875Z" stroke="white" stroke-width="0.5" stroke-linecap="round" stroke-linejoin="round"/>
<path d="M6.74992 3.6875C7.08325 3.6875 7.35409 3.95833 7.35409 4.29167C7.35409 4.625 7.08325 4.89583 6.74992 4.89583C6.41659 4.89583 6.14575 4.625 6.14575 4.29167C6.14575 3.95833 6.41659 3.6875 6.74992 3.6875Z" stroke="white" stroke-width="0.5" stroke-linecap="round" stroke-linejoin="round"/>
</g>
<defs>
<clipPath id="clip0_238_647">
<rect width="10" height="10" fill="white"/>
</clipPath>
</defs>
</svg>
