<svg width="27" height="27" viewBox="0 0 27 27" fill="none" xmlns="http://www.w3.org/2000/svg">
<circle opacity="0.75" cx="13.5" cy="13.5" r="13.5" fill="#FFB331"/>
<path fill-rule="evenodd" clip-rule="evenodd" d="M12.625 20.0625C12.625 20.5803 12.2053 21 11.6875 21C11.1697 21 10.75 20.5803 10.75 20.0625V9.75C10.75 9.23223 11.1697 8.8125 11.6875 8.8125C12.2053 8.8125 12.625 9.23223 12.625 9.75V20.0625ZM8.875 20.0625C8.875 20.5803 8.45527 21 7.9375 21C7.41973 21 7 20.5803 7 20.0625V13.5C7 12.9822 7.41973 12.5625 7.9375 12.5625C8.45527 12.5625 8.875 12.9822 8.875 13.5V20.0625ZM14.5 20.0625V11.625C14.5 11.1072 14.9197 10.6875 15.4375 10.6875C15.9553 10.6875 16.375 11.1072 16.375 11.625V20.0625C16.375 20.5803 15.9553 21 15.4375 21C14.9197 21 14.5 20.5803 14.5 20.0625ZM18.25 6.9375C18.25 6.41973 18.6697 6 19.1875 6C19.7053 6 20.125 6.41973 20.125 6.9375V20.0625C20.125 20.5803 19.7053 21 19.1875 21C18.6697 21 18.25 20.5803 18.25 20.0625V6.9375Z" fill="white"/>
</svg>
