<svg width="26" height="25" viewBox="0 0 26 25" fill="none" xmlns="http://www.w3.org/2000/svg">
<path d="M25.1874 8.25003C25.1868 7.75293 24.9891 7.27635 24.6376 6.92484C24.2861 6.57333 23.8095 6.37561 23.3124 6.37504H19.5624V2.62505C19.5619 2.12795 19.3641 1.65137 19.0126 1.29986C18.6611 0.948356 18.1845 0.75063 17.6874 0.750061H2.68749C2.19039 0.75063 1.71381 0.948356 1.3623 1.29986C1.01079 1.65137 0.813069 2.12795 0.8125 2.62505V17.625C0.812495 17.802 0.862599 17.9754 0.957016 18.1251C1.05143 18.2748 1.18631 18.3947 1.34603 18.471C1.50576 18.5473 1.68382 18.5768 1.8596 18.5561C2.03539 18.5354 2.20172 18.4653 2.33937 18.354L6.43748 15.041L6.4376 18.5625C6.43816 19.0596 6.63589 19.5362 6.9874 19.8877C7.3389 20.2392 7.81548 20.4369 8.31259 20.4375H19.2799L23.6607 23.979C23.7983 24.0903 23.9646 24.1603 24.1404 24.181C24.3162 24.2017 24.4943 24.1722 24.654 24.096C24.8137 24.0197 24.9486 23.8998 25.043 23.7501C25.1374 23.6004 25.1875 23.427 25.1875 23.25L25.1874 8.25003ZM20.2008 18.7709C20.034 18.6361 19.8259 18.5625 19.6114 18.5625H8.31259L8.31247 14.8125H17.6874C18.1845 14.8119 18.6611 14.6142 19.0126 14.2627C19.3641 13.9112 19.5619 13.4346 19.5624 12.9375V8.25003H23.3124L23.3125 21.2865L20.2008 18.7709Z" fill="url(#paint0_linear_507_1449)"/>
<defs>
<linearGradient id="paint0_linear_507_1449" x1="13" y1="0.750061" x2="13" y2="24.1875" gradientUnits="userSpaceOnUse">
<stop stop-color="#339003"/>
<stop offset="0.86" stop-color="#4F78DA"/>
</linearGradient>
</defs>
</svg>
