<svg width="22" height="21" viewBox="0 0 22 21" fill="none" xmlns="http://www.w3.org/2000/svg">
<path fill-rule="evenodd" clip-rule="evenodd" d="M13.3577 0.405296C13.7467 0.125303 14.2954 -0.0056306 14.835 0.191787C15.992 0.615115 17.0534 1.2349 17.9789 2.01012C18.4187 2.37852 18.5796 2.91832 18.5318 3.39483C18.4523 4.18869 18.5924 4.95518 18.9738 5.61584C19.313 6.20337 19.8201 6.66746 20.4397 6.99372L20.6772 7.10959C21.1146 7.30673 21.5026 7.71706 21.6009 8.28376C21.7031 8.87363 21.7564 9.47963 21.7564 10.0972C21.7564 10.7148 21.7031 11.3209 21.6009 11.9108C21.5124 12.4208 21.1893 12.8042 20.8067 13.0195L20.6772 13.085C19.9496 13.413 19.3554 13.9178 18.9738 14.5787C18.5924 15.2394 18.4523 16.0057 18.5318 16.7996C18.5795 17.2761 18.4187 17.8158 17.9789 18.1843C17.0534 18.9594 15.992 19.5792 14.8351 20.0025C14.2955 20.2 13.7469 20.069 13.3579 19.789C12.7097 19.3225 11.9752 19.0601 11.2117 19.0601C10.4482 19.0601 9.71371 19.3225 9.06557 19.789C8.67659 20.069 8.12792 20.2 7.5883 20.0025C6.4313 19.5792 5.36995 18.9594 4.44442 18.1842C4.00463 17.8159 3.84378 17.2761 3.8915 16.7996C3.97098 16.0057 3.83088 15.2394 3.44946 14.5787C3.11026 13.9912 2.60316 13.5271 1.98359 13.2008L1.74608 13.085C1.30874 12.8878 0.920856 12.4775 0.822548 11.9108C0.720211 11.3209 0.666992 10.7148 0.666992 10.0972C0.666992 9.47953 0.720211 8.87352 0.822537 8.28355C0.911015 7.77357 1.23405 7.39022 1.61659 7.17492L1.74607 7.10944C2.47376 6.7814 3.06786 6.27667 3.44946 5.61571C3.83089 4.95507 3.97099 4.18863 3.8915 3.39482C3.84377 2.91833 4.00462 2.37857 4.44442 2.01019C5.36997 1.23493 6.43136 0.615125 7.5884 0.191787C8.12798 -0.00564116 8.67663 0.125303 9.06561 0.405296C9.71371 0.871815 10.4482 1.13417 11.2117 1.13417C11.9752 1.13417 12.7097 0.871815 13.3577 0.405296ZM14.3664 2.27077C13.4536 2.87101 12.3772 3.24311 11.2117 3.24311C10.0462 3.24311 8.96976 2.87101 8.05705 2.27077C7.31782 2.56906 6.63004 2.96936 6.01126 3.45456C6.07424 4.54429 5.85814 5.66166 5.27586 6.67018C4.69343 7.67899 3.83351 8.42495 2.85795 8.91528C2.80393 9.301 2.77593 9.69559 2.77593 10.0972C2.77593 10.4989 2.80393 10.8934 2.85795 11.2792C3.83351 11.7695 4.69343 12.5155 5.27586 13.5243C5.85813 14.5328 6.07424 15.6501 6.01126 16.7398C6.63002 17.225 7.31777 17.6253 8.05697 17.9236C8.96969 17.3233 10.0462 16.9512 11.2117 16.9512C12.3772 16.9512 13.4537 17.3233 14.3665 17.9236C15.1055 17.6253 15.7933 17.225 16.412 16.7399C16.3491 15.6502 16.5651 14.5328 17.1474 13.5243C17.7299 12.5153 18.5898 11.7694 19.5654 11.2791C19.6195 10.8934 19.6475 10.4989 19.6475 10.0972C19.6475 9.69559 19.6195 9.30111 19.5654 8.91549C18.5898 8.42516 17.7299 7.67916 17.1474 6.67031C16.5651 5.66172 16.349 4.54429 16.412 3.4545C15.7933 2.96932 15.1055 2.56905 14.3664 2.27077ZM11.2117 5.87925C13.5411 5.87925 15.4296 7.76766 15.4296 10.0971C15.4296 12.4266 13.5411 14.315 11.2117 14.315C8.88222 14.315 6.99381 12.4266 6.99381 10.0971C6.99381 7.76766 8.88222 5.87925 11.2117 5.87925ZM11.2117 7.98819C10.0469 7.98819 9.10275 8.93236 9.10275 10.0971C9.10275 11.2619 10.0469 12.2061 11.2117 12.2061C12.3765 12.2061 13.3206 11.2619 13.3206 10.0971C13.3206 8.93236 12.3765 7.98819 11.2117 7.98819Z" fill="black"/>
</svg>
