<svg width="20" height="20" viewBox="0 0 20 20" fill="none" xmlns="http://www.w3.org/2000/svg">
<path d="M0 10C0 11.36 0.266667 12.6533 0.8 13.88C1.33333 15.1067 2.04 16.1733 2.92 17.08C3.8 17.9867 4.86667 18.7 6.12 19.22C7.37333 19.74 8.66667 20 10 20C11.3333 20 12.6267 19.74 13.88 19.22C15.1333 18.7 16.2 17.9867 17.08 17.08C17.96 16.1733 18.6667 15.1067 19.2 13.88C19.7333 12.6533 20 11.36 20 10C20 8.64 19.7333 7.34667 19.2 6.12C18.6667 4.89333 17.96 3.82667 17.08 2.92C16.2 2.01333 15.14 1.30667 13.9 0.8C12.66 0.293333 11.36 0.0266667 10 0C8.64 0 7.34667 0.266667 6.12 0.8C4.89333 1.33333 3.82667 2.04 2.92 2.92C2.01333 3.8 1.30667 4.86667 0.8 6.12C0.293333 7.37333 0.0266667 8.66667 0 10ZM2.5 10C2.5 8.64 2.83333 7.38667 3.5 6.24C4.16667 5.09333 5.08 4.18667 6.24 3.52C7.4 2.85333 8.65333 2.51333 10 2.5C11.3467 2.48667 12.6 2.82667 13.76 3.52C14.92 4.21333 15.8333 5.12 16.5 6.24C17.1667 7.36 17.5 8.61333 17.5 10C17.5 11.3867 17.1667 12.6467 16.5 13.78C15.8333 14.9133 14.92 15.82 13.76 16.5C12.6 17.18 11.3467 17.5133 10 17.5C8.65333 17.4867 7.4 17.1533 6.24 16.5C5.08 15.8467 4.16667 14.94 3.5 13.78C2.83333 12.62 2.5 11.36 2.5 10ZM6.1 12.66C6.1 13.0067 6.22 13.3 6.46 13.54C6.7 13.78 7 13.9067 7.36 13.92C7.72 13.9333 8.01333 13.8067 8.24 13.54L10 11.78L11.76 13.54C12 13.7933 12.2933 13.92 12.64 13.92C12.9867 13.92 13.2867 13.7933 13.54 13.54C13.7933 13.2867 13.9133 12.9933 13.9 12.66C13.8867 12.3267 13.7667 12.0333 13.54 11.78L11.76 10L13.54 8.24C13.78 8 13.9 7.70667 13.9 7.36C13.9 7.01333 13.78 6.72 13.54 6.48C13.3 6.24 13 6.11333 12.64 6.1C12.28 6.08667 11.9867 6.21333 11.76 6.48L10 8.24L8.24 6.48C8 6.22667 7.70667 6.1 7.36 6.1C7.01333 6.1 6.71333 6.22667 6.46 6.48C6.20667 6.73333 6.08667 7.02667 6.1 7.36C6.11333 7.69333 6.23333 7.98667 6.46 8.24L8.24 10L6.46 11.78C6.22 12.02 6.1 12.3133 6.1 12.66Z" fill="#B60016"/>
</svg>
