<svg width="150" height="31" viewBox="0 0 150 31" fill="none" xmlns="http://www.w3.org/2000/svg">
<path d="M21.2159 8.57955H16.9659C16.8447 7.88258 16.6212 7.26515 16.2955 6.72727C15.9697 6.18182 15.5644 5.7197 15.0795 5.34091C14.5947 4.96212 14.0417 4.67803 13.4205 4.48864C12.8068 4.29167 12.1439 4.19318 11.4318 4.19318C10.1667 4.19318 9.04545 4.51136 8.06818 5.14773C7.09091 5.77651 6.32576 6.70076 5.77273 7.92045C5.2197 9.13258 4.94318 10.6136 4.94318 12.3636C4.94318 14.1439 5.2197 15.6439 5.77273 16.8636C6.33333 18.0758 7.09848 18.9924 8.06818 19.6136C9.04545 20.2273 10.1629 20.5341 11.4205 20.5341C12.1174 20.5341 12.7689 20.4432 13.375 20.2614C13.9886 20.072 14.5379 19.7955 15.0227 19.4318C15.5152 19.0682 15.928 18.6212 16.2614 18.0909C16.6023 17.5606 16.8371 16.9545 16.9659 16.2727L21.2159 16.2955C21.0568 17.4015 20.7121 18.4394 20.1818 19.4091C19.6591 20.3788 18.9735 21.2348 18.125 21.9773C17.2765 22.7121 16.2841 23.2879 15.1477 23.7045C14.0114 24.1136 12.75 24.3182 11.3636 24.3182C9.31818 24.3182 7.49242 23.8447 5.88636 22.8977C4.2803 21.9508 3.01515 20.5833 2.09091 18.7955C1.16667 17.0076 0.704545 14.8636 0.704545 12.3636C0.704545 9.85606 1.17045 7.71212 2.10227 5.93182C3.03409 4.14394 4.30303 2.77651 5.90909 1.82954C7.51515 0.882575 9.33333 0.40909 11.3636 0.40909C12.6591 0.40909 13.8636 0.590908 14.9773 0.954544C16.0909 1.31818 17.0833 1.85227 17.9545 2.55682C18.8258 3.25379 19.5417 4.10985 20.1023 5.125C20.6705 6.13258 21.0417 7.28409 21.2159 8.57955ZM32.5085 24.3409C30.804 24.3409 29.3267 23.9659 28.0767 23.2159C26.8267 22.4659 25.857 21.4167 25.1676 20.0682C24.4858 18.7197 24.1449 17.1439 24.1449 15.3409C24.1449 13.5379 24.4858 11.9583 25.1676 10.6023C25.857 9.24621 26.8267 8.19318 28.0767 7.44318C29.3267 6.69318 30.804 6.31818 32.5085 6.31818C34.2131 6.31818 35.6903 6.69318 36.9403 7.44318C38.1903 8.19318 39.1563 9.24621 39.8381 10.6023C40.5275 11.9583 40.8722 13.5379 40.8722 15.3409C40.8722 17.1439 40.5275 18.7197 39.8381 20.0682C39.1563 21.4167 38.1903 22.4659 36.9403 23.2159C35.6903 23.9659 34.2131 24.3409 32.5085 24.3409ZM32.5312 21.0455C33.4555 21.0455 34.2282 20.7917 34.8494 20.2841C35.4706 19.7689 35.9328 19.0795 36.2358 18.2159C36.5464 17.3523 36.7017 16.3902 36.7017 15.3295C36.7017 14.2614 36.5464 13.2955 36.2358 12.4318C35.9328 11.5606 35.4706 10.8674 34.8494 10.3523C34.2282 9.83712 33.4555 9.57955 32.5312 9.57955C31.5843 9.57955 30.7964 9.83712 30.1676 10.3523C29.5464 10.8674 29.0805 11.5606 28.7699 12.4318C28.4669 13.2955 28.3153 14.2614 28.3153 15.3295C28.3153 16.3902 28.4669 17.3523 28.7699 18.2159C29.0805 19.0795 29.5464 19.7689 30.1676 20.2841C30.7964 20.7917 31.5843 21.0455 32.5312 21.0455ZM48.4773 13.7727V24H44.3636V6.54545H48.2955V9.51136H48.5C48.9015 8.53409 49.5417 7.75758 50.4205 7.18182C51.3068 6.60606 52.4015 6.31818 53.7045 6.31818C54.9091 6.31818 55.9583 6.57576 56.8523 7.09091C57.7538 7.60606 58.4508 8.35227 58.9432 9.32955C59.4432 10.3068 59.6894 11.4924 59.6818 12.8864V24H55.5682V13.5227C55.5682 12.3561 55.2652 11.4432 54.6591 10.7841C54.0606 10.125 53.2311 9.79545 52.1705 9.79545C51.4508 9.79545 50.8106 9.95455 50.25 10.2727C49.697 10.5833 49.2614 11.0341 48.9432 11.625C48.6326 12.2159 48.4773 12.9318 48.4773 13.7727ZM71.4545 30.9091C69.9773 30.9091 68.7083 30.7083 67.6477 30.3068C66.5871 29.9129 65.7348 29.3826 65.0909 28.7159C64.447 28.0492 64 27.3106 63.75 26.5L67.4545 25.6023C67.6212 25.9432 67.8636 26.2803 68.1818 26.6136C68.5 26.9545 68.928 27.2348 69.4659 27.4545C70.0114 27.6818 70.697 27.7955 71.5227 27.7955C72.6894 27.7955 73.6553 27.5114 74.4205 26.9432C75.1856 26.3826 75.5682 25.4583 75.5682 24.1705V20.8636H75.3636C75.1515 21.2879 74.8409 21.7235 74.4318 22.1705C74.0303 22.6174 73.4962 22.9924 72.8295 23.2955C72.1705 23.5985 71.3409 23.75 70.3409 23.75C69 23.75 67.7841 23.4356 66.6932 22.8068C65.6098 22.1705 64.7462 21.2235 64.1023 19.9659C63.4659 18.7008 63.1477 17.1174 63.1477 15.2159C63.1477 13.2992 63.4659 11.6818 64.1023 10.3636C64.7462 9.03788 65.6136 8.03409 66.7045 7.35227C67.7955 6.66288 69.0114 6.31818 70.3523 6.31818C71.375 6.31818 72.2159 6.49242 72.875 6.84091C73.5417 7.18182 74.072 7.5947 74.4659 8.07955C74.8598 8.55682 75.1591 9.00758 75.3636 9.43182H75.5909V6.54545H79.6477V24.2841C79.6477 25.7765 79.2917 27.0114 78.5795 27.9886C77.8674 28.9659 76.8939 29.697 75.6591 30.1818C74.4242 30.6667 73.0227 30.9091 71.4545 30.9091ZM71.4886 20.5227C72.3598 20.5227 73.1023 20.3106 73.7159 19.8864C74.3295 19.4621 74.7955 18.8523 75.1136 18.0568C75.4318 17.2614 75.5909 16.3068 75.5909 15.1932C75.5909 14.0947 75.4318 13.1326 75.1136 12.3068C74.803 11.4811 74.3409 10.8409 73.7273 10.3864C73.1212 9.92424 72.375 9.69318 71.4886 9.69318C70.572 9.69318 69.8068 9.93182 69.1932 10.4091C68.5795 10.8864 68.1174 11.5417 67.8068 12.375C67.4962 13.2008 67.3409 14.1402 67.3409 15.1932C67.3409 16.2614 67.4962 17.197 67.8068 18C68.125 18.7955 68.5909 19.4167 69.2045 19.8636C69.8258 20.303 70.5871 20.5227 71.4886 20.5227ZM83.8636 24V6.54545H87.8523V9.45455H88.0341C88.3523 8.44697 88.8977 7.67045 89.6705 7.125C90.4508 6.57197 91.3409 6.29545 92.3409 6.29545C92.5682 6.29545 92.822 6.30682 93.1023 6.32954C93.3902 6.3447 93.6288 6.37121 93.8182 6.40909V10.1932C93.6439 10.1326 93.3674 10.0795 92.9886 10.0341C92.6174 9.98106 92.2576 9.95455 91.9091 9.95455C91.1591 9.95455 90.4848 10.1174 89.8864 10.4432C89.2955 10.7614 88.8295 11.2045 88.4886 11.7727C88.1477 12.3409 87.9773 12.9962 87.9773 13.7386V24H83.8636ZM101.261 24.3523C100.155 24.3523 99.1591 24.1553 98.2727 23.7614C97.3939 23.3598 96.697 22.7689 96.1818 21.9886C95.6742 21.2083 95.4205 20.2462 95.4205 19.1023C95.4205 18.1174 95.6023 17.303 95.9659 16.6591C96.3295 16.0152 96.8258 15.5 97.4545 15.1136C98.0833 14.7273 98.7917 14.4356 99.5795 14.2386C100.375 14.0341 101.197 13.8864 102.045 13.7955C103.068 13.6894 103.898 13.5947 104.534 13.5114C105.17 13.4205 105.633 13.2841 105.92 13.1023C106.216 12.9129 106.364 12.6212 106.364 12.2273V12.1591C106.364 11.303 106.11 10.6402 105.602 10.1705C105.095 9.70076 104.364 9.46591 103.409 9.46591C102.402 9.46591 101.602 9.68561 101.011 10.125C100.428 10.5644 100.034 11.0833 99.8295 11.6818L95.9886 11.1364C96.2917 10.0758 96.7917 9.18939 97.4886 8.47727C98.1856 7.75757 99.0379 7.2197 100.045 6.86364C101.053 6.5 102.167 6.31818 103.386 6.31818C104.227 6.31818 105.064 6.41667 105.898 6.61364C106.731 6.81061 107.492 7.13636 108.182 7.59091C108.871 8.03788 109.424 8.64773 109.841 9.42045C110.265 10.1932 110.477 11.1591 110.477 12.3182V24H106.523V21.6023H106.386C106.136 22.0871 105.784 22.5417 105.33 22.9659C104.883 23.3826 104.318 23.7197 103.636 23.9773C102.962 24.2273 102.17 24.3523 101.261 24.3523ZM102.33 21.3295C103.155 21.3295 103.871 21.1667 104.477 20.8409C105.083 20.5076 105.549 20.0682 105.875 19.5227C106.208 18.9773 106.375 18.3826 106.375 17.7386V15.6818C106.246 15.7879 106.027 15.8864 105.716 15.9773C105.413 16.0682 105.072 16.1477 104.693 16.2159C104.314 16.2841 103.939 16.3447 103.568 16.3977C103.197 16.4508 102.875 16.4962 102.602 16.5341C101.989 16.6174 101.439 16.7538 100.955 16.9432C100.47 17.1326 100.087 17.3977 99.8068 17.7386C99.5265 18.072 99.3864 18.5038 99.3864 19.0341C99.3864 19.7917 99.6629 20.3636 100.216 20.75C100.769 21.1364 101.473 21.3295 102.33 21.3295ZM123.33 6.54545V9.72727H113.295V6.54545H123.33ZM115.773 2.36364H119.886V18.75C119.886 19.303 119.97 19.7273 120.136 20.0227C120.311 20.3106 120.538 20.5076 120.818 20.6136C121.098 20.7197 121.409 20.7727 121.75 20.7727C122.008 20.7727 122.242 20.7538 122.455 20.7159C122.674 20.678 122.841 20.6439 122.955 20.6136L123.648 23.8295C123.428 23.9053 123.114 23.9886 122.705 24.0795C122.303 24.1705 121.811 24.2235 121.227 24.2386C120.197 24.2689 119.269 24.1136 118.443 23.7727C117.617 23.4242 116.962 22.8864 116.477 22.1591C116 21.4318 115.765 20.5227 115.773 19.4318V2.36364ZM140.315 11.1591L136.565 11.5682C136.459 11.1894 136.274 10.8333 136.009 10.5C135.751 10.1667 135.402 9.89773 134.963 9.69318C134.524 9.48864 133.986 9.38636 133.349 9.38636C132.493 9.38636 131.774 9.57197 131.19 9.94318C130.615 10.3144 130.33 10.7955 130.338 11.3864C130.33 11.8939 130.516 12.3068 130.895 12.625C131.281 12.9432 131.918 13.2045 132.804 13.4091L135.781 14.0455C137.433 14.4015 138.66 14.9659 139.463 15.7386C140.274 16.5114 140.683 17.5227 140.69 18.7727C140.683 19.8712 140.361 20.8409 139.724 21.6818C139.096 22.5152 138.221 23.1667 137.099 23.6364C135.978 24.1061 134.69 24.3409 133.236 24.3409C131.099 24.3409 129.38 23.8939 128.077 23C126.774 22.0985 125.997 20.8447 125.747 19.2386L129.759 18.8523C129.94 19.6402 130.327 20.2348 130.918 20.6364C131.509 21.0379 132.277 21.2386 133.224 21.2386C134.202 21.2386 134.986 21.0379 135.577 20.6364C136.175 20.2348 136.474 19.7386 136.474 19.1477C136.474 18.6477 136.281 18.2348 135.895 17.9091C135.516 17.5833 134.925 17.3333 134.122 17.1591L131.145 16.5341C129.471 16.1856 128.232 15.5985 127.429 14.7727C126.626 13.9394 126.228 12.8864 126.236 11.6136C126.228 10.5379 126.52 9.60606 127.111 8.81818C127.709 8.02273 128.539 7.40909 129.599 6.97727C130.668 6.53788 131.899 6.31818 133.293 6.31818C135.338 6.31818 136.948 6.75379 138.122 7.625C139.304 8.49621 140.035 9.67424 140.315 11.1591ZM149.116 0.727272L148.741 17.1591H145.082L144.719 0.727272H149.116ZM146.912 24.25C146.223 24.25 145.632 24.0076 145.139 23.5227C144.654 23.0379 144.412 22.447 144.412 21.75C144.412 21.0682 144.654 20.4848 145.139 20C145.632 19.5152 146.223 19.2727 146.912 19.2727C147.586 19.2727 148.17 19.5152 148.662 20C149.162 20.4848 149.412 21.0682 149.412 21.75C149.412 22.2121 149.295 22.6326 149.06 23.0114C148.832 23.3902 148.529 23.6932 148.151 23.9205C147.779 24.1402 147.366 24.25 146.912 24.25Z" fill="black"/>
</svg>
