<svg width="24" height="24" viewBox="0 0 24 24" fill="none" xmlns="http://www.w3.org/2000/svg">
<path d="M2 4.22222H5.75M14.5 4.22222H22M14.5 4.22222C14.5 2.99492 13.3807 2 12 2C10.6193 2 9.5 2.99492 9.5 4.22222C9.5 5.44952 10.6193 6.44444 12 6.44444C13.3807 6.44444 14.5 5.44952 14.5 4.22222ZM9.5 12H17M17 12C17 13.2273 18.1193 14.2222 19.5 14.2222C20.8807 14.2222 22 13.2273 22 12C22 10.7727 20.8807 9.77778 19.5 9.77778C18.1193 9.77778 17 10.7727 17 12ZM2 12H5.75M10.75 19.7778H22M4.5 17.5556C5.88071 17.5556 7 18.5504 7 19.7778C7 21.0051 5.88071 22 4.5 22C3.11929 22 2 21.0051 2 19.7778C2 18.5504 3.11929 17.5556 4.5 17.5556Z" stroke="black" stroke-width="2.25" stroke-linecap="round"/>
</svg>
