<svg width="21" height="22" viewBox="0 0 21 22" fill="none" xmlns="http://www.w3.org/2000/svg">
<path d="M18.8012 6.39999V16.9C18.8012 18.6 17.5012 19.9 15.8012 19.9H4.70117C4.70117 21 5.60117 21.9 6.70117 21.9H16.8012C19.0012 21.9 20.8012 20.1 20.8012 17.9V8.39999C20.8012 7.29999 19.9012 6.39999 18.8012 6.39999Z" fill="#007BFD"/>
<path d="M3.80078 0.100006V2.10001H2.80078C1.70078 2.10001 0.800781 3.00001 0.800781 4.10001V16.1C0.800781 17.2 1.70078 18.1 2.80078 18.1H15.0008C16.1008 18.1 17.0008 17.2 17.0008 16.1V4.10001C17.0008 3.00001 16.1008 2.10001 15.0008 2.10001H14.0008V0.100006H12.0008V2.10001H5.80078V0.100006H3.80078ZM2.80078 7.10001H15.0008V16.1H2.80078V7.10001Z" fill="#007BFD"/>
<path d="M12.5008 15.3L10.1008 13.9L7.80078 15.3L8.40078 12.6L6.30078 10.8L9.10078 10.6L10.2008 8L11.3008 10.5L14.1008 10.8L12.0008 12.6L12.5008 15.3Z" fill="#007BFD"/>
</svg>
