<svg width="10" height="10" viewBox="0 0 10 10" fill="none" xmlns="http://www.w3.org/2000/svg">
<path fill-rule="evenodd" clip-rule="evenodd" d="M1.44345 1.44351C0.833252 2.0537 0.833252 3.03579 0.833252 4.99998C0.833252 6.96415 0.833252 7.94627 1.44345 8.55644C2.05364 9.16665 3.03573 9.16665 4.99992 9.16665C6.96409 9.16665 7.94621 9.16665 8.55638 8.55644C9.16658 7.94627 9.16658 6.96415 9.16658 4.99998C9.16658 3.03579 9.16658 2.0537 8.55638 1.44351C7.94621 0.833313 6.96409 0.833313 4.99992 0.833313C3.03573 0.833313 2.05364 0.833313 1.44345 1.44351ZM6.66658 4.16665C7.12684 4.16665 7.49992 3.79355 7.49992 3.33331C7.49992 2.87308 7.12684 2.49998 6.66658 2.49998C6.20634 2.49998 5.83325 2.87308 5.83325 3.33331C5.83325 3.79355 6.20634 4.16665 6.66658 4.16665ZM2.63364 5.4599C2.89367 5.21835 3.29988 5.2319 3.54324 5.49023L4.64638 6.66119C4.97946 7.01481 5.52475 7.06244 5.91413 6.77194C6.16963 6.58135 6.52534 6.60302 6.75579 6.82319L7.70071 7.72594C7.8255 7.84515 8.02333 7.84065 8.14254 7.71585C8.26175 7.59106 8.25725 7.39323 8.13246 7.27402L7.18754 6.37127C6.73654 5.9404 6.04038 5.89802 5.54042 6.27098C5.40554 6.3716 5.21667 6.3551 5.10129 6.23265L3.99816 5.06169C3.5193 4.55335 2.71999 4.52669 2.20829 5.00194L1.87059 5.3156C1.74413 5.43306 1.73683 5.63077 1.85428 5.75723C1.97174 5.88369 2.16946 5.89102 2.29592 5.77356L2.63364 5.4599Z" fill="url(#paint0_linear_183_70)"/>
<defs>
<linearGradient id="paint0_linear_183_70" x1="0.833252" y1="4.99998" x2="9.16658" y2="4.99998" gradientUnits="userSpaceOnUse">
<stop stop-color="#4F78DA"/>
<stop offset="1" stop-color="#339003"/>
</linearGradient>
</defs>
</svg>
