<svg width="18" height="13" viewBox="0 0 18 13" fill="none" xmlns="http://www.w3.org/2000/svg">
<path d="M12.8309 5.69025C13.1799 5.69025 13.4632 5.9735 13.4632 6.3225C13.4632 6.6715 13.1799 6.95475 12.8309 6.95475C12.4819 6.95475 12.1987 6.6715 12.1987 6.3225C12.1987 5.9735 12.4819 5.69025 12.8309 5.69025Z" fill="#007BFD"/>
<path d="M12.8309 3.16125C13.1799 3.16125 13.4632 3.4445 13.4632 3.7935C13.4632 4.1425 13.1799 4.42575 12.8309 4.42575C12.4819 4.42575 12.1987 4.1425 12.1987 3.7935C12.1987 3.4445 12.4819 3.16125 12.8309 3.16125Z" fill="#007BFD"/>
<path d="M14.0954 4.42575C14.4444 4.42575 14.7277 4.709 14.7277 5.058C14.7277 5.407 14.4444 5.69025 14.0954 5.69025C13.7464 5.69025 13.4632 5.407 13.4632 5.058C13.4632 4.709 13.7464 4.42575 14.0954 4.42575Z" fill="#007BFD"/>
<path d="M11.5664 4.42575C11.9154 4.42575 12.1987 4.709 12.1987 5.058C12.1987 5.407 11.9154 5.69025 11.5664 5.69025C11.2174 5.69025 10.9342 5.407 10.9342 5.058C10.9342 4.709 11.2174 4.42575 11.5664 4.42575Z" fill="#007BFD"/>
<path fill-rule="evenodd" clip-rule="evenodd" d="M4.4492 0H13.3443C14.7991 0 16.0668 0.993265 16.4139 2.40634C16.703 3.58026 17.0843 5.13016 17.442 6.58407L17.4432 6.58879L17.9079 8.47784C18.3201 10.1552 17.3104 11.8534 15.64 12.2909L13.9589 12.7316C12.5919 13.0901 11.1915 12.2815 10.8185 10.919L10.8179 10.9171C10.6882 10.4441 10.2583 10.116 9.76768 10.116H8.30719C7.81656 10.116 7.38662 10.4441 7.25701 10.9171L7.2564 10.919C6.88337 12.2815 5.48293 13.0901 4.116 12.7316L2.36024 12.2713C0.727136 11.8433 -0.281294 10.2071 0.0696047 8.55562C0.457806 6.73031 0.989521 4.23165 1.35749 2.50371C1.66793 1.04384 2.95709 0 4.4492 0ZM15.1861 2.70792C14.9774 1.86071 14.2175 1.2645 13.3443 1.2645H4.4492C3.55394 1.2645 2.78068 1.89043 2.59417 2.76673C2.22683 4.49467 1.69512 6.99395 1.30628 8.81862C1.09574 9.80999 1.70081 10.7913 2.6808 11.0486L4.43655 11.5089C5.13329 11.6909 5.8471 11.2793 6.03677 10.5851L6.03741 10.5832C6.3175 9.56026 7.2469 8.8515 8.30719 8.8515H9.76768C10.828 8.8515 11.7574 9.56026 12.0375 10.5832L12.0381 10.5851C12.2278 11.2793 12.9416 11.6909 13.6383 11.5089L15.3188 11.0682C16.3216 10.8052 16.9273 9.7866 16.6801 8.78005L15.1861 2.70792Z" fill="#20235A"/>
<path d="M4.61168 4.42575H3.97943C3.81189 4.42575 3.65066 4.49214 3.53243 4.611C3.41357 4.72923 3.34718 4.89046 3.34718 5.058C3.34718 5.22555 3.41357 5.38677 3.53243 5.505C3.65066 5.62387 3.81189 5.69025 3.97943 5.69025H4.61168V6.3225C4.61168 6.49005 4.67807 6.65127 4.79693 6.7695C4.91516 6.88837 5.07639 6.95475 5.24393 6.95475C5.41148 6.95475 5.5727 6.88837 5.69094 6.7695C5.8098 6.65127 5.87618 6.49005 5.87618 6.3225V5.69025H6.50843C6.67598 5.69025 6.8372 5.62387 6.95544 5.505C7.0743 5.38677 7.14068 5.22555 7.14068 5.058C7.14068 4.89046 7.0743 4.72923 6.95544 4.611C6.8372 4.49214 6.67598 4.42575 6.50843 4.42575H5.87618V3.7935C5.87618 3.62595 5.8098 3.46473 5.69094 3.3465C5.5727 3.22764 5.41148 3.16125 5.24393 3.16125C5.07639 3.16125 4.91516 3.22764 4.79693 3.3465C4.67807 3.46473 4.61168 3.62595 4.61168 3.7935V4.42575Z" fill="#007BFD"/>
</svg>
