<svg width="70" height="27" viewBox="0 0 70 27" fill="none" xmlns="http://www.w3.org/2000/svg">
<rect width="70" height="27" rx="9" fill="#D9D9D9"/>
<path d="M11.5689 17V10.4545H15.9027V11.5955H12.9528V13.1552H15.6151V14.2962H12.9528V17H11.5689ZM16.808 17V12.0909H18.1695V17H16.808ZM17.4919 11.4581C17.2895 11.4581 17.1159 11.391 16.971 11.2567C16.8282 11.1204 16.7568 10.9574 16.7568 10.7678C16.7568 10.5803 16.8282 10.4194 16.971 10.2852C17.1159 10.1488 17.2895 10.0806 17.4919 10.0806C17.6943 10.0806 17.8669 10.1488 18.0097 10.2852C18.1546 10.4194 18.227 10.5803 18.227 10.7678C18.227 10.9574 18.1546 11.1204 18.0097 11.2567C17.8669 11.391 17.6943 11.4581 17.4919 11.4581ZM20.6216 10.4545V17H19.2601V10.4545H20.6216ZM24.3234 12.0909V13.1136H21.3671V12.0909H24.3234ZM22.0383 10.9148H23.3998V15.4915C23.3998 15.6172 23.4189 15.7152 23.4573 15.7855C23.4956 15.8537 23.5489 15.9016 23.6171 15.9293C23.6874 15.957 23.7684 15.9709 23.86 15.9709C23.9239 15.9709 23.9878 15.9656 24.0518 15.9549C24.1157 15.9421 24.1647 15.9325 24.1988 15.9261L24.4129 16.9393C24.3447 16.9606 24.2488 16.9851 24.1253 17.0128C24.0017 17.0426 23.8515 17.0607 23.6746 17.0671C23.3465 17.0799 23.0589 17.0362 22.8117 16.9361C22.5667 16.8359 22.376 16.6804 22.2396 16.4695C22.1032 16.2585 22.0361 15.9922 22.0383 15.6705V10.9148ZM27.3948 17.0959C26.8898 17.0959 26.4552 16.9936 26.0908 16.7891C25.7286 16.5824 25.4495 16.2905 25.2535 15.9134C25.0574 15.5341 24.9594 15.0856 24.9594 14.5678C24.9594 14.0629 25.0574 13.6197 25.2535 13.2383C25.4495 12.8569 25.7254 12.5597 26.0812 12.3466C26.4392 12.1335 26.8589 12.027 27.3405 12.027C27.6643 12.027 27.9658 12.0792 28.2449 12.1836C28.5262 12.2859 28.7712 12.4403 28.98 12.647C29.191 12.8537 29.355 13.1136 29.4722 13.4268C29.5894 13.7379 29.648 14.1023 29.648 14.5199V14.8938H25.5028V14.0501H28.3664C28.3664 13.854 28.3238 13.6804 28.2385 13.5291C28.1533 13.3778 28.0351 13.2596 27.8838 13.1744C27.7346 13.087 27.561 13.0433 27.3628 13.0433C27.1562 13.0433 26.9729 13.0913 26.8131 13.1871C26.6555 13.2809 26.5319 13.4077 26.4424 13.5675C26.3529 13.7251 26.3071 13.9009 26.305 14.0948V14.897C26.305 15.1399 26.3497 15.3498 26.4392 15.5266C26.5308 15.7035 26.6597 15.8398 26.8259 15.9357C26.9921 16.0316 27.1892 16.0795 27.4172 16.0795C27.5684 16.0795 27.7069 16.0582 27.8327 16.0156C27.9584 15.973 28.066 15.9091 28.1555 15.8239C28.2449 15.7386 28.3131 15.6342 28.36 15.5107L29.6192 15.5938C29.5553 15.8963 29.4243 16.1605 29.2261 16.3864C29.0301 16.6101 28.7765 16.7848 28.4655 16.9105C28.1565 17.0341 27.7996 17.0959 27.3948 17.0959ZM30.5365 17V12.0909H31.8564V12.9474H31.9076C31.9971 12.6428 32.1473 12.4126 32.3582 12.2571C32.5692 12.0994 32.8121 12.0206 33.0869 12.0206C33.1551 12.0206 33.2286 12.0249 33.3074 12.0334C33.3863 12.0419 33.4555 12.0536 33.5152 12.0685V13.2766C33.4513 13.2575 33.3628 13.2404 33.2499 13.2255C33.137 13.2106 33.0336 13.2031 32.9399 13.2031C32.7396 13.2031 32.5606 13.2468 32.403 13.3342C32.2474 13.4194 32.1238 13.5387 32.0322 13.6921C31.9427 13.8455 31.898 14.0224 31.898 14.2227V17H30.5365ZM38.3036 13.4908L37.0572 13.5675C37.0359 13.4609 36.9901 13.3651 36.9197 13.2798C36.8494 13.1925 36.7567 13.1232 36.6417 13.0721C36.5288 13.0188 36.3935 12.9922 36.2358 12.9922C36.0249 12.9922 35.8469 13.0369 35.7021 13.1264C35.5572 13.2138 35.4847 13.331 35.4847 13.478C35.4847 13.5952 35.5316 13.6942 35.6254 13.7752C35.7191 13.8562 35.88 13.9212 36.108 13.9702L36.9964 14.1491C37.4737 14.2472 37.8295 14.4048 38.0639 14.6222C38.2983 14.8395 38.4155 15.125 38.4155 15.4787C38.4155 15.8004 38.3207 16.0827 38.131 16.3256C37.9435 16.5685 37.6857 16.7582 37.3576 16.8945C37.0316 17.0288 36.6555 17.0959 36.2294 17.0959C35.5795 17.0959 35.0618 16.9606 34.6761 16.69C34.2926 16.4173 34.0678 16.0465 34.0018 15.5778L35.3409 15.5075C35.3814 15.7056 35.4794 15.8569 35.6349 15.9613C35.7905 16.0636 35.9897 16.1147 36.2326 16.1147C36.4712 16.1147 36.663 16.0689 36.8079 15.9773C36.9549 15.8835 37.0295 15.7631 37.0316 15.6161C37.0295 15.4925 36.9773 15.3913 36.875 15.3125C36.7727 15.2315 36.6151 15.1697 36.402 15.1271L35.5518 14.9577C35.0724 14.8619 34.7156 14.6957 34.4812 14.4592C34.2489 14.2227 34.1328 13.9212 34.1328 13.5547C34.1328 13.2393 34.218 12.9677 34.3885 12.7397C34.5611 12.5117 34.8029 12.3359 35.114 12.2124C35.4272 12.0888 35.7937 12.027 36.2134 12.027C36.8335 12.027 37.3214 12.158 37.6772 12.4201C38.0352 12.6822 38.244 13.0391 38.3036 13.4908Z" fill="black"/>
<path d="M47 9.33333H49.25M54.5 9.33333H59M54.5 9.33333C54.5 8.59695 53.8285 8 53 8C52.1716 8 51.5 8.59695 51.5 9.33333C51.5 10.0697 52.1716 10.6667 53 10.6667C53.8285 10.6667 54.5 10.0697 54.5 9.33333ZM51.5 14H56M56 14C56 14.7364 56.6716 15.3333 57.5 15.3333C58.3285 15.3333 59 14.7364 59 14C59 13.2636 58.3285 12.6667 57.5 12.6667C56.6716 12.6667 56 13.2636 56 14ZM47 14H49.25M52.25 18.6667H59M48.5 17.3333C49.3284 17.3333 50 17.9303 50 18.6667C50 19.4031 49.3284 20 48.5 20C47.6716 20 47 19.4031 47 18.6667C47 17.9303 47.6716 17.3333 48.5 17.3333Z" stroke="black" stroke-width="1.5" stroke-linecap="round"/>
</svg>
