<svg width="23" height="23" viewBox="0 0 23 23" fill="none" xmlns="http://www.w3.org/2000/svg">
<path d="M7.30783 12.2994L10.1153 15.1069L15.1687 10.0534M14.5006 3.86353L13.9615 3.12348C13.6489 2.69426 13.2393 2.34501 12.766 2.10422C12.2928 1.86343 11.7693 1.73792 11.2383 1.73792C10.7073 1.73792 10.1838 1.86343 9.71055 2.10422C9.23729 2.34501 8.82765 2.69426 8.51504 3.12348L7.976 3.86353L7.07312 3.72091C6.54847 3.63833 6.01172 3.68095 5.50667 3.84532C5.00163 4.00968 4.5426 4.29112 4.16705 4.66668C3.79149 5.04224 3.51005 5.50126 3.34568 6.00631C3.18132 6.51135 3.13869 7.0481 3.22128 7.57276L3.3639 8.47564L2.62385 9.01467C2.19463 9.32728 1.84538 9.73692 1.60459 10.2102C1.3638 10.6834 1.23828 11.2069 1.23828 11.7379C1.23828 12.2689 1.3638 12.7924 1.60459 13.2656C1.84538 13.7389 2.19463 14.1485 2.62385 14.4612L3.3639 15.0002L3.22128 15.9031C3.13869 16.4277 3.18132 16.9645 3.34568 17.4695C3.51005 17.9746 3.79149 18.4336 4.16705 18.8092C4.5426 19.1847 5.00163 19.4662 5.50667 19.6305C6.01172 19.7949 6.54847 19.8375 7.07312 19.7549L7.976 19.6123L8.51504 20.3523C8.82765 20.7816 9.23729 21.1308 9.71055 21.3716C10.1838 21.6124 10.7073 21.7379 11.2383 21.7379C11.7693 21.7379 12.2928 21.6124 12.766 21.3716C13.2393 21.1308 13.6489 20.7816 13.9615 20.3523L14.5006 19.6123L15.4034 19.7549C15.9281 19.8375 16.4648 19.7949 16.9699 19.6305C17.4749 19.4662 17.934 19.1847 18.3095 18.8092C18.6851 18.4336 18.9665 17.9746 19.1309 17.4695C19.2952 16.9645 19.3379 16.4277 19.2553 15.9031L19.1127 15.0002L19.8527 14.4612C20.2819 14.1485 20.6312 13.7389 20.872 13.2656C21.1128 12.7924 21.2383 12.2689 21.2383 11.7379C21.2383 11.2069 21.1128 10.6834 20.872 10.2102C20.6312 9.73692 20.2819 9.32728 19.8527 9.01467L19.1127 8.47564L19.2553 7.57276C19.3379 7.0481 19.2952 6.51135 19.1309 6.00631C18.9665 5.50126 18.6851 5.04224 18.3095 4.66668C17.934 4.29112 17.4749 4.00968 16.9699 3.84532C16.4648 3.68095 15.9281 3.63833 15.4034 3.72091L14.5006 3.86353Z" stroke="black" stroke-width="2.2" stroke-linecap="round" stroke-linejoin="round"/>
</svg>
