<svg width="13" height="13" viewBox="0 0 13 13" fill="none" xmlns="http://www.w3.org/2000/svg">
<path d="M5.40112 4.81458C5.40112 4.20196 5.85585 3.70532 6.41675 3.70532C6.97764 3.70532 7.43237 4.20196 7.43237 4.81458C7.43237 5.22128 7.23196 5.57686 6.93317 5.76996C6.67566 5.93632 6.41675 6.1887 6.41675 6.51544V7.25495" stroke="white" stroke-linecap="round"/>
<path d="M3.75 1.7358C4.55898 1.26783 5.49823 1 6.5 1C9.53754 1 12 3.46243 12 6.5C12 9.53754 9.53754 12 6.5 12C3.46243 12 1 9.53754 1 6.5C1 5.49823 1.26783 4.55898 1.7358 3.75" stroke="white" stroke-linecap="round"/>
</svg>
