<svg width="6" height="18" viewBox="0 0 6 18" fill="none" xmlns="http://www.w3.org/2000/svg">
<path d="M1.44444 2.77778C1.44444 3.75962 2.24038 4.55556 3.22222 4.55556C4.20406 4.55556 5 3.75962 5 2.77778C5 1.79594 4.20406 1 3.22222 1C2.24038 1 1.44444 1.79594 1.44444 2.77778Z" stroke="black" stroke-width="2"/>
<path opacity="0.5" d="M1.44444 9.00001C1.44444 9.98185 2.24038 10.7778 3.22222 10.7778C4.20406 10.7778 5 9.98185 5 9.00001C5 8.01817 4.20406 7.22223 3.22222 7.22223C2.24038 7.22223 1.44444 8.01817 1.44444 9.00001Z" stroke="black" stroke-width="2"/>
<path d="M1.44444 15.2222C1.44444 16.2041 2.24038 17 3.22222 17C4.20406 17 5 16.2041 5 15.2222C5 14.2404 4.20406 13.4445 3.22222 13.4445C2.24038 13.4445 1.44444 14.2404 1.44444 15.2222Z" stroke="black" stroke-width="2"/>
</svg>
