<svg width="24" height="24" viewBox="0 0 24 24" fill="none" xmlns="http://www.w3.org/2000/svg">
<path d="M9.72836 18.3782L9.63194 18.3576L9.54745 18.4084L6.69558 20.1227L6.73279 17.3824L6.73474 17.2388L6.61164 17.1648C4.19147 15.7096 2.625 13.3173 2.625 10.625C2.625 6.24177 6.78478 2.625 12 2.625C17.2152 2.625 21.375 6.24177 21.375 10.625C21.375 15.0089 17.2152 18.625 12 18.625C11.2165 18.625 10.4586 18.5338 9.72836 18.3782ZM4.875 23V23.4441L5.25469 23.2137L9.99468 20.3376C10.6447 20.4404 11.3138 20.5 12 20.5C18.1804 20.5 23.25 16.1091 23.25 10.625C23.25 5.14156 18.1804 0.75 12 0.75C5.81957 0.75 0.75 5.14156 0.75 10.625C0.75 13.7129 2.36637 16.4563 4.875 18.2609V23Z" fill="#4D4D4D" stroke="#4D4D4D" stroke-width="0.5"/>
</svg>
