<svg width="21" height="22" viewBox="0 0 21 22" fill="none" xmlns="http://www.w3.org/2000/svg">
<path d="M7.56836 15.058C8.76345 15.3576 10.1193 15.3578 11.4838 14.9921C12.8482 14.6265 14.0223 13.9484 14.9076 13.0914" stroke="black" stroke-width="2" stroke-linecap="round"/>
<path d="M12.8302 9.72045C12.8302 9.72041 12.8306 9.71952 12.8316 9.71793C12.8307 9.71971 12.8302 9.7205 12.8302 9.72045ZM13.1804 9.62448C13.182 9.62536 13.1828 9.62591 13.1828 9.62596C13.1829 9.62601 13.182 9.62557 13.1804 9.62448ZM12.9321 8.6978C12.933 8.69602 12.9334 8.69522 12.9335 8.69527C12.9335 8.69532 12.933 8.69621 12.9321 8.6978ZM12.5833 8.79125C12.5817 8.79036 12.5808 8.78982 12.5808 8.78976C12.5808 8.78971 12.5816 8.79016 12.5833 8.79125Z" fill="#4F78DA" fill-opacity="0.35" stroke="black" stroke-width="2"/>
<path d="M7.32629 11.1962C7.32626 11.1961 7.32671 11.1952 7.32769 11.1936C7.3268 11.1954 7.32631 11.1962 7.32629 11.1962ZM7.67646 11.1002C7.67811 11.1011 7.67894 11.1016 7.67894 11.1017C7.67895 11.1017 7.67812 11.1013 7.67646 11.1002ZM7.42816 10.1735C7.42905 10.1717 7.42954 10.1709 7.42957 10.171C7.42959 10.171 7.42914 10.1719 7.42816 10.1735ZM7.07939 10.267C7.07775 10.2661 7.07691 10.2655 7.07691 10.2655C7.0769 10.2654 7.07773 10.2659 7.07939 10.267Z" fill="#4F78DA" fill-opacity="0.35" stroke="black" stroke-width="2"/>
<path d="M11.4492 15.1215L11.9032 16.0463C12.2464 16.7456 13.0875 17.0394 13.7914 16.7061C14.5096 16.3662 14.8108 15.5043 14.4607 14.7909L14.0245 13.9023" stroke="black" stroke-width="2"/>
<path d="M3.78368 4.60399C4.92391 3.46185 6.37085 2.59532 8.04184 2.14757C13.1085 0.789967 18.3164 3.79676 19.674 8.86343C21.0316 13.9301 18.0249 19.138 12.9582 20.4956C7.89151 21.8532 2.68359 18.8464 1.32598 13.7797C0.878243 12.1088 0.905207 10.4224 1.32422 8.8639" stroke="black" stroke-width="2" stroke-linecap="round"/>
</svg>
