<svg width="22" height="22" viewBox="0 0 22 22" fill="none" xmlns="http://www.w3.org/2000/svg">
<path d="M17.7828 10.8057C16.6788 11.9097 15.141 12.4091 13.5638 12.1594C13.1892 12.1003 12.9264 11.7454 12.9789 11.3642C13.0315 10.9831 13.3929 10.7268 13.7741 10.7794C14.9044 10.9502 16.0019 10.6019 16.7905 9.81334C18.1639 8.43987 18.1705 6.19894 16.7905 4.8189C15.4104 3.43884 13.1761 3.43884 11.796 4.81888C10.8628 5.75205 10.4817 7.13209 10.7971 8.40701L11.9538 13.0466C12.394 14.8012 11.8683 16.6807 10.5934 17.9556C8.67452 19.8745 5.54643 19.8745 3.62751 17.9556C1.70858 16.0366 1.70858 12.9085 3.6275 10.9896C4.73153 9.8856 6.26929 9.38615 7.84647 9.63589C8.22105 9.69504 8.48391 10.0499 8.43133 10.4311C8.37221 10.8188 8.01736 11.0685 7.63619 11.0159C6.52558 10.8516 5.42812 11.1999 4.63952 11.9885C3.26605 13.362 3.25949 15.6029 4.63954 16.983C6.01958 18.363 8.25394 18.363 9.63398 16.983C10.5672 16.0498 10.9483 14.6698 10.6329 13.3949L9.47623 8.75529C9.03593 7.00067 9.56166 5.12117 10.8366 3.84628C12.7555 1.92736 15.8836 1.92737 17.8025 3.8463C19.7214 5.76521 19.7017 8.88674 17.7828 10.8057Z" fill="black"/>
<path d="M8.41759 15.8316C9.14347 15.1057 9.14349 13.9288 8.41759 13.2029C7.69169 12.477 6.51482 12.4771 5.78894 13.2029C5.06305 13.9288 5.06303 15.1057 5.78894 15.8316C6.51484 16.5575 7.69171 16.5575 8.41759 15.8316Z" fill="black"/>
<path d="M15.6461 8.60278C16.372 7.87688 16.372 6.70003 15.6461 5.97413C14.9202 5.24822 13.7434 5.24822 13.0175 5.97413C12.2915 6.70003 12.2915 7.87688 13.0175 8.60278C13.7434 9.32868 14.9202 9.32868 15.6461 8.60278Z" fill="black"/>
</svg>
