<svg width="24" height="24" viewBox="0 0 24 24" fill="none" xmlns="http://www.w3.org/2000/svg">
<path d="M16.5199 5.44498V6.44498H10.8C9.78684 6.44498 8.81521 6.84744 8.09882 7.56383C7.38244 8.28021 6.97998 9.25184 6.97998 10.265V13.125H4.10999L1.25 15.9449V5.44498C1.25 4.43186 1.65246 3.46023 2.36885 2.74385C3.08523 2.02746 4.05686 1.625 5.06998 1.625H12.75C13.7544 1.63815 14.7132 2.04641 15.4188 2.76137C16.1244 3.47634 16.52 4.44047 16.5199 5.44498Z" stroke="#007BFD" stroke-width="2" stroke-miterlimit="10"/>
<path d="M22.2508 10.225V20.7249L19.3908 17.855H10.8009C9.95398 17.8572 9.13049 17.5773 8.46045 17.0594C7.79041 16.5415 7.31203 15.8151 7.10087 14.995C7.01632 14.6685 6.97596 14.3322 6.98087 13.995V10.225C6.98087 9.21186 7.38333 8.24023 8.09972 7.52385C8.8161 6.80746 9.78773 6.405 10.8009 6.405H18.4308C19.4439 6.405 20.4156 6.80746 21.132 7.52385C21.8483 8.24023 22.2508 9.21186 22.2508 10.225Z" stroke="#007BFD" stroke-width="2" stroke-miterlimit="10"/>
</svg>
