<svg width="10" height="10" viewBox="0 0 10 10" fill="none" xmlns="http://www.w3.org/2000/svg">
<path d="M5.00016 8.85415L3.771 7.62498H2.4585C1.72933 7.62498 1.146 7.08331 1.146 6.39581V2.37498C1.146 1.68748 1.68766 1.14581 2.37516 1.14581H7.62516C8.29183 1.14581 8.85433 1.68748 8.85433 2.37498V6.39581C8.85433 7.08331 8.31266 7.62498 7.62516 7.62498H6.22933L5.00016 8.85415Z" stroke="black" stroke-linecap="round" stroke-linejoin="round"/>
<path d="M5.00016 3.6875C5.3335 3.6875 5.60433 3.95833 5.60433 4.29167C5.60433 4.625 5.3335 4.89583 5.00016 4.89583C4.66683 4.89583 4.396 4.625 4.396 4.29167C4.396 3.95833 4.66683 3.6875 5.00016 3.6875ZM3.25016 3.6875C2.91683 3.6875 2.646 3.95833 2.646 4.29167C2.646 4.625 2.91683 4.89583 3.25016 4.89583C3.5835 4.89583 3.85433 4.625 3.85433 4.29167C3.85433 3.95833 3.5835 3.6875 3.25016 3.6875Z" stroke="black" stroke-width="0.5" stroke-linecap="round" stroke-linejoin="round"/>
<path d="M6.75016 3.6875C7.0835 3.6875 7.35433 3.95833 7.35433 4.29167C7.35433 4.625 7.0835 4.89583 6.75016 4.89583C6.41683 4.89583 6.146 4.625 6.146 4.29167C6.146 3.95833 6.41683 3.6875 6.75016 3.6875Z" stroke="black" stroke-width="0.5" stroke-linecap="round" stroke-linejoin="round"/>
</svg>
