<svg width="14" height="15" viewBox="0 0 14 15" fill="none" xmlns="http://www.w3.org/2000/svg">
<path opacity="0.4" d="M11.257 12.6454H10.6867C10.0863 12.6454 9.51595 12.878 9.09569 13.2983L7.81239 14.5666C7.22702 15.1445 6.27392 15.1445 5.68856 14.5666L4.40526 13.2983C3.98499 12.878 3.40713 12.6454 2.81426 12.6454H2.25141C1.00563 12.6454 0 11.6473 0 10.4165V2.22889C0 0.998124 1.00563 0 2.25141 0H11.257C12.5028 0 13.5085 0.998124 13.5085 2.22889V10.4165C13.5085 11.6398 12.5028 12.6454 11.257 12.6454Z" fill="white"/>
<path d="M6.96444 9.71855C6.85187 9.75607 6.66425 9.75607 6.54418 9.71855C5.56857 9.38084 3.3772 7.99247 3.3772 5.6285C3.3772 4.58535 4.21772 3.74481 5.25337 3.74481C5.86876 3.74481 6.40909 4.0375 6.75431 4.49528C7.09953 4.0375 7.63986 3.74481 8.25525 3.74481C9.2909 3.74481 10.1314 4.58535 10.1314 5.6285C10.1239 7.99247 7.94005 9.38084 6.96444 9.71855Z" fill="white"/>
</svg>
