<svg width="76" height="30" viewBox="0 0 76 30" fill="none" xmlns="http://www.w3.org/2000/svg">
<path d="M31.9325 15V5.54545H33.6452V13.5643H37.8093V15H31.9325ZM42.315 15.1385C41.6225 15.1385 41.0224 14.9862 40.5146 14.6815C40.0067 14.3768 39.6128 13.9505 39.3327 13.4027C39.0558 12.8549 38.9173 12.2147 38.9173 11.4822C38.9173 10.7498 39.0558 10.1081 39.3327 9.55717C39.6128 9.00627 40.0067 8.57848 40.5146 8.27379C41.0224 7.96911 41.6225 7.81676 42.315 7.81676C43.0075 7.81676 43.6076 7.96911 44.1154 8.27379C44.6232 8.57848 45.0156 9.00627 45.2926 9.55717C45.5727 10.1081 45.7127 10.7498 45.7127 11.4822C45.7127 12.2147 45.5727 12.8549 45.2926 13.4027C45.0156 13.9505 44.6232 14.3768 44.1154 14.6815C43.6076 14.9862 43.0075 15.1385 42.315 15.1385ZM42.3242 13.7997C42.6997 13.7997 43.0136 13.6966 43.266 13.4904C43.5183 13.2811 43.7061 13.0011 43.8292 12.6502C43.9554 12.2994 44.0185 11.9085 44.0185 11.4776C44.0185 11.0437 43.9554 10.6513 43.8292 10.3004C43.7061 9.9465 43.5183 9.66489 43.266 9.45561C43.0136 9.24633 42.6997 9.14169 42.3242 9.14169C41.9395 9.14169 41.6194 9.24633 41.364 9.45561C41.1116 9.66489 40.9223 9.9465 40.7962 10.3004C40.6731 10.6513 40.6115 11.0437 40.6115 11.4776C40.6115 11.9085 40.6731 12.2994 40.7962 12.6502C40.9223 13.0011 41.1116 13.2811 41.364 13.4904C41.6194 13.6966 41.9395 13.7997 42.3242 13.7997ZM50.2149 17.8068C49.6148 17.8068 49.0993 17.7253 48.6684 17.5621C48.2375 17.4021 47.8913 17.1867 47.6297 16.9158C47.3681 16.645 47.1865 16.3449 47.085 16.0156L48.5899 15.6509C48.6576 15.7894 48.7561 15.9264 48.8854 16.0618C49.0146 16.2003 49.1885 16.3142 49.407 16.4034C49.6286 16.4957 49.9072 16.5419 50.2426 16.5419C50.7166 16.5419 51.109 16.4265 51.4198 16.1957C51.7307 15.9679 51.8861 15.5924 51.8861 15.0692V13.7259H51.803C51.7168 13.8982 51.5906 14.0752 51.4244 14.2567C51.2613 14.4383 51.0444 14.5907 50.7735 14.7138C50.5058 14.8369 50.1688 14.8984 49.7625 14.8984C49.2178 14.8984 48.7238 14.7707 48.2806 14.5153C47.8405 14.2567 47.4897 13.872 47.2281 13.3612C46.9695 12.8472 46.8403 12.204 46.8403 11.4315C46.8403 10.6528 46.9695 9.99574 47.2281 9.46023C47.4897 8.92164 47.8421 8.51385 48.2852 8.23686C48.7284 7.95679 49.2224 7.81676 49.7671 7.81676C50.1826 7.81676 50.5242 7.88755 50.792 8.02912C51.0628 8.16761 51.2783 8.33535 51.4383 8.53232C51.5983 8.72621 51.7199 8.90933 51.803 9.08168H51.8953V7.90909H53.5434V15.1154C53.5434 15.7217 53.3988 16.2234 53.1095 16.6204C52.8202 17.0174 52.4247 17.3144 51.923 17.5114C51.4214 17.7083 50.852 17.8068 50.2149 17.8068ZM50.2288 13.5874C50.5827 13.5874 50.8843 13.5012 51.1336 13.3288C51.3829 13.1565 51.5722 12.9087 51.7014 12.5856C51.8307 12.2624 51.8953 11.8746 51.8953 11.4222C51.8953 10.976 51.8307 10.5851 51.7014 10.2496C51.5753 9.91418 51.3875 9.65412 51.1382 9.46946C50.892 9.28172 50.5889 9.18785 50.2288 9.18785C49.8564 9.18785 49.5455 9.2848 49.2963 9.47869C49.047 9.67259 48.8592 9.9388 48.733 10.2773C48.6069 10.6128 48.5438 10.9944 48.5438 11.4222C48.5438 11.8562 48.6069 12.2363 48.733 12.5625C48.8623 12.8857 49.0516 13.138 49.3009 13.3196C49.5532 13.4981 49.8625 13.5874 50.2288 13.5874ZM58.3492 15.1385C57.6567 15.1385 57.0566 14.9862 56.5487 14.6815C56.0409 14.3768 55.647 13.9505 55.3669 13.4027C55.0899 12.8549 54.9514 12.2147 54.9514 11.4822C54.9514 10.7498 55.0899 10.1081 55.3669 9.55717C55.647 9.00627 56.0409 8.57848 56.5487 8.27379C57.0566 7.96911 57.6567 7.81676 58.3492 7.81676C59.0416 7.81676 59.6418 7.96911 60.1496 8.27379C60.6574 8.57848 61.0498 9.00627 61.3268 9.55717C61.6069 10.1081 61.7469 10.7498 61.7469 11.4822C61.7469 12.2147 61.6069 12.8549 61.3268 13.4027C61.0498 13.9505 60.6574 14.3768 60.1496 14.6815C59.6418 14.9862 59.0416 15.1385 58.3492 15.1385ZM58.3584 13.7997C58.7339 13.7997 59.0478 13.6966 59.3002 13.4904C59.5525 13.2811 59.7403 13.0011 59.8634 12.6502C59.9896 12.2994 60.0526 11.9085 60.0526 11.4776C60.0526 11.0437 59.9896 10.6513 59.8634 10.3004C59.7403 9.9465 59.5525 9.66489 59.3002 9.45561C59.0478 9.24633 58.7339 9.14169 58.3584 9.14169C57.9737 9.14169 57.6536 9.24633 57.3982 9.45561C57.1458 9.66489 56.9565 9.9465 56.8303 10.3004C56.7072 10.6513 56.6457 11.0437 56.6457 11.4776C56.6457 11.9085 56.7072 12.2994 56.8303 12.6502C56.9565 13.0011 57.1458 13.2811 57.3982 13.4904C57.6536 13.6966 57.9737 13.7997 58.3584 13.7997ZM67.6848 12.0178V7.90909H69.356V15H67.7356V13.7397H67.6618C67.5017 14.1367 67.2386 14.4614 66.8723 14.7138C66.5092 14.9661 66.0614 15.0923 65.5289 15.0923C65.0642 15.0923 64.6534 14.9892 64.2963 14.783C63.9424 14.5737 63.6654 14.2706 63.4654 13.8736C63.2653 13.4735 63.1653 12.9903 63.1653 12.424V7.90909H64.8365V12.1655C64.8365 12.6148 64.9596 12.9718 65.2058 13.2365C65.452 13.5012 65.7752 13.6335 66.1752 13.6335C66.4215 13.6335 66.66 13.5735 66.8908 13.4535C67.1216 13.3335 67.3109 13.1549 67.4586 12.918C67.6094 12.6779 67.6848 12.3778 67.6848 12.0178ZM74.6153 7.90909V9.2017H70.539V7.90909H74.6153ZM71.5454 6.21023H73.2165V12.8672C73.2165 13.0919 73.2504 13.2642 73.3181 13.3842C73.3889 13.5012 73.4812 13.5812 73.5951 13.6243C73.709 13.6674 73.8351 13.6889 73.9736 13.6889C74.0783 13.6889 74.1737 13.6812 74.2599 13.6658C74.3491 13.6504 74.4168 13.6366 74.463 13.6243L74.7446 14.9308C74.6553 14.9615 74.5276 14.9954 74.3614 15.0323C74.1983 15.0692 73.9983 15.0908 73.7613 15.0969C73.3427 15.1093 72.9657 15.0462 72.6302 14.9077C72.2948 14.7661 72.0286 14.5476 71.8316 14.2521C71.6377 13.9567 71.5423 13.5874 71.5454 13.1442V6.21023Z" fill="#F1F1F1"/>
<g filter="url(#filter0_d_3009_25)">
<path d="M17.0008 11.0008H8M8 11.0008L10.0002 13.001M8 11.0008L10.0002 9.00067" stroke="white" stroke-width="1.75" stroke-linecap="round" stroke-linejoin="round"/>
<path d="M14.0006 20.9844C12.447 20.9376 11.5203 20.7643 10.879 20.1229C10.1105 19.3545 10.0141 18.1765 10.002 16.0013M18.0009 21C20.1761 20.9879 21.3541 20.8914 22.1226 20.1229C23.0013 19.2442 23.0013 17.8298 23.0013 15.0012V13.001V9.00068V7.00051C23.0013 4.17184 23.0013 2.75751 22.1226 1.87875C21.2438 1 19.8295 1 17.0008 1H16.0008C13.172 1 11.7577 1 10.879 1.87875C10.1105 2.6472 10.0141 3.82521 10.002 6.00042" stroke="white" stroke-width="1.75" stroke-linecap="round"/>
<path d="M5 8.50061V13.501C5 15.8582 5 17.0368 5.73229 17.7692C6.46459 18.5015 7.64321 18.5015 10.0004 18.5015M5.73229 4.23248C6.46459 3.50018 7.64321 3.50018 10.0004 3.50018" stroke="white" stroke-width="1.75" stroke-linecap="round"/>
</g>
<defs>
<filter id="filter0_d_3009_25" x="0.125" y="0.125" width="27.752" height="29.75" filterUnits="userSpaceOnUse" color-interpolation-filters="sRGB">
<feFlood flood-opacity="0" result="BackgroundImageFix"/>
<feColorMatrix in="SourceAlpha" type="matrix" values="0 0 0 0 0 0 0 0 0 0 0 0 0 0 0 0 0 0 127 0" result="hardAlpha"/>
<feOffset dy="4"/>
<feGaussianBlur stdDeviation="2"/>
<feComposite in2="hardAlpha" operator="out"/>
<feColorMatrix type="matrix" values="0 0 0 0 0 0 0 0 0 0 0 0 0 0 0 0 0 0 0.25 0"/>
<feBlend mode="normal" in2="BackgroundImageFix" result="effect1_dropShadow_3009_25"/>
<feBlend mode="normal" in="SourceGraphic" in2="effect1_dropShadow_3009_25" result="shape"/>
</filter>
</defs>
</svg>
