<svg width="27" height="27" viewBox="0 0 27 27" fill="none" xmlns="http://www.w3.org/2000/svg">
<circle opacity="0.75" cx="13.5" cy="13.5" r="13.5" fill="#009B8A"/>
<path d="M17.2727 12.4091C18.6309 12.4091 19.7191 11.3127 19.7191 9.95455C19.7191 8.59636 18.6309 7.5 17.2727 7.5C15.9145 7.5 14.8182 8.59636 14.8182 9.95455C14.8182 11.3127 15.9145 12.4091 17.2727 12.4091ZM10.7273 12.4091C12.0855 12.4091 13.1736 11.3127 13.1736 9.95455C13.1736 8.59636 12.0855 7.5 10.7273 7.5C9.36909 7.5 8.27273 8.59636 8.27273 9.95455C8.27273 11.3127 9.36909 12.4091 10.7273 12.4091ZM10.7273 14.0455C8.82091 14.0455 5 15.0027 5 16.9091V18.9545H16.4545V16.9091C16.4545 15.0027 12.6336 14.0455 10.7273 14.0455ZM17.2727 14.0455C17.0355 14.0455 16.7655 14.0618 16.4791 14.0864C17.4282 14.7736 18.0909 15.6982 18.0909 16.9091V18.9545H23V16.9091C23 15.0027 19.1791 14.0455 17.2727 14.0455Z" fill="white"/>
</svg>
