<svg width="16" height="15" viewBox="0 0 16 15" fill="none" xmlns="http://www.w3.org/2000/svg">
<g opacity="0.5">
<path d="M4.0136 3.64983C4.26204 3.43055 4.28568 3.05139 4.06641 2.80295C3.84713 2.55451 3.46797 2.53086 3.21952 2.75014C1.76726 4.03191 0.849854 5.90918 0.849854 7.99998C0.849854 8.33134 1.11849 8.59998 1.44985 8.59998C1.78122 8.59998 2.04985 8.33134 2.04985 7.99998C2.04985 6.26774 2.80848 4.71348 4.0136 3.64983Z" fill="white"/>
<path d="M12.4804 2.75014C12.232 2.53086 11.8528 2.55451 11.6335 2.80295C11.4143 3.05139 11.4379 3.43055 11.6863 3.64983C12.8915 4.71348 13.6501 6.26774 13.6501 7.99998C13.6501 8.33134 13.9187 8.59998 14.2501 8.59998C14.5815 8.59998 14.8501 8.33134 14.8501 7.99998C14.8501 5.90918 13.9327 4.03191 12.4804 2.75014Z" fill="white"/>
<path d="M6.39957 13.6173C6.07869 13.5347 5.75158 13.7279 5.66898 14.0488C5.58639 14.3697 5.77958 14.6968 6.10049 14.7794C6.66037 14.9235 7.24669 14.9999 7.85005 14.9999C8.45341 14.9999 9.03973 14.9235 9.59957 14.7794C9.92053 14.6968 10.1137 14.3697 10.0311 14.0488C9.94853 13.7279 9.62141 13.5347 9.30053 13.6173C8.83757 13.7364 8.35165 13.7999 7.85005 13.7999C7.34845 13.7999 6.86253 13.7364 6.39957 13.6173Z" fill="white"/>
</g>
<path d="M5.44971 2.4C5.44971 3.72548 6.52419 4.8 7.84971 4.8C9.17523 4.8 10.2497 3.72548 10.2497 2.4C10.2497 1.07452 9.17523 0 7.84971 0C6.52419 0 5.44971 1.07452 5.44971 2.4Z" fill="white"/>
<path d="M0.25 12C0.25 13.3255 1.32452 14.4 2.65 14.4C3.97548 14.4 5.05 13.3255 5.05 12C5.05 10.6745 3.97548 9.59998 2.65 9.59998C1.32452 9.59998 0.25 10.6745 0.25 12Z" fill="white"/>
<path d="M13.0499 14.4C11.7244 14.4 10.6499 13.3255 10.6499 12C10.6499 10.6745 11.7244 9.59998 13.0499 9.59998C14.3754 9.59998 15.4499 10.6745 15.4499 12C15.4499 13.3255 14.3754 14.4 13.0499 14.4Z" fill="white"/>
</svg>
