<svg width="10" height="13" viewBox="0 0 10 13" fill="none" xmlns="http://www.w3.org/2000/svg">
<path d="M3.07549 11.0762L7.65166 6.50003L3.07551 1.92387C2.81821 1.66657 2.81821 1.25027 3.07551 0.992963C3.33281 0.735659 3.74912 0.735659 4.00642 0.992963L9.04804 6.03458C9.30534 6.29188 9.30534 6.70819 9.04804 6.96549L4.00642 12.0071C3.87813 12.1354 3.70931 12.2 3.54095 12.2C3.37262 12.2 3.20379 12.1354 3.07549 12.0071C2.81818 11.7498 2.81818 11.3335 3.07549 11.0762Z" fill="black" stroke="black" stroke-width="0.4"/>
<path d="M1.19334 9.36069L4.05403 6.50001L1.19336 3.63934C1.00122 3.4472 1.00122 3.13623 1.19336 2.94409C1.3855 2.75195 1.69647 2.75195 1.88861 2.94409L5.09691 6.15239C5.28905 6.34453 5.28905 6.6555 5.09691 6.84764L1.88861 10.0559C1.79281 10.1517 1.66666 10.2 1.54098 10.2C1.41531 10.2 1.28914 10.1517 1.19334 10.0559C1.0012 9.8638 1.0012 9.55284 1.19334 9.36069Z" fill="black" stroke="black" stroke-width="0.4"/>
</svg>
