<svg width="22" height="20" viewBox="0 0 22 20" fill="none" xmlns="http://www.w3.org/2000/svg">
<path d="M16.5556 18.2062C16.5556 16.3652 14.0682 14.8729 11 14.8729C7.93176 14.8729 5.44444 16.3652 5.44444 18.2062M21 14.8733C21 13.5064 19.6288 12.3317 17.6667 11.8173M1 14.8733C1 13.5064 2.37122 12.3317 4.33333 11.8173M17.6667 7.35744C18.3486 6.7471 18.7778 5.86011 18.7778 4.87288C18.7778 3.03194 17.2854 1.53955 15.4444 1.53955C14.5907 1.53955 13.812 1.86049 13.2222 2.38832M4.33333 7.35744C3.65139 6.7471 3.22222 5.86011 3.22222 4.87288C3.22222 3.03194 4.71461 1.53955 6.55556 1.53955C7.40928 1.53955 8.18804 1.86049 8.77778 2.38832M11 11.5395C9.159 11.5395 7.66667 10.0472 7.66667 8.20622C7.66667 6.36527 9.159 4.87288 11 4.87288C12.841 4.87288 14.3333 6.36527 14.3333 8.20622C14.3333 10.0472 12.841 11.5395 11 11.5395Z" stroke="black" stroke-width="2" stroke-linecap="round" stroke-linejoin="round"/>
</svg>
