<svg width="26" height="19" viewBox="0 0 26 19" fill="none" xmlns="http://www.w3.org/2000/svg">
<path d="M23.1099 0.460449H3.41748C1.96196 0.460449 0.763672 1.6595 0.763672 3.11464V15.6143C0.763672 17.0705 1.96234 18.2684 3.41748 18.2684H23.1099C24.5654 18.2684 25.7637 17.0694 25.7637 15.6143V3.1154C25.7644 1.65912 24.5654 0.460449 23.1099 0.460449ZM23.9664 15.6154C23.9664 16.1295 23.5387 16.4712 23.1106 16.4712H3.41824C2.90453 16.4712 2.56244 16.0435 2.56244 15.615V12.4479H24.0524V15.615L23.9664 15.6154ZM23.9664 6.28293H2.56167V3.1154C2.56167 2.60131 2.98977 2.25921 3.41748 2.25921H23.1099C23.624 2.25921 23.9657 2.68731 23.9657 3.1154L23.9664 6.28293Z" fill="black"/>
</svg>
