<svg width="18" height="19" viewBox="0 0 18 19" fill="none" xmlns="http://www.w3.org/2000/svg">
<path d="M16.1809 15.5211L16.1741 15.5287L16.1677 15.5367C16.0509 15.6794 16.0236 15.8437 16.0145 15.9348C16.004 16.0401 16.0091 16.1493 16.0196 16.2493C16.0408 16.4508 16.0915 16.6856 16.153 16.9195C16.2229 17.1857 16.3126 17.4723 16.4061 17.7438C16.0973 17.5922 15.76 17.4352 15.4413 17.303C15.1769 17.1933 14.9129 17.0953 14.6824 17.0325C14.5674 17.0012 14.4492 16.9754 14.3365 16.9635C14.2338 16.9526 14.0866 16.9473 13.94 16.9962C13.2742 17.2181 12.5622 17.2957 11.8165 17.2581C10.3773 17.148 9.08653 16.4323 8.19673 15.3623C12.0096 14.8469 15.0766 11.6592 15.4134 7.84311C16.5848 8.72946 17.3786 10.0961 17.4887 11.6287C17.5822 13.1332 17.0742 14.5162 16.1809 15.5211Z" stroke="#007BFD"/>
<path d="M3.18897 13.6888C2.70714 13.8934 2.18941 14.1461 1.74452 14.372C1.89249 13.9559 2.04727 13.4868 2.16061 13.0627C2.23729 12.7758 2.30007 12.4912 2.32521 12.2501C2.33768 12.1305 2.3431 12.0022 2.32898 11.8804C2.31663 11.7738 2.28136 11.595 2.14766 11.4464C1.02887 10.1745 0.399156 8.46362 0.513242 6.57149C0.742304 3.30525 3.48397 0.641162 6.74914 0.508277L6.74914 0.508295L6.75329 0.508091C10.6336 0.31788 13.8314 3.51354 13.6603 7.3967C13.508 10.6643 10.8621 13.3863 7.61548 13.6349C6.69767 13.6919 5.80028 13.5772 4.96077 13.3107C4.80442 13.2583 4.64455 13.2608 4.52215 13.273C4.38901 13.2862 4.2481 13.3166 4.10901 13.3547C3.83048 13.4311 3.51086 13.5522 3.18897 13.6888Z" stroke="#20235A"/>
<path d="M7.23924 8.70891H6.68652C6.52275 8.70891 6.37946 8.56561 6.37946 8.40184C6.37946 8.03336 6.44087 7.72629 6.5637 7.48064C6.68652 7.23499 6.93217 6.96887 7.30065 6.68227C7.66913 6.3752 7.89432 6.19096 7.95573 6.08861C8.05808 5.94531 8.1195 5.78154 8.1195 5.5973C8.1195 5.35165 8.01714 5.14694 7.8329 4.9627C7.62819 4.77846 7.38254 4.69658 7.03453 4.69658C6.70699 4.69658 6.44087 4.77846 6.23616 4.9627C6.11333 5.06506 6.01098 5.20835 5.92909 5.37212C5.82674 5.61777 5.58108 5.76107 5.31496 5.7406C4.90554 5.67919 4.65989 5.22882 4.8646 4.86034C4.96695 4.65563 5.13072 4.47139 5.31496 4.28716C5.74485 3.91868 6.29757 3.73444 6.97312 3.73444C7.6896 3.73444 8.26279 3.91868 8.69269 4.30763C9.12258 4.67611 9.32729 5.12647 9.32729 5.61777C9.32729 5.90437 9.24541 6.15002 9.10211 6.39568C8.95881 6.64133 8.6108 6.98934 8.09903 7.39876C7.8329 7.62394 7.66913 7.78771 7.60772 7.93101C7.56678 8.03336 7.52584 8.17666 7.52584 8.38137C7.52584 8.58608 7.40301 8.70891 7.23924 8.70891ZM6.39993 9.79387V9.73246C6.39993 9.40492 6.66605 9.1388 6.99359 9.1388H7.055C7.38254 9.1388 7.64866 9.40492 7.64866 9.73246V9.79387C7.64866 10.1214 7.38254 10.3875 7.055 10.3875H6.99359C6.66605 10.3875 6.39993 10.1214 6.39993 9.79387Z" fill="#007BFD"/>
</svg>
