<svg width="208" height="63" viewBox="0 0 208 63" fill="none" xmlns="http://www.w3.org/2000/svg">
<path d="M0.630726 50.5455H1.94181L4.56396 54.9588H4.67476L7.29692 50.5455H8.608L5.19181 56.1037V60H4.04692V56.1037L0.630726 50.5455ZM11.8188 60.1477C11.1786 60.1477 10.6169 59.9954 10.1337 59.6907C9.65363 59.386 9.27816 58.9598 9.00732 58.4119C8.73957 57.8641 8.60569 57.224 8.60569 56.4915C8.60569 55.7528 8.73957 55.1081 9.00732 54.5572C9.27816 54.0063 9.65363 53.5785 10.1337 53.2738C10.6169 52.9691 11.1786 52.8168 11.8188 52.8168C12.4589 52.8168 13.019 52.9691 13.4992 53.2738C13.9823 53.5785 14.3578 54.0063 14.6256 54.5572C14.8964 55.1081 15.0318 55.7528 15.0318 56.4915C15.0318 57.224 14.8964 57.8641 14.6256 58.4119C14.3578 58.9598 13.9823 59.386 13.4992 59.6907C13.019 59.9954 12.4589 60.1477 11.8188 60.1477ZM11.8188 59.169C12.305 59.169 12.7051 59.0444 13.019 58.7951C13.333 58.5458 13.5653 58.218 13.7161 57.8118C13.8669 57.4055 13.9423 56.9654 13.9423 56.4915C13.9423 56.0175 13.8669 55.5759 13.7161 55.1665C13.5653 54.7572 13.333 54.4264 13.019 54.174C12.7051 53.9216 12.305 53.7955 11.8188 53.7955C11.3325 53.7955 10.9324 53.9216 10.6185 54.174C10.3046 54.4264 10.0722 54.7572 9.92139 55.1665C9.77058 55.5759 9.69518 56.0175 9.69518 56.4915C9.69518 56.9654 9.77058 57.4055 9.92139 57.8118C10.0722 58.218 10.3046 58.5458 10.6185 58.7951C10.9324 59.0444 11.3325 59.169 11.8188 59.169ZM21.1637 57.1009V52.9091H22.2532V60H21.1637V58.7997H21.0898C20.9236 59.1598 20.6651 59.466 20.3142 59.7184C19.9634 59.9677 19.5202 60.0923 18.9847 60.0923C18.5415 60.0923 18.1476 59.9954 17.8029 59.8015C17.4582 59.6045 17.1873 59.3091 16.9904 58.9151C16.7934 58.5181 16.6949 58.018 16.6949 57.4148V52.9091H17.7844V57.3409C17.7844 57.858 17.9291 58.2704 18.2184 58.5781C18.5107 58.8859 18.8831 59.0398 19.3355 59.0398C19.6064 59.0398 19.8818 58.9705 20.1619 58.832C20.445 58.6935 20.682 58.4812 20.8728 58.195C21.0667 57.9087 21.1637 57.544 21.1637 57.1009ZM28.9944 55.7344V60H27.9049V50.5455H28.9944V54.017H29.0867C29.2529 53.6508 29.5022 53.36 29.8346 53.1445C30.17 52.926 30.6163 52.8168 31.1733 52.8168C31.6565 52.8168 32.0797 52.9137 32.4429 53.1076C32.806 53.2984 33.0876 53.5923 33.2877 53.9893C33.4908 54.3833 33.5924 54.8849 33.5924 55.4943V60H32.5029V55.5682C32.5029 55.005 32.3567 54.5695 32.0643 54.2617C31.775 53.9509 31.3734 53.7955 30.8594 53.7955C30.5024 53.7955 30.1823 53.8709 29.8992 54.0217C29.6191 54.1725 29.3975 54.3925 29.2344 54.6818C29.0744 54.9711 28.9944 55.322 28.9944 55.7344ZM37.6722 60.1662C37.2228 60.1662 36.8151 60.0816 36.4488 59.9123C36.0826 59.7399 35.7917 59.4922 35.5763 59.169C35.3609 58.8428 35.2532 58.4489 35.2532 57.9872C35.2532 57.581 35.3332 57.2517 35.4932 56.9993C35.6532 56.7438 35.8671 56.5438 36.1349 56.3991C36.4027 56.2545 36.6981 56.1468 37.0213 56.076C37.3475 56.0021 37.6753 55.9437 38.0046 55.9006C38.4354 55.8452 38.7848 55.8036 39.0525 55.7759C39.3233 55.7451 39.5203 55.6944 39.6434 55.6236C39.7696 55.5528 39.8327 55.4297 39.8327 55.2543V55.2173C39.8327 54.7618 39.7081 54.4079 39.4588 54.1555C39.2126 53.9032 38.8386 53.777 38.337 53.777C37.8168 53.777 37.409 53.8909 37.1136 54.1186C36.8181 54.3464 36.6104 54.5895 36.4904 54.848L35.4563 54.4787C35.6409 54.0478 35.8871 53.7124 36.1949 53.4723C36.5058 53.2292 36.8443 53.0599 37.2105 52.9645C37.5799 52.866 37.943 52.8168 38.3 52.8168C38.5278 52.8168 38.7894 52.8445 39.0848 52.8999C39.3834 52.9522 39.6711 53.0614 39.9481 53.2276C40.2282 53.3938 40.4605 53.6446 40.6452 53.9801C40.8299 54.3156 40.9222 54.7649 40.9222 55.3281V60H39.8327V59.0398H39.7773C39.7034 59.1937 39.5803 59.3583 39.408 59.5337C39.2356 59.7092 39.0063 59.8584 38.7201 59.9815C38.4339 60.1046 38.0846 60.1662 37.6722 60.1662ZM37.8384 59.1875C38.2693 59.1875 38.6324 59.1029 38.9279 58.9336C39.2264 58.7643 39.4511 58.5458 39.6019 58.2781C39.7558 58.0103 39.8327 57.7287 39.8327 57.4332V56.4361C39.7865 56.4915 39.685 56.5423 39.528 56.5884C39.3741 56.6315 39.1956 56.67 38.9925 56.7038C38.7925 56.7346 38.597 56.7623 38.4062 56.7869C38.2185 56.8085 38.0661 56.8269 37.9492 56.8423C37.666 56.8793 37.4014 56.9393 37.1551 57.0224C36.912 57.1024 36.715 57.224 36.5642 57.3871C36.4165 57.5471 36.3426 57.7656 36.3426 58.0426C36.3426 58.4212 36.4827 58.7074 36.7627 58.9013C37.0459 59.0921 37.4044 59.1875 37.8384 59.1875ZM48.4551 52.9091L45.833 60H44.725L42.1028 52.9091H43.2847L45.2421 58.5597H45.3159L47.2733 52.9091H48.4551ZM52.6123 60.1477C51.929 60.1477 51.3397 59.9969 50.8441 59.6953C50.3517 59.3906 49.9716 58.9659 49.7039 58.4212C49.4392 57.8733 49.3069 57.2363 49.3069 56.5099C49.3069 55.7836 49.4392 55.1435 49.7039 54.5895C49.9716 54.0324 50.344 53.5985 50.8211 53.2876C51.3012 52.9737 51.8613 52.8168 52.5015 52.8168C52.8708 52.8168 53.2355 52.8783 53.5956 53.0014C53.9557 53.1245 54.2834 53.3246 54.5789 53.6016C54.8743 53.8755 55.1098 54.2386 55.2852 54.6911C55.4606 55.1435 55.5483 55.7005 55.5483 56.3622V56.8239H50.0824V55.8821H54.4404C54.4404 55.482 54.3604 55.125 54.2003 54.8111C54.0434 54.4972 53.8187 54.2494 53.5263 54.0678C53.237 53.8862 52.8954 53.7955 52.5015 53.7955C52.0675 53.7955 51.692 53.9032 51.375 54.1186C51.0611 54.331 50.8195 54.608 50.6503 54.9496C50.481 55.2912 50.3964 55.6574 50.3964 56.0483V56.6761C50.3964 57.2116 50.4887 57.6656 50.6733 58.038C50.8611 58.4073 51.1211 58.6889 51.4535 58.8828C51.7859 59.0736 52.1722 59.169 52.6123 59.169C52.8985 59.169 53.157 59.129 53.3878 59.049C53.6217 58.9659 53.8233 58.8428 53.9926 58.6797C54.1619 58.5135 54.2927 58.3073 54.385 58.0611L55.4375 58.3565C55.3267 58.7135 55.1406 59.0275 54.879 59.2983C54.6174 59.5661 54.2942 59.7753 53.9095 59.9261C53.5248 60.0739 53.0924 60.1477 52.6123 60.1477ZM61.9514 55.7344V60H60.8619V52.9091H61.9145V54.017H62.0068C62.173 53.657 62.4254 53.3677 62.7639 53.1491C63.1024 52.9276 63.5395 52.8168 64.075 52.8168C64.5551 52.8168 64.9752 52.9152 65.3353 53.1122C65.6954 53.3061 65.9754 53.6016 66.1755 53.9986C66.3755 54.3925 66.4755 54.8911 66.4755 55.4943V60H65.3861V55.5682C65.3861 55.0111 65.2414 54.5772 64.9521 54.2663C64.6628 53.9524 64.2658 53.7955 63.7611 53.7955C63.4133 53.7955 63.1024 53.8709 62.8285 54.0217C62.5577 54.1725 62.3438 54.3925 62.1868 54.6818C62.0299 54.9711 61.9514 55.322 61.9514 55.7344ZM71.3471 60.1477C70.7069 60.1477 70.1453 59.9954 69.6621 59.6907C69.182 59.386 68.8065 58.9598 68.5356 58.4119C68.2679 57.8641 68.134 57.224 68.134 56.4915C68.134 55.7528 68.2679 55.1081 68.5356 54.5572C68.8065 54.0063 69.182 53.5785 69.6621 53.2738C70.1453 52.9691 70.7069 52.8168 71.3471 52.8168C71.9872 52.8168 72.5474 52.9691 73.0275 53.2738C73.5107 53.5785 73.8861 54.0063 74.1539 54.5572C74.4247 55.1081 74.5601 55.7528 74.5601 56.4915C74.5601 57.224 74.4247 57.8641 74.1539 58.4119C73.8861 58.9598 73.5107 59.386 73.0275 59.6907C72.5474 59.9954 71.9872 60.1477 71.3471 60.1477ZM71.3471 59.169C71.8333 59.169 72.2334 59.0444 72.5474 58.7951C72.8613 58.5458 73.0936 58.218 73.2445 57.8118C73.3953 57.4055 73.4707 56.9654 73.4707 56.4915C73.4707 56.0175 73.3953 55.5759 73.2445 55.1665C73.0936 54.7572 72.8613 54.4264 72.5474 54.174C72.2334 53.9216 71.8333 53.7955 71.3471 53.7955C70.8608 53.7955 70.4607 53.9216 70.1468 54.174C69.8329 54.4264 69.6005 54.7572 69.4497 55.1665C69.2989 55.5759 69.2235 56.0175 69.2235 56.4915C69.2235 56.9654 69.2989 57.4055 69.4497 57.8118C69.6005 58.218 69.8329 58.5458 70.1468 58.7951C70.4607 59.0444 70.8608 59.169 71.3471 59.169ZM79.307 52.9091V53.8324H75.6323V52.9091H79.307ZM76.7033 51.2102H77.7928V57.9688C77.7928 58.2765 77.8375 58.5073 77.9267 58.6612C78.019 58.812 78.136 58.9136 78.2776 58.9659C78.4222 59.0152 78.5746 59.0398 78.7346 59.0398C78.8546 59.0398 78.9531 59.0336 79.0301 59.0213C79.107 59.0059 79.1685 58.9936 79.2147 58.9844L79.4363 59.9631C79.3624 59.9908 79.2593 60.0185 79.127 60.0462C78.9947 60.0769 78.8269 60.0923 78.6238 60.0923C78.316 60.0923 78.0144 60.0262 77.719 59.8938C77.4266 59.7615 77.1835 59.5599 76.9896 59.2891C76.7988 59.0182 76.7033 58.6766 76.7033 58.2642V51.2102ZM87.4828 60.1477C86.818 60.1477 86.2456 59.9908 85.7655 59.6768C85.2854 59.3629 84.9161 58.9305 84.6575 58.3796C84.399 57.8287 84.2698 57.1993 84.2698 56.4915C84.2698 55.7713 84.4021 55.1358 84.6668 54.5849C84.9345 54.0309 85.3069 53.5985 85.784 53.2876C86.2641 52.9737 86.8242 52.8168 87.4644 52.8168C87.9629 52.8168 88.4123 52.9091 88.8124 53.0938C89.2125 53.2784 89.5402 53.5369 89.7957 53.8693C90.0511 54.2017 90.2096 54.5895 90.2712 55.0327H89.1817C89.0986 54.7095 88.9139 54.4233 88.6277 54.174C88.3446 53.9216 87.9629 53.7955 87.4828 53.7955C87.0581 53.7955 86.6857 53.9062 86.3656 54.1278C86.0486 54.3464 85.8009 54.6557 85.6224 55.0558C85.447 55.4528 85.3592 55.919 85.3592 56.4545C85.3592 57.0024 85.4454 57.4794 85.6178 57.8857C85.7932 58.2919 86.0394 58.6074 86.3564 58.832C86.6765 59.0567 87.052 59.169 87.4828 59.169C87.766 59.169 88.0229 59.1198 88.2538 59.0213C88.4846 58.9228 88.68 58.7812 88.8401 58.5966C89.0001 58.4119 89.114 58.1903 89.1817 57.9318H90.2712C90.2096 58.3504 90.0573 58.7274 89.8141 59.0629C89.5741 59.3952 89.2555 59.6599 88.8585 59.8569C88.4646 60.0508 88.006 60.1477 87.4828 60.1477ZM91.8639 60V52.9091H92.9164V53.9801H92.9903C93.1195 53.6293 93.3534 53.3446 93.692 53.1261C94.0305 52.9076 94.4122 52.7983 94.8369 52.7983C94.9169 52.7983 95.0169 52.7998 95.1369 52.8029C95.257 52.806 95.3478 52.8106 95.4093 52.8168V53.9247C95.3724 53.9155 95.2877 53.9016 95.1554 53.8832C95.0261 53.8616 94.8892 53.8509 94.7445 53.8509C94.3998 53.8509 94.0921 53.9232 93.8212 54.0678C93.5535 54.2094 93.3411 54.4064 93.1842 54.6587C93.0303 54.908 92.9533 55.1927 92.9533 55.5128V60H91.8639ZM99.458 60.1477C98.7747 60.1477 98.1854 59.9969 97.6899 59.6953C97.1974 59.3906 96.8173 58.9659 96.5496 58.4212C96.2849 57.8733 96.1526 57.2363 96.1526 56.5099C96.1526 55.7836 96.2849 55.1435 96.5496 54.5895C96.8173 54.0324 97.1897 53.5985 97.6668 53.2876C98.1469 52.9737 98.707 52.8168 99.3472 52.8168C99.7165 52.8168 100.081 52.8783 100.441 53.0014C100.801 53.1245 101.129 53.3246 101.425 53.6016C101.72 53.8755 101.955 54.2386 102.131 54.6911C102.306 55.1435 102.394 55.7005 102.394 56.3622V56.8239H96.9281V55.8821H101.286C101.286 55.482 101.206 55.125 101.046 54.8111C100.889 54.4972 100.664 54.2494 100.372 54.0678C100.083 53.8862 99.7411 53.7955 99.3472 53.7955C98.9132 53.7955 98.5377 53.9032 98.2207 54.1186C97.9068 54.331 97.6652 54.608 97.496 54.9496C97.3267 55.2912 97.2421 55.6574 97.2421 56.0483V56.6761C97.2421 57.2116 97.3344 57.6656 97.519 58.038C97.7068 58.4073 97.9668 58.6889 98.2992 58.8828C98.6316 59.0736 99.0179 59.169 99.458 59.169C99.7442 59.169 100.003 59.129 100.234 59.049C100.467 58.9659 100.669 58.8428 100.838 58.6797C101.008 58.5135 101.138 58.3073 101.231 58.0611L102.283 58.3565C102.172 58.7135 101.986 59.0275 101.725 59.2983C101.463 59.5661 101.14 59.7753 100.755 59.9261C100.37 60.0739 99.9381 60.1477 99.458 60.1477ZM106.138 60.1662C105.689 60.1662 105.281 60.0816 104.915 59.9123C104.548 59.7399 104.258 59.4922 104.042 59.169C103.827 58.8428 103.719 58.4489 103.719 57.9872C103.719 57.581 103.799 57.2517 103.959 56.9993C104.119 56.7438 104.333 56.5438 104.601 56.3991C104.868 56.2545 105.164 56.1468 105.487 56.076C105.813 56.0021 106.141 55.9437 106.47 55.9006C106.901 55.8452 107.251 55.8036 107.518 55.7759C107.789 55.7451 107.986 55.6944 108.109 55.6236C108.235 55.5528 108.299 55.4297 108.299 55.2543V55.2173C108.299 54.7618 108.174 54.4079 107.925 54.1555C107.678 53.9032 107.304 53.777 106.803 53.777C106.283 53.777 105.875 53.8909 105.579 54.1186C105.284 54.3464 105.076 54.5895 104.956 54.848L103.922 54.4787C104.107 54.0478 104.353 53.7124 104.661 53.4723C104.972 53.2292 105.31 53.0599 105.676 52.9645C106.046 52.866 106.409 52.8168 106.766 52.8168C106.994 52.8168 107.255 52.8445 107.551 52.8999C107.849 52.9522 108.137 53.0614 108.414 53.2276C108.694 53.3938 108.926 53.6446 109.111 53.9801C109.296 54.3156 109.388 54.7649 109.388 55.3281V60H108.299V59.0398H108.243C108.169 59.1937 108.046 59.3583 107.874 59.5337C107.701 59.7092 107.472 59.8584 107.186 59.9815C106.9 60.1046 106.55 60.1662 106.138 60.1662ZM106.304 59.1875C106.735 59.1875 107.098 59.1029 107.394 58.9336C107.692 58.7643 107.917 58.5458 108.068 58.2781C108.222 58.0103 108.299 57.7287 108.299 57.4332V56.4361C108.252 56.4915 108.151 56.5423 107.994 56.5884C107.84 56.6315 107.661 56.67 107.458 56.7038C107.258 56.7346 107.063 56.7623 106.872 56.7869C106.684 56.8085 106.532 56.8269 106.415 56.8423C106.132 56.8793 105.867 56.9393 105.621 57.0224C105.378 57.1024 105.181 57.224 105.03 57.3871C104.882 57.5471 104.808 57.7656 104.808 58.0426C104.808 58.4212 104.948 58.7074 105.229 58.9013C105.512 59.0921 105.87 59.1875 106.304 59.1875ZM114.46 52.9091V53.8324H110.786V52.9091H114.46ZM111.857 51.2102H112.946V57.9688C112.946 58.2765 112.991 58.5073 113.08 58.6612C113.172 58.812 113.289 58.9136 113.431 58.9659C113.576 59.0152 113.728 59.0398 113.888 59.0398C114.008 59.0398 114.106 59.0336 114.183 59.0213C114.26 59.0059 114.322 58.9936 114.368 58.9844L114.59 59.9631C114.516 59.9908 114.413 60.0185 114.28 60.0462C114.148 60.0769 113.98 60.0923 113.777 60.0923C113.469 60.0923 113.168 60.0262 112.872 59.8938C112.58 59.7615 112.337 59.5599 112.143 59.2891C111.952 59.0182 111.857 58.6766 111.857 58.2642V51.2102ZM118.996 60.1477C118.313 60.1477 117.723 59.9969 117.228 59.6953C116.736 59.3906 116.355 58.9659 116.088 58.4212C115.823 57.8733 115.691 57.2363 115.691 56.5099C115.691 55.7836 115.823 55.1435 116.088 54.5895C116.355 54.0324 116.728 53.5985 117.205 53.2876C117.685 52.9737 118.245 52.8168 118.885 52.8168C119.255 52.8168 119.619 52.8783 119.979 53.0014C120.339 53.1245 120.667 53.3246 120.963 53.6016C121.258 53.8755 121.494 54.2386 121.669 54.6911C121.844 55.1435 121.932 55.7005 121.932 56.3622V56.8239H116.466V55.8821H120.824C120.824 55.482 120.744 55.125 120.584 54.8111C120.427 54.4972 120.202 54.2494 119.91 54.0678C119.621 53.8862 119.279 53.7955 118.885 53.7955C118.451 53.7955 118.076 53.9032 117.759 54.1186C117.445 54.331 117.203 54.608 117.034 54.9496C116.865 55.2912 116.78 55.6574 116.78 56.0483V56.6761C116.78 57.2116 116.872 57.6656 117.057 58.038C117.245 58.4073 117.505 58.6889 117.837 58.8828C118.17 59.0736 118.556 59.169 118.996 59.169C119.282 59.169 119.541 59.129 119.772 59.049C120.006 58.9659 120.207 58.8428 120.376 58.6797C120.546 58.5135 120.676 58.3073 120.769 58.0611L121.821 58.3565C121.711 58.7135 121.524 59.0275 121.263 59.2983C121.001 59.5661 120.678 59.7753 120.293 59.9261C119.909 60.0739 119.476 60.1477 118.996 60.1477ZM126.267 60.1477C125.676 60.1477 125.154 59.9985 124.702 59.6999C124.25 59.3983 123.896 58.9736 123.64 58.4258C123.385 57.8749 123.257 57.224 123.257 56.473C123.257 55.7282 123.385 55.0819 123.64 54.5341C123.896 53.9863 124.251 53.5631 124.707 53.2646C125.162 52.966 125.688 52.8168 126.285 52.8168C126.747 52.8168 127.112 52.8937 127.38 53.0476C127.65 53.1984 127.857 53.3707 127.998 53.5646C128.143 53.7554 128.255 53.9124 128.335 54.0355H128.428V50.5455H129.517V60H128.464V58.9105H128.335C128.255 59.0398 128.141 59.2029 127.994 59.3999C127.846 59.5937 127.635 59.7676 127.361 59.9215C127.087 60.0723 126.722 60.1477 126.267 60.1477ZM126.415 59.169C126.852 59.169 127.221 59.0552 127.523 58.8274C127.824 58.5966 128.054 58.2781 128.211 57.8718C128.367 57.4625 128.446 56.9901 128.446 56.4545C128.446 55.9252 128.369 55.462 128.215 55.065C128.061 54.6649 127.834 54.354 127.532 54.1325C127.23 53.9078 126.858 53.7955 126.415 53.7955C125.953 53.7955 125.568 53.9139 125.261 54.1509C124.956 54.3848 124.727 54.7034 124.573 55.1065C124.422 55.5066 124.347 55.956 124.347 56.4545C124.347 56.9593 124.423 57.4179 124.577 57.8303C124.734 58.2396 124.965 58.5658 125.27 58.8089C125.578 59.049 125.959 59.169 126.415 59.169ZM137.407 60.1662C136.957 60.1662 136.549 60.0816 136.183 59.9123C135.817 59.7399 135.526 59.4922 135.311 59.169C135.095 58.8428 134.988 58.4489 134.988 57.9872C134.988 57.581 135.068 57.2517 135.228 56.9993C135.388 56.7438 135.602 56.5438 135.869 56.3991C136.137 56.2545 136.432 56.1468 136.756 56.076C137.082 56.0021 137.41 55.9437 137.739 55.9006C138.17 55.8452 138.519 55.8036 138.787 55.7759C139.058 55.7451 139.255 55.6944 139.378 55.6236C139.504 55.5528 139.567 55.4297 139.567 55.2543V55.2173C139.567 54.7618 139.442 54.4079 139.193 54.1555C138.947 53.9032 138.573 53.777 138.071 53.777C137.551 53.777 137.143 53.8909 136.848 54.1186C136.553 54.3464 136.345 54.5895 136.225 54.848L135.191 54.4787C135.375 54.0478 135.622 53.7124 135.929 53.4723C136.24 53.2292 136.579 53.0599 136.945 52.9645C137.314 52.866 137.677 52.8168 138.034 52.8168C138.262 52.8168 138.524 52.8445 138.819 52.8999C139.118 52.9522 139.405 53.0614 139.682 53.2276C139.963 53.3938 140.195 53.6446 140.38 53.9801C140.564 54.3156 140.657 54.7649 140.657 55.3281V60H139.567V59.0398H139.512C139.438 59.1937 139.315 59.3583 139.142 59.5337C138.97 59.7092 138.741 59.8584 138.455 59.9815C138.168 60.1046 137.819 60.1662 137.407 60.1662ZM137.573 59.1875C138.004 59.1875 138.367 59.1029 138.662 58.9336C138.961 58.7643 139.185 58.5458 139.336 58.2781C139.49 58.0103 139.567 57.7287 139.567 57.4332V56.4361C139.521 56.4915 139.419 56.5423 139.262 56.5884C139.109 56.6315 138.93 56.67 138.727 56.7038C138.527 56.7346 138.331 56.7623 138.141 56.7869C137.953 56.8085 137.801 56.8269 137.684 56.8423C137.4 56.8793 137.136 56.9393 136.89 57.0224C136.646 57.1024 136.449 57.224 136.299 57.3871C136.151 57.5471 136.077 57.7656 136.077 58.0426C136.077 58.4212 136.217 58.7074 136.497 58.9013C136.78 59.0921 137.139 59.1875 137.573 59.1875ZM143.735 55.7344V60H142.645V52.9091H143.698V54.017H143.79C143.956 53.657 144.209 53.3677 144.547 53.1491C144.886 52.9276 145.323 52.8168 145.858 52.8168C146.338 52.8168 146.758 52.9152 147.118 53.1122C147.479 53.3061 147.759 53.6016 147.959 53.9986C148.159 54.3925 148.259 54.8911 148.259 55.4943V60H147.169V55.5682C147.169 55.0111 147.025 54.5772 146.735 54.2663C146.446 53.9524 146.049 53.7955 145.544 53.7955C145.196 53.7955 144.886 53.8709 144.612 54.0217C144.341 54.1725 144.127 54.3925 143.97 54.6818C143.813 54.9711 143.735 55.322 143.735 55.7344ZM150.697 62.6591C150.513 62.6591 150.348 62.6437 150.203 62.6129C150.059 62.5852 149.959 62.5575 149.903 62.5298L150.18 61.5696C150.445 61.6373 150.679 61.6619 150.882 61.6435C151.085 61.625 151.265 61.5342 151.422 61.3711C151.582 61.2111 151.728 60.951 151.861 60.5909L152.064 60.0369L149.442 52.9091H150.624L152.581 58.5597H152.655L154.612 52.9091H155.794L152.784 61.0341C152.649 61.4003 152.481 61.7035 152.281 61.9435C152.081 62.1867 151.848 62.3667 151.584 62.4837C151.322 62.6006 151.027 62.6591 150.697 62.6591ZM162.975 60.1662C162.526 60.1662 162.118 60.0816 161.752 59.9123C161.385 59.7399 161.094 59.4922 160.879 59.169C160.664 58.8428 160.556 58.4489 160.556 57.9872C160.556 57.581 160.636 57.2517 160.796 56.9993C160.956 56.7438 161.17 56.5438 161.438 56.3991C161.705 56.2545 162.001 56.1468 162.324 56.076C162.65 56.0021 162.978 55.9437 163.307 55.9006C163.738 55.8452 164.087 55.8036 164.355 55.7759C164.626 55.7451 164.823 55.6944 164.946 55.6236C165.072 55.5528 165.135 55.4297 165.135 55.2543V55.2173C165.135 54.7618 165.011 54.4079 164.761 54.1555C164.515 53.9032 164.141 53.777 163.64 53.777C163.12 53.777 162.712 53.8909 162.416 54.1186C162.121 54.3464 161.913 54.5895 161.793 54.848L160.759 54.4787C160.944 54.0478 161.19 53.7124 161.498 53.4723C161.808 53.2292 162.147 53.0599 162.513 52.9645C162.883 52.866 163.246 52.8168 163.603 52.8168C163.831 52.8168 164.092 52.8445 164.388 52.8999C164.686 52.9522 164.974 53.0614 165.251 53.2276C165.531 53.3938 165.763 53.6446 165.948 53.9801C166.133 54.3156 166.225 54.7649 166.225 55.3281V60H165.135V59.0398H165.08C165.006 59.1937 164.883 59.3583 164.711 59.5337C164.538 59.7092 164.309 59.8584 164.023 59.9815C163.737 60.1046 163.387 60.1662 162.975 60.1662ZM163.141 59.1875C163.572 59.1875 163.935 59.1029 164.231 58.9336C164.529 58.7643 164.754 58.5458 164.905 58.2781C165.058 58.0103 165.135 57.7287 165.135 57.4332V56.4361C165.089 56.4915 164.988 56.5423 164.831 56.5884C164.677 56.6315 164.498 56.67 164.295 56.7038C164.095 56.7346 163.9 56.7623 163.709 56.7869C163.521 56.8085 163.369 56.8269 163.252 56.8423C162.969 56.8793 162.704 56.9393 162.458 57.0224C162.215 57.1024 162.018 57.224 161.867 57.3871C161.719 57.5471 161.645 57.7656 161.645 58.0426C161.645 58.4212 161.785 58.7074 162.065 58.9013C162.349 59.0921 162.707 59.1875 163.141 59.1875ZM171.094 60.1477C170.429 60.1477 169.857 59.9908 169.377 59.6768C168.897 59.3629 168.527 58.9305 168.269 58.3796C168.01 57.8287 167.881 57.1993 167.881 56.4915C167.881 55.7713 168.013 55.1358 168.278 54.5849C168.546 54.0309 168.918 53.5985 169.395 53.2876C169.875 52.9737 170.436 52.8168 171.076 52.8168C171.574 52.8168 172.024 52.9091 172.424 53.0938C172.824 53.2784 173.152 53.5369 173.407 53.8693C173.662 54.2017 173.821 54.5895 173.883 55.0327H172.793C172.71 54.7095 172.525 54.4233 172.239 54.174C171.956 53.9216 171.574 53.7955 171.094 53.7955C170.669 53.7955 170.297 53.9062 169.977 54.1278C169.66 54.3464 169.412 54.6557 169.234 55.0558C169.058 55.4528 168.971 55.919 168.971 56.4545C168.971 57.0024 169.057 57.4794 169.229 57.8857C169.405 58.2919 169.651 58.6074 169.968 58.832C170.288 59.0567 170.663 59.169 171.094 59.169C171.377 59.169 171.634 59.1198 171.865 59.0213C172.096 58.9228 172.291 58.7812 172.451 58.5966C172.611 58.4119 172.725 58.1903 172.793 57.9318H173.883C173.821 58.3504 173.669 58.7274 173.425 59.0629C173.185 59.3952 172.867 59.6599 172.47 59.8569C172.076 60.0508 171.617 60.1477 171.094 60.1477ZM178.559 52.9091V53.8324H174.884V52.9091H178.559ZM175.955 51.2102H177.045V57.9688C177.045 58.2765 177.089 58.5073 177.179 58.6612C177.271 58.812 177.388 58.9136 177.53 58.9659C177.674 59.0152 177.827 59.0398 177.987 59.0398C178.107 59.0398 178.205 59.0336 178.282 59.0213C178.359 59.0059 178.42 58.9936 178.467 58.9844L178.688 59.9631C178.614 59.9908 178.511 60.0185 178.379 60.0462C178.247 60.0769 178.079 60.0923 177.876 60.0923C177.568 60.0923 177.266 60.0262 176.971 59.8938C176.679 59.7615 176.435 59.5599 176.242 59.2891C176.051 59.0182 175.955 58.6766 175.955 58.2642V51.2102ZM180.198 60V52.9091H181.287V60H180.198ZM180.752 51.7273C180.539 51.7273 180.356 51.6549 180.202 51.5103C180.052 51.3656 179.976 51.1918 179.976 50.9886C179.976 50.7855 180.052 50.6116 180.202 50.467C180.356 50.3223 180.539 50.25 180.752 50.25C180.964 50.25 181.146 50.3223 181.297 50.467C181.45 50.6116 181.527 50.7855 181.527 50.9886C181.527 51.1918 181.45 51.3656 181.297 51.5103C181.146 51.6549 180.964 51.7273 180.752 51.7273ZM189.081 52.9091L186.459 60H185.351L182.729 52.9091H183.911L185.868 58.5597H185.942L187.899 52.9091H189.081ZM190.519 60V52.9091H191.609V60H190.519ZM191.073 51.7273C190.861 51.7273 190.678 51.6549 190.524 51.5103C190.373 51.3656 190.298 51.1918 190.298 50.9886C190.298 50.7855 190.373 50.6116 190.524 50.467C190.678 50.3223 190.861 50.25 191.073 50.25C191.285 50.25 191.467 50.3223 191.618 50.467C191.772 50.6116 191.849 50.7855 191.849 50.9886C191.849 51.1918 191.772 51.3656 191.618 51.5103C191.467 51.6549 191.285 51.7273 191.073 51.7273ZM196.688 52.9091V53.8324H193.013V52.9091H196.688ZM194.084 51.2102H195.174V57.9688C195.174 58.2765 195.218 58.5073 195.308 58.6612C195.4 58.812 195.517 58.9136 195.658 58.9659C195.803 59.0152 195.955 59.0398 196.115 59.0398C196.235 59.0398 196.334 59.0336 196.411 59.0213C196.488 59.0059 196.549 58.9936 196.596 58.9844L196.817 59.9631C196.743 59.9908 196.64 60.0185 196.508 60.0462C196.376 60.0769 196.208 60.0923 196.005 60.0923C195.697 60.0923 195.395 60.0262 195.1 59.8938C194.807 59.7615 194.564 59.5599 194.37 59.2891C194.18 59.0182 194.084 58.6766 194.084 58.2642V51.2102ZM199.028 62.6591C198.844 62.6591 198.679 62.6437 198.534 62.6129C198.39 62.5852 198.29 62.5575 198.234 62.5298L198.511 61.5696C198.776 61.6373 199.01 61.6619 199.213 61.6435C199.416 61.625 199.596 61.5342 199.753 61.3711C199.913 61.2111 200.059 60.951 200.192 60.5909L200.395 60.0369L197.773 52.9091H198.955L200.912 58.5597H200.986L202.943 52.9091H204.125L201.115 61.0341C200.98 61.4003 200.812 61.7035 200.612 61.9435C200.412 62.1867 200.179 62.3667 199.915 62.4837C199.653 62.6006 199.358 62.6591 199.028 62.6591ZM205.913 60.0739C205.685 60.0739 205.49 59.9923 205.326 59.8292C205.163 59.6661 205.082 59.4706 205.082 59.2429C205.082 59.0152 205.163 58.8197 205.326 58.6566C205.49 58.4935 205.685 58.4119 205.913 58.4119C206.141 58.4119 206.336 58.4935 206.499 58.6566C206.662 58.8197 206.744 59.0152 206.744 59.2429C206.744 59.3937 206.705 59.5322 206.628 59.6584C206.554 59.7846 206.454 59.8861 206.328 59.9631C206.205 60.0369 206.067 60.0739 205.913 60.0739Z" fill="#4D4D4D"/>
<path d="M95.6667 25.3333V17M102.333 25.3333V12M109 25.3333V22M102.333 5.33334H92.3333C90.4924 5.33334 89 6.82573 89 8.66668V28.6667C89 30.5077 90.4924 32 92.3333 32H112.333C114.174 32 115.667 30.5077 115.667 28.6667V18.6667" stroke="url(#paint0_linear_3079_22)" stroke-opacity="0.45" stroke-width="3" stroke-linecap="round" stroke-linejoin="round"/>
<path d="M114 2V7M114 7V12M114 7H119M114 7H109" stroke="url(#paint1_linear_3079_22)" stroke-opacity="0.45" stroke-width="3" stroke-linecap="round" stroke-linejoin="round"/>
<defs>
<linearGradient id="paint0_linear_3079_22" x1="89" y1="18.6667" x2="115.667" y2="18.6667" gradientUnits="userSpaceOnUse">
<stop offset="1" stop-color="#007BFD"/>
</linearGradient>
<linearGradient id="paint1_linear_3079_22" x1="109" y1="7" x2="119" y2="7" gradientUnits="userSpaceOnUse">
<stop offset="1" stop-color="#007BFD"/>
</linearGradient>
</defs>
</svg>
