<svg width="21" height="20" viewBox="0 0 21 20" fill="none" xmlns="http://www.w3.org/2000/svg">
<g opacity="0.5">
<path d="M0 6.21052V15.5711C0 16.7729 -6.86405e-08 17.3738 0.326063 17.8261C0.652115 18.2786 1.22218 18.4686 2.36229 18.8486L3.70364 19.2957C5.27798 19.8205 6.06516 20.0829 6.85768 19.9767C6.87502 19.9744 6.89232 19.972 6.90958 19.9692V3.84707C6.77959 3.86648 6.64852 3.87848 6.517 3.88297C5.89605 3.90418 5.28152 3.69934 4.05248 3.28966C2.44264 2.75305 1.63772 2.48474 1.02525 2.75721C0.807811 2.85394 0.612696 2.99457 0.452163 3.17027C1.37281e-07 3.66514 0 4.5136 0 6.21052Z" fill="black"/>
<path d="M20.7289 13.7896V4.4289C20.7289 3.22713 20.7289 2.62623 20.4029 2.17385C20.0768 1.72146 19.5067 1.53144 18.3666 1.1514L17.0253 0.704293C15.4509 0.179511 14.6638 -0.0828804 13.8713 0.0232508C13.8539 0.0255655 13.8366 0.0280644 13.8193 0.0307246V16.153C13.9494 16.1335 14.0804 16.1215 14.2119 16.117C14.8329 16.0959 15.4473 16.3007 16.6764 16.7103C18.2863 17.247 19.0912 17.5153 19.7036 17.2428C19.9211 17.1461 20.1163 17.0055 20.2768 16.8298C20.7289 16.3349 20.7289 15.4864 20.7289 13.7896Z" fill="black"/>
</g>
<path d="M7.19345 3.79197C7.09945 3.81418 7.0046 3.83244 6.90918 3.84669V19.9689C7.68033 19.8499 8.37044 19.3899 9.72092 18.4894L11.3129 17.4281C12.3909 16.7095 12.9298 16.3502 13.5345 16.2073C13.6285 16.1851 13.7233 16.1668 13.8188 16.1526V0.0303497C13.0477 0.149379 12.3575 0.609418 11.0069 1.50981L9.41505 2.57109C8.33704 3.28972 7.79811 3.64903 7.19345 3.79197Z" fill="black"/>
<path d="M16.6758 16.71C16.7764 16.7435 16.8739 16.776 16.9683 16.8074L16.6758 16.71Z" fill="black"/>
</svg>
