<svg width="19" height="19" viewBox="0 0 19 19" fill="none" xmlns="http://www.w3.org/2000/svg">
<path d="M14.9 14.9474H17M7.97417 9.53673H17M10.1675 4.12604H2M17 4.12604H14.9M2 14.9474H10.1675" stroke="#007BFD" stroke-width="2.2" stroke-linecap="round"/>
<path d="M14.4004 15C14.4004 16.1046 13.505 17 12.4004 17C11.2958 17 10.4004 16.1046 10.4004 15C10.4004 13.8954 11.2958 13 12.4004 13C13.505 13 14.4004 13.8954 14.4004 15Z" stroke="#007BFD" stroke-width="2.2" stroke-linecap="round"/>
<path d="M7.40039 9.5C7.40039 10.6046 6.50497 11.5 5.40039 11.5C4.29582 11.5 3.40039 10.6046 3.40039 9.5C3.40039 8.39542 4.29582 7.5 5.40039 7.5C6.50497 7.5 7.40039 8.39542 7.40039 9.5Z" stroke="#007BFD" stroke-width="2.2" stroke-linecap="round"/>
<path d="M14.4004 4C14.4004 5.10457 13.505 6 12.4004 6C11.2958 6 10.4004 5.10457 10.4004 4C10.4004 2.89543 11.2958 2 12.4004 2C13.505 2 14.4004 2.89543 14.4004 4Z" stroke="#007BFD" stroke-width="2.2" stroke-linecap="round"/>
</svg>
