<svg width="25" height="10" viewBox="0 0 25 10" fill="none" xmlns="http://www.w3.org/2000/svg">
<path d="M6.44241 0.784389L4.75074 1.13301L4.74293 6.52899C4.74293 7.52558 5.51649 8.16976 6.54399 8.16976C7.11439 8.16976 7.53243 8.06745 7.76293 7.94619V6.6654C7.54024 6.75256 6.44632 7.06328 6.44632 6.07048V3.67563H7.76293V2.24327H6.44632L6.44241 0.784389ZM9.92343 2.73967L9.81794 2.24327H8.31771V8.0485H10.0484V4.14172C10.4587 3.6188 11.1502 3.72111 11.3729 3.78931V2.24327C11.1385 2.1637 10.3297 2.01592 9.92343 2.73967ZM13.5295 0L11.787 0.359985V1.73172L13.5295 1.37173V0ZM1.75027 3.95225C1.75027 3.69079 1.97687 3.58848 2.34021 3.58469C2.86764 3.58469 3.53962 3.74005 4.06704 4.01667V2.43274C3.49273 2.21296 2.91842 2.12581 2.34412 2.12581C0.937647 2.12581 0 2.8382 0 4.02804C0 5.89238 2.63713 5.58924 2.63713 6.39257C2.63713 6.7033 2.35974 6.80561 1.97296 6.80561C1.39866 6.80561 0.656353 6.57446 0.0742303 6.26753V7.78325C0.718862 8.05229 1.37131 8.16597 1.96906 8.16597C3.41069 8.16597 4.40303 7.56726 4.40303 6.35468C4.40303 4.35013 1.75027 4.71012 1.75027 3.95225ZM25 5.2141C25 3.48996 24.1405 2.12959 22.4918 2.12959C20.8431 2.12959 19.839 3.48996 19.839 5.20273C19.839 7.23001 21.0228 8.16597 22.7106 8.16597C23.5388 8.16597 24.16 7.98409 24.6328 7.7302V6.46457C24.16 6.69572 23.617 6.83592 22.9294 6.83592C22.2535 6.83592 21.6596 6.60477 21.5815 5.8166H24.9766C24.9844 5.72944 25 5.37704 25 5.2141ZM21.5659 4.57749C21.5659 3.81963 22.0464 3.50133 22.4801 3.50133C22.9059 3.50133 23.3591 3.81963 23.3591 4.57749H21.5659ZM17.155 2.12959C16.4752 2.12959 16.0377 2.44032 15.7954 2.65631L15.7056 2.23948H14.178V10L15.9126 9.6438L15.9166 7.74157C16.1666 7.91967 16.5377 8.16597 17.1433 8.16597C18.3857 8.16597 19.5187 7.28685 19.5187 5.14968C19.5226 3.19439 18.374 2.12959 17.155 2.12959ZM16.7409 6.7715C16.3346 6.7715 16.0924 6.62751 15.9244 6.4532L15.9126 3.95225C16.0924 3.759 16.3424 3.6188 16.7409 3.6188C17.3738 3.6188 17.8114 4.30845 17.8114 5.18757C17.8153 6.09322 17.3855 6.7715 16.7409 6.7715ZM11.7909 8.0485H13.5334V2.24327H11.7909V8.0485Z" fill="black"/>
</svg>
