<svg width="22" height="20" viewBox="0 0 22 20" fill="none" xmlns="http://www.w3.org/2000/svg">
<path d="M19.5114 5.22157C19.5756 5.22157 19.5756 5.22157 19.6395 5.22157L18.6773 1.50052C18.4206 0.409415 17.2653 -0.232244 16.2387 0.0885854L1.99441 3.87437C0.903588 4.13104 0.261928 5.28603 0.582758 6.31268L1.80191 10.9326V8.17349C1.80191 6.50575 3.14939 5.15827 4.81771 5.15827H19.5114V5.22157Z" fill="#007BFD"/>
<path d="M19.5107 6.24823H4.75253C3.66171 6.24823 2.76367 7.14684 2.76367 8.23737V17.605C2.76367 18.6964 3.66199 19.5942 4.75253 19.5942H19.5107C20.6015 19.5942 21.4995 18.6956 21.4995 17.605V8.23795C21.5001 7.14655 20.6015 6.24823 19.5107 6.24823ZM20.1526 17.6059C20.1526 17.9912 19.8321 18.2473 19.5113 18.2473H4.7531C4.36811 18.2473 4.11173 17.9267 4.11173 17.6056V15.232H20.2171V17.6056L20.1526 17.6059ZM20.1526 10.6118H4.11116V8.23795C4.11116 7.85266 4.43199 7.59629 4.75253 7.59629H19.5107C19.896 7.59629 20.1521 7.91712 20.1521 8.23795L20.1526 10.6118Z" fill="#007BFD"/>
</svg>
