<svg width="27" height="27" viewBox="0 0 27 27" fill="none" xmlns="http://www.w3.org/2000/svg">
<circle opacity="0.75" cx="13.5" cy="13.5" r="13.5" fill="#323232"/>
<path d="M10.4818 6.40424C9.28184 6.40424 8.03809 6.75424 6.75059 7.45424C6.41309 7.64174 6.18809 7.92611 6.07559 8.30736C5.96309 8.68861 5.99746 9.04799 6.17871 9.38549C6.35996 9.72299 6.64434 9.91674 7.03184 9.96674C7.38184 10.0042 7.74434 9.92299 8.11934 9.72299C8.84434 9.33549 9.50059 9.08549 10.0881 8.97299C10.6006 8.88549 11.1318 8.89799 11.6818 9.01049C12.0068 9.08549 12.5193 9.24174 13.2193 9.47924C13.3818 9.54174 13.6318 9.64174 13.9693 9.77924C14.5443 10.0167 14.9943 10.1855 15.3193 10.2855C15.8693 10.448 16.3943 10.5292 16.8943 10.5292C18.0693 10.5292 19.3068 10.248 20.6068 9.68549C20.9693 9.53549 21.2256 9.27924 21.3756 8.91674C21.5256 8.55424 21.5256 8.19486 21.3756 7.83861C21.2256 7.48236 20.9631 7.26049 20.5881 7.17299C20.2506 7.09799 19.8881 7.14174 19.5006 7.30424C18.7381 7.62924 18.0381 7.82299 17.4006 7.88549C16.8631 7.94799 16.3068 7.91049 15.7318 7.77299C15.3818 7.69799 14.8506 7.53549 14.1381 7.28549L13.7818 7.13549C13.1318 6.91049 12.6256 6.74799 12.2631 6.64799C11.6506 6.48549 11.0568 6.40424 10.4818 6.40424ZM10.3881 11.898C9.20059 11.8855 7.97559 12.2167 6.71309 12.8917C6.36309 13.0792 6.12871 13.3605 6.00996 13.7355C5.89121 14.1105 5.92246 14.4699 6.10371 14.8136C6.28496 15.1574 6.56934 15.3542 6.95684 15.4042C7.30684 15.4417 7.66934 15.3605 8.04434 15.1605C8.75684 14.7855 9.40684 14.548 9.99434 14.448C10.4943 14.373 11.0131 14.3917 11.5506 14.5042C11.8756 14.5667 12.3881 14.723 13.0881 14.973C13.2381 15.023 13.4818 15.1167 13.8193 15.2542C14.3943 15.5042 14.8443 15.673 15.1693 15.7605C15.7193 15.923 16.2443 16.0042 16.7443 16.0042C17.9943 16.0042 19.3131 15.698 20.7006 15.0855C21.0506 14.923 21.2975 14.6574 21.4412 14.2886C21.585 13.9199 21.5787 13.5605 21.4225 13.2105C21.2662 12.8605 21.0006 12.648 20.6256 12.573C20.2756 12.498 19.9131 12.548 19.5381 12.723C18.7381 13.073 18.0131 13.2855 17.3631 13.3605C16.8006 13.423 16.2256 13.3917 15.6381 13.2667C15.2756 13.1917 14.7318 13.023 14.0068 12.7605L13.6318 12.6292C12.9943 12.3917 12.4943 12.2292 12.1318 12.1417C11.5318 11.9792 10.9506 11.898 10.3881 11.898ZM10.1818 17.3355C9.06934 17.3355 7.91934 17.6355 6.73184 18.2355C6.38184 18.4105 6.14434 18.6792 6.01934 19.0417C5.89434 19.4042 5.91934 19.7574 6.09434 20.1011C6.26934 20.4449 6.55059 20.6417 6.93809 20.6917C7.28809 20.7542 7.65059 20.6855 8.02559 20.4855C8.70059 20.148 9.32559 19.9355 9.90059 19.848C10.3881 19.7855 10.8943 19.8105 11.4193 19.923C11.7443 19.9855 12.2318 20.1355 12.8818 20.373C13.0443 20.4355 13.2943 20.5355 13.6318 20.673C14.2068 20.9105 14.6568 21.0792 14.9818 21.1792C15.5318 21.3292 16.0568 21.4042 16.5568 21.4042C17.8568 21.4042 19.2443 21.0667 20.7193 20.3917C21.0693 20.2167 21.3131 19.9511 21.4506 19.5949C21.5881 19.2386 21.5756 18.8855 21.4131 18.5355C21.2506 18.1855 20.9818 17.9792 20.6068 17.9167C20.2568 17.8542 19.8881 17.9105 19.5006 18.0855C18.6756 18.473 17.9256 18.7105 17.2506 18.798C16.6631 18.873 16.0693 18.848 15.4693 18.723C15.1068 18.648 14.5506 18.4792 13.8006 18.2167L13.4256 18.0667C12.7881 17.8292 12.2881 17.6667 11.9256 17.5792C11.3256 17.4167 10.7443 17.3355 10.1818 17.3355Z" fill="white"/>
</svg>
