<svg width="13" height="12" viewBox="0 0 13 12" fill="none" xmlns="http://www.w3.org/2000/svg">
<path d="M2.79178 6.43965L4.47323 4.39094C4.64482 4.17033 4.73061 4.06002 4.77558 3.93631C4.81536 3.82684 4.83182 3.71026 4.8239 3.59405C4.81495 3.46273 4.76305 3.33298 4.65925 3.07348L4.26331 2.08364C4.1097 1.69962 4.0329 1.5076 3.9004 1.38174C3.78365 1.27084 3.63735 1.19604 3.47908 1.16632C3.29947 1.13259 3.09885 1.18276 2.69759 1.28307L1.60156 1.55711C1.60156 7.12824 5.50118 11.028 11.0725 11.028L11.3463 9.93185C11.4467 9.53056 11.4968 9.32995 11.4631 9.15033C11.4334 8.99211 11.3586 8.84576 11.2477 8.72904C11.1218 8.59651 10.9298 8.51974 10.5458 8.36614L9.66248 8.01276C9.36643 7.89438 9.2184 7.83516 9.07082 7.83064C8.94035 7.82663 8.81082 7.85321 8.69249 7.90825C8.55861 7.97059 8.44591 8.08329 8.22045 8.30876L6.51942 10.0103M7.17252 3.22845C7.71671 3.33462 8.21677 3.60075 8.60881 3.99277C9.00085 4.3848 9.26698 4.88489 9.37311 5.42904M7.17252 1C8.30307 1.1256 9.35729 1.63186 10.1622 2.43568C10.967 3.2395 11.4745 4.2931 11.6016 5.42347" stroke="black" stroke-width="1.5" stroke-linecap="round" stroke-linejoin="round"/>
</svg>
