<svg width="21" height="18" viewBox="0 0 21 18" fill="none" xmlns="http://www.w3.org/2000/svg">
<path d="M20.6117 13.2213H20.316C20.1025 13.2213 19.9275 13.0463 19.9275 12.8336C19.9275 12.7251 19.9738 12.6271 20.0438 12.5571L20.2503 12.3515C20.4017 12.2001 20.4017 11.9508 20.2503 11.8003L19.7017 11.2508C19.5503 11.0994 19.301 11.0994 19.1505 11.2508L18.951 11.4494C18.881 11.5281 18.7795 11.5736 18.6675 11.5736C18.454 11.5736 18.279 11.3986 18.279 11.1851V10.8894C18.279 10.6759 18.104 10.5009 17.8905 10.5009H17.1117C16.8991 10.5009 16.7241 10.6759 16.7241 10.8894V11.1851C16.7241 11.3986 16.5491 11.5736 16.3356 11.5736C16.2218 11.5736 16.1212 11.5273 16.0512 11.4494L15.8526 11.2508C15.7012 11.0994 15.4518 11.0994 15.3013 11.2508L14.7518 11.7994C14.6005 11.9508 14.6005 12.2001 14.7518 12.3506C14.8253 12.425 14.9076 12.495 14.9776 12.5729C15.0476 12.6543 15.0738 12.7243 15.0738 12.8336C15.0738 13.0471 14.8988 13.2221 14.6862 13.2221H14.3905C14.177 13.2221 14.002 13.3971 14.002 13.6106V14.3894C14.002 14.602 14.177 14.777 14.3905 14.777H14.6862C14.8997 14.777 15.0747 14.952 15.0747 15.1655C15.0747 15.2749 15.0467 15.3449 14.9767 15.428C14.9067 15.505 14.8253 15.575 14.751 15.6485C14.5996 15.7999 14.5996 16.0493 14.751 16.1998L15.2996 16.7493C15.451 16.9006 15.7003 16.9006 15.8508 16.7493L16.0503 16.5506C16.1203 16.4719 16.2218 16.4264 16.3338 16.4264C16.5465 16.4264 16.7215 16.6014 16.7215 16.8158V17.1115C16.7215 17.325 16.8965 17.5 17.11 17.5H17.8887C18.1013 17.5 18.2763 17.325 18.2763 17.1115V16.8158C18.2763 16.6023 18.4513 16.4273 18.6648 16.4273C18.7786 16.4273 18.8783 16.4745 18.9483 16.5524L19.147 16.751C19.2983 16.9024 19.5477 16.9024 19.6982 16.751L20.2477 16.2024C20.3991 16.051 20.3991 15.8016 20.2477 15.6511L20.0412 15.4438C19.9712 15.3738 19.9248 15.2775 19.9248 15.1673C19.9248 14.9538 20.0998 14.7788 20.3133 14.7788H20.6091C20.8226 14.7788 20.9976 14.6038 20.9976 14.3903V13.6115C20.9976 13.4015 20.8226 13.2265 20.6091 13.2265L20.6117 13.2213ZM17.5002 15.1673C16.8545 15.1673 16.3338 14.6458 16.3338 14.0009C16.3338 13.3551 16.8553 12.8345 17.5002 12.8345C18.1451 12.8345 18.6666 13.356 18.6666 14.0009C18.6666 14.6466 18.146 15.1673 17.5002 15.1673Z" fill="#007BFD"/>
<path d="M19.25 1.75H11.375C11.375 0.7875 10.5963 0.00875 9.63375 0H1.75C0.7875 0 0 0.7875 0 1.75V15.75C0 16.7125 0.7875 17.5 1.75 17.5H11.375C11.8562 17.5 12.25 17.1062 12.25 16.625C12.25 16.1437 11.8562 15.75 11.375 15.75H2.1875C1.9425 15.75 1.75 15.5575 1.75 15.3125V2.1875C1.75 1.9425 1.9425 1.75 2.1875 1.75H9.1875C9.4325 1.75 9.625 1.9425 9.625 2.1875V5.25C9.625 6.2125 10.4125 7 11.375 7H18.8125C19.0575 7 19.25 7.1925 19.25 7.4375V7.875C19.25 8.35625 19.6437 8.75 20.125 8.75C20.6062 8.75 21 8.35625 21 7.875V3.465C20.9825 2.52 20.2038 1.75 19.25 1.75ZM18.8125 5.25H11.8125C11.5675 5.25 11.375 5.0575 11.375 4.8125V3.9375C11.375 3.6925 11.5675 3.5 11.8125 3.5H18.8125C19.0575 3.5 19.25 3.6925 19.25 3.9375V4.8125C19.25 5.0575 19.0575 5.25 18.8125 5.25Z" fill="#007BFD"/>
</svg>
