<svg width="15" height="15" viewBox="0 0 15 15" fill="none" xmlns="http://www.w3.org/2000/svg">
<path d="M5.19244 10.8076L4.31777 9.93252L4.24709 9.8618L4.17636 9.93248L3.50939 10.599L3.43863 10.6697L3.50937 10.7404L5.12171 12.3528L5.19242 12.4235L5.26313 12.3528L8.09927 9.51662L8.16998 9.44591L8.09927 9.3752L7.43277 8.70871L7.36206 8.638L7.29135 8.70871L5.19244 10.8076Z" fill="black" stroke="black" stroke-width="0.2"/>
<path d="M13.2268 14.2728H13.2269C13.5041 14.2725 13.7698 14.1623 13.9657 13.9663C14.1617 13.7704 14.2719 13.5047 14.2722 13.2275V13.2274V7.55515V7.55504C14.2719 7.27791 14.1617 7.01221 13.9657 6.81624C13.7698 6.62028 13.5041 6.51006 13.2269 6.50977H13.2268H12.3814L12.3814 3.77363L12.3814 3.77352C12.3806 2.99511 12.071 2.24882 11.5205 1.6984C10.9701 1.14798 10.2238 0.838368 9.44542 0.8375L9.34531 0.837388V0.9375V1.88288V1.98277L9.4452 1.98288C9.92 1.98341 10.3752 2.17226 10.7109 2.508C11.0467 2.84371 11.2355 3.29887 11.2361 3.77363C11.2361 3.77367 11.2361 3.77371 11.2361 3.77375L11.2361 7.55515V7.65515H11.3361H13.1268V13.1274H11.3361H11.2361V13.2274V14.1728V14.2728H11.3361H13.2268Z" fill="black" stroke="black" stroke-width="0.2"/>
<path d="M9.4459 6.50977H8.60053V3.77363C8.60053 2.99492 8.29118 2.24811 7.74055 1.69747C7.18992 1.14684 6.4431 0.8375 5.66439 0.8375C4.88568 0.8375 4.13886 1.14684 3.58823 1.69747C3.0376 2.24811 2.72826 2.99492 2.72826 3.77363V6.50977H1.88288C1.60563 6.50977 1.33973 6.61991 1.14368 6.81595C0.947638 7.012 0.8375 7.2779 0.8375 7.55515V13.2274C0.8375 13.5047 0.947638 13.7706 1.14368 13.9666C1.33973 14.1627 1.60563 14.2728 1.88288 14.2728H9.4459C9.72316 14.2728 9.98905 14.1627 10.1851 13.9666C10.3811 13.7706 10.4913 13.5047 10.4913 13.2274V7.55515C10.4913 7.2779 10.3811 7.012 10.1851 6.81595C9.98905 6.61991 9.72316 6.50977 9.4459 6.50977ZM3.87363 3.77363C3.87363 3.2987 4.0623 2.84321 4.39813 2.50738C4.73397 2.17155 5.18945 1.98288 5.66439 1.98288C6.13933 1.98288 6.59482 2.17155 6.93065 2.50738C7.26648 2.84321 7.45515 3.2987 7.45515 3.77363V6.50977H3.87363V3.77363ZM1.98288 13.1274V7.65515H9.3459V13.1274H1.98288Z" fill="black" stroke="black" stroke-width="0.2"/>
</svg>
