<svg width="20" height="20" viewBox="0 0 20 20" fill="none" xmlns="http://www.w3.org/2000/svg">
<path d="M19 5H1C0.734784 5 0.48043 5.10536 0.292893 5.29289C0.105357 5.48043 0 5.73478 0 6V18C0 18.5304 0.210714 19.0391 0.585786 19.4142C0.960859 19.7893 1.46957 20 2 20H18C18.5304 20 19.0391 19.7893 19.4142 19.4142C19.7893 19.0391 20 18.5304 20 18V6C20 5.73478 19.8946 5.48043 19.7071 5.29289C19.5196 5.10536 19.2652 5 19 5Z" fill="black"/>
<path d="M20 4V7H0V4C0 3.46957 0.210714 2.96086 0.585786 2.58579C0.960859 2.21071 1.46957 2 2 2H18C18.5304 2 19.0391 2.21071 19.4142 2.58579C19.7893 2.96086 20 3.46957 20 4ZM13.71 16.71C13.617 16.8037 13.5064 16.8781 13.3846 16.9289C13.2627 16.9797 13.132 17.0058 13 17.0058C12.868 17.0058 12.7373 16.9797 12.6154 16.9289C12.4936 16.8781 12.383 16.8037 12.29 16.71L11.15 15.57C10.4023 15.9763 9.53326 16.0997 8.702 15.9176C7.87074 15.7355 7.13291 15.26 6.62362 14.5783C6.11433 13.8965 5.86766 13.0541 5.92879 12.2053C5.98992 11.3566 6.35476 10.5582 6.95649 9.95649C7.55822 9.35476 8.35657 8.98992 9.20535 8.92879C10.0541 8.86766 10.8965 9.11433 11.5783 9.62362C12.26 10.1329 12.7355 10.8707 12.9176 11.702C13.0997 12.5333 12.9763 13.4023 12.57 14.15L13.71 15.29C13.8037 15.383 13.8781 15.4936 13.9289 15.6154C13.9797 15.7373 14.0058 15.868 14.0058 16C14.0058 16.132 13.9797 16.2627 13.9289 16.3846C13.8781 16.5064 13.8037 16.617 13.71 16.71ZM9.5 14C9.79667 14 10.0867 13.912 10.3334 13.7472C10.58 13.5824 10.7723 13.3481 10.8858 13.074C10.9994 12.7999 11.0291 12.4983 10.9712 12.2074C10.9133 11.9164 10.7704 11.6491 10.5607 11.4393C10.3509 11.2296 10.0836 11.0867 9.79264 11.0288C9.50166 10.9709 9.20006 11.0006 8.92597 11.1142C8.65189 11.2277 8.41762 11.42 8.2528 11.6666C8.08797 11.9133 8 12.2033 8 12.5C8 12.8978 8.15804 13.2794 8.43934 13.5607C8.72064 13.842 9.10218 14 9.5 14Z" fill="#4F78DA"/>
<path d="M14 5C13.7348 5 13.4804 4.89464 13.2929 4.70711C13.1054 4.51957 13 4.26522 13 4V1C13 0.734784 13.1054 0.48043 13.2929 0.292893C13.4804 0.105357 13.7348 0 14 0C14.2652 0 14.5196 0.105357 14.7071 0.292893C14.8946 0.48043 15 0.734784 15 1V4C15 4.26522 14.8946 4.51957 14.7071 4.70711C14.5196 4.89464 14.2652 5 14 5ZM7 4V1C7 0.734784 6.89464 0.48043 6.70711 0.292893C6.51957 0.105357 6.26522 0 6 0C5.73478 0 5.48043 0.105357 5.29289 0.292893C5.10536 0.48043 5 0.734784 5 1V4C5 4.26522 5.10536 4.51957 5.29289 4.70711C5.48043 4.89464 5.73478 5 6 5C6.26522 5 6.51957 4.89464 6.70711 4.70711C6.89464 4.51957 7 4.26522 7 4Z" fill="black"/>
</svg>
