<svg width="10" height="9" viewBox="0 0 10 9" fill="none" xmlns="http://www.w3.org/2000/svg">
<path d="M4.98826 0.748047C5.14708 0.748047 5.30609 0.80041 5.42719 0.905244C6.79388 2.08872 8.16059 3.2722 9.52697 4.45589C9.7637 4.66092 9.76423 4.9775 9.52774 5.18241C8.1591 6.36816 6.78996 7.55349 5.42142 8.73923C5.30605 8.83921 5.16934 8.89062 5.00686 8.89062C4.82024 8.88546 4.66649 8.83462 4.53953 8.72466C3.18688 7.55255 1.83336 6.38134 0.481319 5.20884C0.290098 5.04295 0.237569 4.78101 0.365157 4.57162C0.403428 4.50875 0.449815 4.4561 0.506417 4.40708C1.85514 3.23958 3.20348 2.07179 4.55194 0.903965C4.67202 0.800059 4.83005 0.748047 4.98826 0.748047Z" fill="#F6BCB1"/>
<path d="M6.74785 2.87864C6.74627 3.69712 6.74332 4.5156 6.74892 5.33408C6.75059 5.58439 6.61702 5.7484 6.36303 5.84107C6.23955 5.88614 6.11681 5.90922 5.99622 5.90922C5.82878 5.90922 5.66543 5.86472 5.50976 5.77284C5.3498 5.67848 5.25798 5.5455 5.26899 5.37192C5.27874 5.21952 5.36753 5.10168 5.51055 5.02071C5.67167 4.92948 5.83576 4.88512 6.00166 4.88512C6.15364 4.88512 6.30713 4.92233 6.46144 4.99486C6.46904 4.99854 6.47663 5.00228 6.48428 5.00574C6.4907 4.58498 6.4907 4.16513 6.4907 3.74074C6.47318 3.74518 6.45704 3.74902 6.44109 3.75345C5.70309 3.95668 4.96511 4.16017 4.22674 4.36246C4.19236 4.37185 4.18303 4.38455 4.18303 4.4149C4.18422 4.95803 4.17899 5.50115 4.18608 6.04417C4.18932 6.29176 4.05623 6.45364 3.80691 6.54698C3.68189 6.59373 3.55765 6.6175 3.43548 6.6175C3.26855 6.6175 3.10547 6.57318 2.94923 6.48261C2.73415 6.35789 2.65136 6.14408 2.73856 5.95329C2.80797 5.80153 2.94334 5.70615 3.1148 5.65055C3.22841 5.6137 3.34084 5.59496 3.45169 5.59496C3.60617 5.59496 3.7576 5.63141 3.90496 5.70617C3.90997 5.70874 3.9151 5.71101 3.92042 5.71318C3.93036 5.69842 3.93036 5.68402 3.93036 5.66961C3.93036 4.97488 3.93025 4.28021 3.93036 3.5855C3.93036 3.4902 3.95516 3.4612 4.0605 3.43223C4.89711 3.20212 5.73374 2.97204 6.57025 2.74178C6.57694 2.7399 6.58313 2.73658 6.58955 2.73395H6.65079C6.72452 2.76142 6.74793 2.81061 6.74785 2.87864ZM6.46069 3.51834C6.48626 3.51129 6.49365 3.50126 6.49367 3.4795C6.49317 3.39392 6.49297 3.30834 6.49304 3.22276C6.49304 3.17539 6.4931 3.12802 6.4931 3.08067C6.4931 3.0617 6.4931 3.04277 6.49308 3.02382C6.49308 3.01538 6.4917 3.00684 6.49083 2.99679C6.4801 2.99857 6.47146 2.99925 6.46326 3.00148C5.71403 3.20761 4.96505 3.41392 4.21574 3.61936C4.18987 3.6265 4.18344 3.63719 4.18344 3.65851C4.18393 3.74478 4.184 3.83003 4.184 3.9153L4.18399 4.02898C4.18399 4.0574 4.184 4.08581 4.18404 4.11423C4.18404 4.12267 4.18522 4.1312 4.18591 4.14187C4.19791 4.13929 4.20785 4.13779 4.21731 4.13514C4.96506 3.92942 5.71266 3.72347 6.46069 3.51834ZM3.83231 6.27642C3.89674 6.22762 3.92986 6.16904 3.93014 6.10909C3.93036 6.05944 3.90805 6.00882 3.86235 5.9621C3.7885 5.88672 3.68988 5.8471 3.58022 5.82927C3.53051 5.82121 3.48166 5.81684 3.43387 5.81672C3.43024 5.81672 3.42818 5.81672 3.42605 5.81675C3.30054 5.81777 3.18261 5.84873 3.07652 5.92072C3.07055 5.92477 3.06465 5.92892 3.05881 5.93316C2.99233 5.98181 2.95929 6.04257 2.9589 6.10352C2.95851 6.16641 2.99294 6.22948 3.06138 6.27962C3.1726 6.36103 3.30371 6.39044 3.44458 6.39452C3.58869 6.39022 3.72127 6.36047 3.83231 6.27642ZM6.33597 5.60654C6.4389 5.5487 6.49444 5.47276 6.49385 5.39532C6.49334 5.33118 6.45432 5.26602 6.3718 5.20935C6.26933 5.13901 6.14925 5.11062 6.02197 5.10866C6.01729 5.10859 6.01261 5.10855 6.00793 5.10856H6.00447C5.86006 5.10908 5.72647 5.14298 5.61512 5.22961C5.55352 5.27748 5.52156 5.33498 5.52113 5.39338C5.5208 5.44177 5.54209 5.49077 5.58618 5.53543C5.70105 5.65176 5.85551 5.68341 6.02215 5.68482C6.02616 5.68486 6.03014 5.68489 6.03416 5.68489H6.03849C6.1459 5.68094 6.24611 5.65708 6.33597 5.60654Z" fill="#E66676"/>
</svg>
