<svg width="9" height="8" viewBox="0 0 9 8" fill="none" xmlns="http://www.w3.org/2000/svg">
<path d="M0.5 3.504L1.004 4H2.004V7.504C2.004 7.64267 2.052 7.76 2.148 7.856C2.244 7.952 2.36133 8 2.5 8H3.5V6C3.5 5.86133 3.548 5.744 3.644 5.648C3.74 5.552 3.86 5.504 4.004 5.504H5.004C5.13733 5.504 5.25467 5.552 5.356 5.648C5.45733 5.744 5.50533 5.86133 5.5 6V8H6.5C6.63867 8 6.756 7.952 6.852 7.856C6.948 7.76 6.99867 7.64267 7.004 7.504V4H8.004L8.5 3.504L4.5 0L0.5 3.504ZM3.5 3.504C3.5 3.22667 3.59867 2.98933 3.796 2.792C3.99333 2.59467 4.228 2.49867 4.5 2.504C4.772 2.50933 5.00667 2.60533 5.204 2.792C5.40133 2.97867 5.5 3.216 5.5 3.504C5.5 3.792 5.40133 4.02667 5.204 4.208C5.00667 4.38933 4.772 4.488 4.5 4.504C4.228 4.52 3.99333 4.42133 3.796 4.208C3.59867 3.99467 3.5 3.76 3.5 3.504Z" fill="white"/>
</svg>
