<svg width="28" height="26" viewBox="0 0 28 26" fill="none" xmlns="http://www.w3.org/2000/svg">
<path fill-rule="evenodd" clip-rule="evenodd" d="M24.9375 10.7006L25.9144 11.4821C26.3187 11.8055 26.9086 11.74 27.2321 11.3356C27.5555 10.9314 27.49 10.3414 27.0856 10.0179L16.9282 1.89205C15.2164 0.522474 12.7837 0.522474 11.0718 1.89205L0.914386 10.0179C0.510073 10.3414 0.444523 10.9314 0.767973 11.3356C1.09141 11.74 1.68137 11.8055 2.08569 11.4821L3.06254 10.7006V23.5625H1.50004C0.982261 23.5625 0.562536 23.9823 0.562536 24.5C0.562536 25.0178 0.982261 25.4375 1.50004 25.4375H26.5C27.0177 25.4375 27.4375 25.0178 27.4375 24.5C27.4375 23.9823 27.0177 23.5625 26.5 23.5625H24.9375V10.7006ZM10.5625 8.87502C10.5625 6.97655 12.1015 5.43752 14 5.43752C15.8985 5.43752 17.4375 6.97655 17.4375 8.87502C17.4375 10.7735 15.8985 12.3125 14 12.3125C12.1015 12.3125 10.5625 10.7735 10.5625 8.87502ZM14.0617 13.5625C14.8929 13.5625 15.6089 13.5624 16.1824 13.6395C16.7969 13.7221 17.386 13.9085 17.8637 14.3863C18.3416 14.8642 18.5279 15.4531 18.6105 16.0678C18.6827 16.6053 18.6872 17.2683 18.6875 18.0338C18.6875 18.0849 18.6875 18.1364 18.6875 18.1883V23.5625H16.8125V18.25C16.8125 17.3396 16.8105 16.7512 16.7522 16.3175C16.6976 15.9109 16.6094 15.7835 16.538 15.7121C16.4666 15.6408 16.3391 15.5525 15.9325 15.4978C15.4989 15.4395 14.9104 15.4375 14 15.4375C13.0896 15.4375 12.5011 15.4395 12.0676 15.4978C11.661 15.5525 11.5335 15.6408 11.4621 15.7121C11.3907 15.7835 11.3025 15.9109 11.2478 16.3175C11.1895 16.7512 11.1875 17.3396 11.1875 18.25V23.5625H9.31254V18.1883C9.31248 17.3573 9.31245 16.6411 9.38954 16.0678C9.47216 15.4531 9.65849 14.8642 10.1363 14.3863C10.6141 13.9085 11.2032 13.7221 11.8177 13.6395C12.3911 13.5624 13.1072 13.5625 13.9384 13.5625H14.0617Z" fill="url(#paint0_linear_214_478)"/>
<defs>
<linearGradient id="paint0_linear_214_478" x1="14" y1="0.864868" x2="14" y2="25.4375" gradientUnits="userSpaceOnUse">
<stop stop-color="#339003"/>
<stop offset="0.86" stop-color="#4F78DA"/>
</linearGradient>
</defs>
</svg>
