<svg width="16" height="12" viewBox="0 0 16 12" fill="none" xmlns="http://www.w3.org/2000/svg">
<path d="M3.79677 4.996C4.64477 4.996 5.42877 5.004 6.14877 5.02C6.52477 3.5 6.89277 2.444 7.25277 1.852C7.49277 1.508 7.73277 1.26 7.97277 1.108C8.06877 1.044 8.16477 1.012 8.26077 1.012C8.36477 1.012 8.41677 1.168 8.41677 1.48C8.41677 1.792 8.38877 2.12 8.33277 2.464C8.28477 2.808 8.22077 3.204 8.14077 3.652C7.87677 5.124 7.67677 6.3 7.54077 7.18C7.41277 8.06 7.34877 8.908 7.34877 9.724C7.34877 9.948 7.18877 10.06 6.86877 10.06C6.36477 10.06 6.02077 9.964 5.83677 9.772C5.65277 9.572 5.56077 9.216 5.56077 8.704C5.56077 8.184 5.66477 7.368 5.87277 6.256C4.99277 6.216 4.43677 6.196 4.20477 6.196H3.71277C3.62477 6.196 3.53677 6.2 3.44877 6.208C3.08877 7.584 2.90877 8.672 2.90877 9.472C2.90877 9.944 2.44877 10.18 1.52877 10.18C1.32877 10.18 1.20877 10.08 1.16877 9.88C1.13677 9.672 1.12077 9.34 1.12077 8.884C1.12077 8.42 1.26477 7.592 1.55277 6.4C1.06477 6.472 0.708766 6.508 0.484766 6.508C0.380766 6.508 0.328766 6.468 0.328766 6.388C0.328766 6.212 0.456766 6.012 0.712766 5.788C0.976766 5.564 1.36077 5.384 1.86477 5.248C2.16077 4.224 2.45677 3.384 2.75277 2.728C1.88877 2.744 1.25277 2.912 0.844766 3.232C0.716766 3.328 0.612766 3.416 0.532766 3.496C0.452766 3.568 0.380766 3.604 0.316766 3.604C0.260766 3.604 0.204766 3.556 0.148766 3.46C0.0927656 3.364 0.0647656 3.236 0.0647656 3.076C0.0647656 2.492 0.556766 2.048 1.54077 1.744C2.32477 1.504 3.23677 1.38 4.27677 1.372H4.30077C4.35677 1.372 4.43277 1.404 4.52877 1.468C4.63277 1.532 4.68477 1.636 4.68477 1.78C4.68477 1.924 4.65677 2.088 4.60077 2.272C4.55277 2.448 4.48477 2.58 4.39677 2.668C4.34877 3.044 4.14877 3.82 3.79677 4.996ZM10.2746 10.036C9.47461 10.036 9.07461 9.288 9.07461 7.792C9.07461 6.976 9.17461 6.236 9.37461 5.572C9.68661 4.548 10.0386 4.036 10.4306 4.036C10.6626 4.036 10.8466 4.192 10.9826 4.504C11.0946 4.744 11.1466 4.98 11.1386 5.212C11.1386 5.532 11.0426 6.096 10.8506 6.904C10.6666 7.608 10.5746 8.044 10.5746 8.212C10.5746 8.38 10.6146 8.496 10.6946 8.56C10.7826 8.624 10.8826 8.656 10.9946 8.656C11.1146 8.656 11.2626 8.58 11.4386 8.428C11.6146 8.276 11.7906 8.112 11.9666 7.936C12.1426 7.752 12.3026 7.584 12.4466 7.432C12.5986 7.28 12.7026 7.204 12.7586 7.204C12.8706 7.204 12.9266 7.34 12.9266 7.612C12.9266 8.172 12.6426 8.72 12.0746 9.256C11.5146 9.784 10.9146 10.044 10.2746 10.036ZM10.7666 3.064C10.5506 2.744 10.4426 2.4 10.4426 2.032C10.4426 1.664 10.4986 1.36 10.6106 1.12C10.7306 0.872 10.8426 0.692 10.9466 0.58C11.0506 0.46 11.1706 0.4 11.3066 0.4C11.5306 0.4 11.7346 0.568 11.9186 0.904C12.1026 1.232 12.1946 1.508 12.1946 1.732C12.1946 2.148 12.0466 2.476 11.7506 2.716C11.4626 2.948 11.1346 3.064 10.7666 3.064ZM13.6828 10.12C13.4108 9.944 13.2748 9.672 13.2748 9.304C13.2828 8.928 13.4268 8.62 13.7068 8.38C13.9868 8.14 14.3188 8.02 14.7028 8.02C14.9188 8.02 15.1068 8.08 15.2668 8.2C15.4348 8.32 15.5188 8.528 15.5188 8.824C15.5188 9.112 15.4548 9.412 15.3268 9.724C15.2068 10.028 15.0388 10.308 14.8228 10.564C14.6148 10.82 14.3708 11.032 14.0908 11.2C13.8188 11.368 13.5348 11.452 13.2388 11.452C13.1268 11.452 13.0068 11.428 12.8788 11.38C12.7508 11.34 12.6868 11.26 12.6868 11.14C12.6868 11.02 12.7268 10.928 12.8068 10.864C12.8948 10.8 12.9948 10.736 13.1068 10.672C13.2188 10.616 13.3268 10.548 13.4308 10.468C13.5428 10.388 13.6268 10.272 13.6828 10.12Z" fill="white"/>
</svg>
