<svg width="28" height="25" viewBox="0 0 28 25" fill="none" xmlns="http://www.w3.org/2000/svg">
<path d="M17.1255 24.25C16.8579 24.2594 16.5949 24.1781 16.3794 24.0193C16.1638 23.8604 16.0082 23.6334 15.9379 23.375L12.0629 11.6875L8.93795 19.6875C8.85931 19.9238 8.70837 20.1294 8.50648 20.2752C8.3046 20.421 8.06198 20.4997 7.81295 20.5C7.57085 20.5061 7.33179 20.4452 7.1222 20.3238C6.91262 20.2025 6.74069 20.0255 6.62545 19.8125L4.37545 15.25L2.43795 17.5625C2.2211 17.809 1.916 17.9602 1.58856 17.9836C1.26112 18.007 0.937627 17.9007 0.687949 17.6875C0.441497 17.4707 0.290239 17.1656 0.266851 16.8381C0.243462 16.5107 0.34982 16.1872 0.562949 15.9375L3.68795 12.1875C3.81356 12.0307 3.97693 11.9082 4.16276 11.8317C4.34859 11.7552 4.5508 11.7271 4.75045 11.75C4.96016 11.7757 5.16058 11.8516 5.33468 11.9713C5.50878 12.091 5.65141 12.2509 5.75045 12.4375L7.62545 16.1875L10.9379 7.56253C11.0265 7.31438 11.1912 7.10057 11.4085 6.95162C11.6259 6.80267 11.8847 6.7262 12.1481 6.73313C12.4115 6.74007 12.6659 6.83004 12.8751 6.99022C13.0843 7.15039 13.2376 7.37257 13.3129 7.62503L17.0004 18.625L21.5629 1.43753C21.6187 1.17801 21.7598 0.944651 21.9637 0.774718C22.1677 0.604785 22.4226 0.508075 22.688 0.500027C22.9637 0.487404 23.2358 0.566396 23.4619 0.724679C23.6881 0.882962 23.8554 1.11164 23.938 1.37503L27.688 12.625C27.756 12.9303 27.707 13.25 27.5508 13.521C27.3946 13.792 27.1425 13.9946 26.8443 14.0888C26.546 14.183 26.2233 14.1619 25.9398 14.0298C25.6563 13.8976 25.4326 13.664 25.3129 13.375L22.8755 6.12503L18.3129 23.3125C18.2572 23.572 18.1161 23.8054 17.9122 23.9753C17.7082 24.1453 17.4533 24.242 17.188 24.25H17.1255Z" fill="black"/>
</svg>
