<svg width="28" height="25" viewBox="0 0 28 25" fill="none" xmlns="http://www.w3.org/2000/svg">
<path d="M17.125 24.25C16.8574 24.2594 16.5944 24.1781 16.3789 24.0193C16.1633 23.8604 16.0078 23.6334 15.9375 23.375L12.0625 11.6875L8.93746 19.6875C8.85882 19.9238 8.70788 20.1294 8.506 20.2752C8.30411 20.421 8.06149 20.4997 7.81246 20.5C7.57036 20.5061 7.3313 20.4452 7.12171 20.3238C6.91213 20.2025 6.7402 20.0255 6.62496 19.8125L4.37496 15.25L2.43746 17.5625C2.22061 17.809 1.91551 17.9602 1.58808 17.9836C1.26064 18.007 0.937139 17.9007 0.687461 17.6875C0.441008 17.4707 0.289751 17.1656 0.266363 16.8381C0.242974 16.5107 0.349332 16.1872 0.562461 15.9375L3.68746 12.1875C3.81307 12.0307 3.97644 11.9082 4.16227 11.8317C4.3481 11.7552 4.55031 11.7271 4.74996 11.75C4.95967 11.7757 5.16009 11.8516 5.33419 11.9713C5.50829 12.091 5.65092 12.2509 5.74996 12.4375L7.62496 16.1875L10.9375 7.56253C11.026 7.31438 11.1907 7.10057 11.4081 6.95162C11.6254 6.80267 11.8842 6.7262 12.1476 6.73313C12.411 6.74007 12.6654 6.83004 12.8746 6.99022C13.0838 7.15039 13.2371 7.37257 13.3125 7.62503L17 18.625L21.5625 1.43753C21.6182 1.17801 21.7593 0.944651 21.9632 0.774718C22.1672 0.604785 22.4221 0.508075 22.6875 0.500027C22.9632 0.487404 23.2353 0.566396 23.4615 0.724679C23.6876 0.882962 23.8549 1.11164 23.9375 1.37503L27.6875 12.625C27.7555 12.9303 27.7065 13.25 27.5503 13.521C27.3942 13.792 27.142 13.9946 26.8438 14.0888C26.5455 14.183 26.2228 14.1619 25.9393 14.0298C25.6558 13.8976 25.4321 13.664 25.3125 13.375L22.875 6.12503L18.3125 23.3125C18.2567 23.572 18.1156 23.8054 17.9117 23.9753C17.7078 24.1453 17.4528 24.242 17.1875 24.25H17.125Z" fill="url(#paint0_linear_267_969)"/>
<defs>
<linearGradient id="paint0_linear_267_969" x1="13.9903" y1="0.498718" x2="13.9903" y2="24.2508" gradientUnits="userSpaceOnUse">
<stop stop-color="#339003"/>
<stop offset="0.86" stop-color="#4F78DA"/>
</linearGradient>
</defs>
</svg>
