<svg width="20" height="20" viewBox="0 0 20 20" fill="none" xmlns="http://www.w3.org/2000/svg">
<path fill-rule="evenodd" clip-rule="evenodd" d="M15.7143 0C15.9841 0 16.2382 0.127029 16.4 0.342857L19.8286 4.91429C20.1126 5.29299 20.0359 5.83025 19.6571 6.11429C19.2784 6.39832 18.7411 6.32157 18.4571 5.94286L16.5714 3.42857V16.5714L18.4571 14.0571C18.7411 13.6784 19.2784 13.6017 19.6571 13.8857C20.0359 14.1697 20.1126 14.707 19.8286 15.0857L16.4 19.6571C16.2382 19.873 15.9841 20 15.7143 20C15.4445 20 15.1904 19.873 15.0286 19.6571L11.6 15.0857C11.316 14.707 11.3927 14.1697 11.7714 13.8857C12.1502 13.6017 12.6874 13.6784 12.9714 14.0571L14.8571 16.5714V3.42857L12.9714 5.94286C12.6874 6.32157 12.1502 6.39832 11.7714 6.11429C11.3927 5.83025 11.316 5.29299 11.6 4.91429L15.0286 0.342857C15.1904 0.127029 15.4445 0 15.7143 0ZM0 4.28571C0 3.81233 0.38376 3.42857 0.857143 3.42857H8.85714C9.33052 3.42857 9.71429 3.81233 9.71429 4.28571C9.71429 4.7591 9.33052 5.14286 8.85714 5.14286H0.857143C0.38376 5.14286 0 4.7591 0 4.28571ZM0 10C0 9.52663 0.38376 9.14286 0.857143 9.14286H8.85714C9.33052 9.14286 9.71429 9.52663 9.71429 10C9.71429 10.4734 9.33052 10.8571 8.85714 10.8571H0.857143C0.38376 10.8571 0 10.4734 0 10ZM0 15.7143C0 15.2409 0.38376 14.8571 0.857143 14.8571H8.85714C9.33052 14.8571 9.71429 15.2409 9.71429 15.7143C9.71429 16.1877 9.33052 16.5714 8.85714 16.5714H0.857143C0.38376 16.5714 0 16.1877 0 15.7143Z" fill="black"/>
</svg>
