<svg width="13" height="15" viewBox="0 0 13 15" fill="none" xmlns="http://www.w3.org/2000/svg">
<path d="M0 0V14.0603C0 14.3963 0.179356 14.7067 0.470274 14.8743C0.761631 15.0423 1.11987 15.0418 1.41079 14.8735L5.4668 12.5239C6.04949 12.1866 6.76817 12.1866 7.35085 12.5239L11.4071 14.8735C11.6978 15.0418 12.0563 15.0423 12.3472 14.8743C12.6383 14.7067 12.8177 14.3963 12.8177 14.0603V0H0ZM9.4503 6.10603L7.98123 7.31523C7.92493 7.36161 7.90032 7.43672 7.91886 7.50753L8.39649 9.34908C8.41588 9.42396 8.38761 9.50294 8.32503 9.5483C8.26266 9.59382 8.17872 9.5962 8.11354 9.55477L6.51003 8.53114C6.4483 8.49188 6.36932 8.49188 6.30759 8.53114L4.70388 9.55477C4.6389 9.5962 4.55476 9.59382 4.49218 9.5483C4.42981 9.50297 4.40154 9.42399 4.42096 9.34908L4.89876 7.50753C4.91734 7.43675 4.89273 7.36163 4.83642 7.31523L3.36736 6.10603C3.30779 6.05681 3.28406 5.97633 3.30803 5.90294C3.33199 5.82935 3.39844 5.77799 3.47529 5.77324L5.37443 5.65887C5.44738 5.65433 5.51127 5.60795 5.53802 5.53998L6.23379 3.76922C6.26227 3.69736 6.33156 3.65007 6.40881 3.65007C6.48607 3.65007 6.55535 3.69753 6.58383 3.76922L7.2794 5.53998C7.30594 5.60795 7.36981 5.65436 7.44296 5.65887L9.3421 5.77324C9.41939 5.77799 9.48566 5.82935 9.50959 5.90294C9.53359 5.97633 9.51006 6.05681 9.4503 6.10603Z" fill="#0090FF"/>
</svg>
