<svg width="17" height="17" viewBox="0 0 17 17" fill="none" xmlns="http://www.w3.org/2000/svg">
<path d="M10.5833 16.1C11.6112 16.1 12.473 15.3898 12.7051 14.4333H13.9167C15.1225 14.4333 16.1 13.4558 16.1 12.25V11.4167C16.1 10.2108 15.1225 9.23333 13.9167 9.23333H12.7667V8.08333C12.7667 7.05544 12.0564 6.19363 11.1 5.96152V5.16667C11.1 2.81025 9.18975 0.9 6.83333 0.9C4.47692 0.9 2.56667 2.81025 2.56667 5.16667V5.96152C1.61023 6.19363 0.9 7.05544 0.9 8.08333V13.9167C0.9 15.1225 1.87751 16.1 3.08333 16.1H10.5833ZM8.08333 14.4333H11.611C11.4218 14.8091 11.0325 15.0667 10.5833 15.0667H3.08333C2.44821 15.0667 1.93333 14.5518 1.93333 13.9167V8.08333C1.93333 7.44821 2.44821 6.93333 3.08333 6.93333H10.4599C10.4995 6.94306 10.5409 6.9482 10.5833 6.9482C10.6186 6.9482 10.653 6.94466 10.6864 6.93789C11.2732 6.98997 11.7333 7.48297 11.7333 8.08333V9.23333H8.08333C6.87751 9.23333 5.9 10.2108 5.9 11.4167V12.25C5.9 13.4558 6.87751 14.4333 8.08333 14.4333ZM10.0667 5.16667V5.9H3.6V5.16667C3.6 3.38095 5.04761 1.93333 6.83333 1.93333C8.61905 1.93333 10.0667 3.38095 10.0667 5.16667ZM15.0667 11.4167V12.25C15.0667 12.8851 14.5518 13.4 13.9167 13.4H8.08333C7.44821 13.4 6.93333 12.8851 6.93333 12.25V11.4167C6.93333 10.7815 7.44821 10.2667 8.08333 10.2667H13.9167C14.5518 10.2667 15.0667 10.7815 15.0667 11.4167ZM8.91667 10.9H8.08333C7.79799 10.9 7.56667 11.1313 7.56667 11.4167V12.25C7.56667 12.5353 7.79799 12.7667 8.08333 12.7667H8.91667C9.20201 12.7667 9.43333 12.5353 9.43333 12.25V11.4167C9.43333 11.1313 9.20201 10.9 8.91667 10.9ZM11.4167 10.9H10.5833C10.298 10.9 10.0667 11.1313 10.0667 11.4167V12.25C10.0667 12.5353 10.298 12.7667 10.5833 12.7667H11.4167C11.702 12.7667 11.9333 12.5353 11.9333 12.25V11.4167C11.9333 11.1313 11.702 10.9 11.4167 10.9ZM13.9167 10.9H13.0833C12.798 10.9 12.5667 11.1313 12.5667 11.4167V12.25C12.5667 12.5353 12.798 12.7667 13.0833 12.7667H13.9167C14.202 12.7667 14.4333 12.5353 14.4333 12.25V11.4167C14.4333 11.1313 14.202 10.9 13.9167 10.9Z" fill="black" stroke="black" stroke-width="0.2"/>
</svg>
