<svg width="30" height="30" viewBox="0 0 30 30" fill="none" xmlns="http://www.w3.org/2000/svg">
<path d="M15 0C6.72873 0 0 6.72873 0 15C0 23.2713 6.72873 30 15 30C15.1512 30 15.2988 29.9813 15.45 29.9775L15.5025 29.9875C15.5437 29.995 15.5838 30 15.625 30C15.6825 30 15.7413 29.9925 15.7963 29.9763L15.8663 29.9563C23.7337 29.5025 30 22.9788 30 15C30 6.72873 23.2713 0 15 0ZM23.915 25.4487C23.8562 25.2575 23.7237 25.0962 23.5312 25.0325L20.2413 23.9375C19.0925 23.4587 18.5575 21.62 18.4325 20.8825C19.2838 20.0912 20.0701 18.9125 20.0701 17.8475C20.0701 17.485 20.1725 17.3462 20.1526 17.3425C20.3476 17.2937 20.5063 17.155 20.5813 16.9687C20.6425 16.8149 21.1813 15.4412 21.1813 14.515C21.1813 14.4637 21.175 14.4125 21.1625 14.3637C21.0838 14.05 20.9 13.7337 20.6251 13.5362V10.6262C20.6251 8.82744 20.0776 8.07369 19.4975 7.63746C19.3675 6.74244 18.4088 5.00121 15.0001 5.00121C11.5151 5.00121 9.37506 8.27748 9.37506 10.6262V13.5362C9.10008 13.7337 8.91633 14.05 8.83758 14.3637C8.8251 14.4137 8.81883 14.465 8.81883 14.515C8.81883 15.4412 9.3576 16.8149 9.41883 16.9687C9.49383 17.155 9.59256 17.2737 9.78756 17.3224C9.82758 17.3462 9.93006 17.4862 9.93006 17.8474C9.93006 18.9124 10.7163 20.0912 11.5676 20.8824C11.4438 21.6186 10.9138 23.4561 9.80133 23.9211L6.46758 25.0324C6.27633 25.0961 6.13881 25.2536 6.07881 25.4449C3.1275 22.9212 1.24752 19.1787 1.24752 15C1.24752 7.41873 7.41627 1.24998 14.9975 1.24998C22.5788 1.24998 28.7475 7.41873 28.7475 15C28.75 19.18 26.8687 22.925 23.915 25.4487Z" fill="black"/>
</svg>
