<svg width="24" height="20" viewBox="0 0 24 20" fill="none" xmlns="http://www.w3.org/2000/svg">
<path fill-rule="evenodd" clip-rule="evenodd" d="M4.66588 5.55487C4.66588 4.94164 4.14331 4.44394 3.49942 4.44394H1.16647C0.522583 4.44394 0 4.94164 0 5.55487C0 6.1681 0.522583 6.66579 1.16647 6.66579H3.49942C4.14331 6.66579 4.66588 6.1681 4.66588 5.55487ZM22.647 4.25619L22.2318 3.8596L18.5224 0.325779C18.0663 -0.108593 17.3268 -0.108593 16.8718 0.325779C16.4158 0.76015 16.4158 1.46337 16.8718 1.89663L18.8327 3.63075C19.2001 3.98069 18.94 4.44394 18.4198 4.44394H12.4311C11.786 4.44394 11.2646 4.94164 11.2646 5.55487C11.2646 6.1681 11.786 6.66579 12.4311 6.66579H18.4221C18.9423 6.66579 19.2025 7.39898 18.835 7.74892L16.8718 9.68416C16.4169 10.1185 16.4169 10.8551 16.8718 11.2894C17.3279 11.7227 18.0663 11.7394 18.5212 11.3061L22.647 7.38569C23.5569 6.51805 23.5569 5.12382 22.647 4.25619ZM15.9363 14.4889L15.5491 18.4405C15.3309 19.4792 14.3733 19.9969 13.2616 19.9969H7.62173C7.23796 19.9969 6.87751 20.0469 6.66055 19.7458L4.14097 15.3832C3.82369 14.9466 3.87852 14.3567 4.27162 13.9823C4.77787 13.5002 5.61656 13.5691 6.02715 14.1268L6.99883 15.4521V6.01479C6.99883 5.40156 7.52608 4.90387 8.16997 4.90387C8.99933 4.90387 9.3411 5.62153 9.3411 6.01479L9.35044 11.6183L14.3861 12.0605C15.5024 12.4137 16.1673 13.3902 15.9363 14.4889Z" fill="black"/>
</svg>
