<svg width="30" height="26" viewBox="0 0 30 26" fill="none" xmlns="http://www.w3.org/2000/svg">
<path d="M8.43098 12.0377C11.5802 12.0377 14.1423 9.47566 14.1423 6.32642C14.1423 3.17719 11.5803 0.615173 8.43098 0.615173C5.28174 0.615173 2.71973 3.17719 2.71973 6.32642C2.71973 9.47554 5.28174 12.0377 8.43098 12.0377Z" fill="url(#paint0_linear_257_439)"/>
<path d="M8.43123 13.0372C3.78223 13.0372 0 16.8192 0 21.4678V24.3271C0 24.9115 0.473789 25.3853 1.0582 25.3853H15.8036C16.388 25.3853 16.8618 24.9115 16.8618 24.3271V21.4678C16.8618 16.841 13.1199 13.0372 8.43123 13.0372Z" fill="url(#paint1_linear_257_439)"/>
<path d="M16.2423 14.9264C16.0943 15.0472 16.0726 15.2649 16.1903 15.4153C18.5719 18.4613 18.2727 21.2106 18.2727 24.3271C18.2727 24.5409 18.2453 24.7484 18.1939 24.9464C18.1361 25.1689 18.3055 25.3853 18.5354 25.3853H28.9417C29.5261 25.3853 29.9999 24.9115 29.9999 24.3271V21.4678C29.9999 14.3004 21.6646 10.5028 16.2423 14.9264Z" fill="url(#paint2_linear_257_439)"/>
<path d="M15.8578 11.0336C15.8578 11.618 16.3316 12.0918 16.916 12.0918H26.222C26.8065 12.0918 27.2803 11.618 27.2803 11.0336V6.32658C27.2803 6.32652 27.2803 6.32646 27.2803 6.32646C27.28 3.16451 24.7014 0.614624 21.5686 0.614624C18.2928 0.614624 15.7351 3.36455 15.8578 6.55685L15.8578 11.0336ZM17.976 6.1464H25.1595C25.2611 8.20738 23.6129 9.92107 21.5688 9.92107C19.483 9.92107 17.8699 8.15042 17.976 6.1464Z" fill="url(#paint3_linear_257_439)"/>
<defs>
<linearGradient id="paint0_linear_257_439" x1="8.43101" y1="0.615173" x2="8.43101" y2="12.0377" gradientUnits="userSpaceOnUse">
<stop stop-color="#339003"/>
<stop offset="0.86" stop-color="#4F78DA"/>
</linearGradient>
<linearGradient id="paint1_linear_257_439" x1="8.43088" y1="13.0372" x2="8.43088" y2="25.3853" gradientUnits="userSpaceOnUse">
<stop stop-color="#339003"/>
<stop offset="0.86" stop-color="#4F78DA"/>
</linearGradient>
<linearGradient id="paint2_linear_257_439" x1="23.0573" y1="13.0333" x2="23.0573" y2="25.3853" gradientUnits="userSpaceOnUse">
<stop stop-color="#339003"/>
<stop offset="0.86" stop-color="#4F78DA"/>
</linearGradient>
<linearGradient id="paint3_linear_257_439" x1="21.5669" y1="0.614624" x2="21.5669" y2="12.0918" gradientUnits="userSpaceOnUse">
<stop stop-color="#339003"/>
<stop offset="0.86" stop-color="#4F78DA"/>
</linearGradient>
</defs>
</svg>
