<svg width="30" height="26" viewBox="0 0 30 26" fill="none" xmlns="http://www.w3.org/2000/svg">
<path d="M8.43122 12.0376C11.5805 12.0376 14.1425 9.4756 14.1425 6.32636C14.1425 3.17712 11.5805 0.615112 8.43122 0.615112C5.28198 0.615112 2.71997 3.17712 2.71997 6.32636C2.71997 9.47548 5.28198 12.0376 8.43122 12.0376Z" fill="black"/>
<path d="M8.43123 13.0372C3.78223 13.0372 0 16.8192 0 21.4678V24.3271C0 24.9115 0.473789 25.3853 1.0582 25.3853H15.8036C16.388 25.3853 16.8618 24.9115 16.8618 24.3271V21.4678C16.8618 16.841 13.1199 13.0372 8.43123 13.0372Z" fill="black"/>
<path d="M16.2425 14.9264C16.0945 15.0472 16.0728 15.2649 16.1906 15.4153C18.5722 18.4613 18.2729 21.2106 18.2729 24.3271C18.2729 24.5409 18.2456 24.7484 18.1941 24.9464C18.1363 25.1689 18.3058 25.3853 18.5357 25.3853H28.9419C29.5263 25.3853 30.0001 24.9115 30.0001 24.3271V21.4678C30.0001 14.3004 21.6648 10.5028 16.2425 14.9264Z" fill="black"/>
<path d="M15.8578 11.0336C15.8578 11.618 16.3316 12.0918 16.916 12.0918H26.222C26.8065 12.0918 27.2803 11.618 27.2803 11.0336V6.32658C27.2803 6.32652 27.2803 6.32646 27.2803 6.32646C27.28 3.16451 24.7014 0.614624 21.5686 0.614624C18.2928 0.614624 15.7351 3.36455 15.8578 6.55685L15.8578 11.0336ZM17.976 6.1464H25.1595C25.2611 8.20738 23.6129 9.92107 21.5688 9.92107C19.483 9.92107 17.8699 8.15042 17.976 6.1464Z" fill="black"/>
</svg>
