<svg width="17" height="20" viewBox="0 0 17 20" fill="none" xmlns="http://www.w3.org/2000/svg">
<path d="M4.92925 11.7581C4.77409 12.6049 4.15912 16.5522 3.97704 17.6678C3.96358 17.7476 3.93241 17.7779 3.84385 17.7779H0.540891C0.20436 17.7779 -0.0393583 17.4872 0.0052762 17.1647L2.60046 0.762759C2.66705 0.339373 3.04751 0.0175999 3.48606 0.0175999C10.2301 0.0175999 10.7969 -0.145404 12.5192 0.520723C15.1803 1.54814 15.424 4.02706 14.4676 6.70851C13.5154 9.46969 11.2574 10.6559 8.26408 10.6912C6.34267 10.7222 5.18643 10.3821 4.92995 11.7581H4.92925ZM15.8094 5.41154C15.7294 5.35438 15.6989 5.3318 15.6763 5.46869C15.5877 5.97111 15.4502 6.46083 15.2866 6.95054C13.5196 11.9698 8.62258 11.533 6.23144 11.533C5.96151 11.533 5.78439 11.6784 5.74896 11.9472C4.74858 18.1392 4.54879 19.4313 4.54879 19.4313C4.50415 19.7446 4.70395 20 5.01781 20H7.82978C8.21095 20 8.52481 19.722 8.60061 19.343C8.63179 19.1052 8.55173 19.6119 9.23825 15.3166C9.44229 14.3464 9.87164 14.448 10.5355 14.448C13.6797 14.448 16.1325 13.1778 16.863 9.49509C17.1506 7.96032 17.067 6.34581 15.8094 5.41083V5.41154Z" fill="black"/>
</svg>
