<svg width="8" height="10" viewBox="0 0 8 10" fill="none" xmlns="http://www.w3.org/2000/svg">
<path fill-rule="evenodd" clip-rule="evenodd" d="M4 2.8125C3.48219 2.8125 3.0625 3.23219 3.0625 3.75C3.0625 4.26781 3.48219 4.6875 4 4.6875C4.51781 4.6875 4.9375 4.26781 4.9375 3.75C4.9375 3.23219 4.51781 2.8125 4 2.8125ZM4 5.3125C3.13719 5.3125 2.4375 4.61312 2.4375 3.75C2.4375 2.88687 3.13719 2.1875 4 2.1875C4.86281 2.1875 5.5625 2.88687 5.5625 3.75C5.5625 4.61312 4.86281 5.3125 4 5.3125ZM4 0C1.92906 0 0.25 1.67906 0.25 3.75C0.25 5.31813 3.37656 10.0034 4 10C4.61375 10.0034 7.75 5.29688 7.75 3.75C7.75 1.67906 6.07094 0 4 0Z" fill="url(#paint0_linear_390_152)"/>
<defs>
<linearGradient id="paint0_linear_390_152" x1="0.25" y1="5" x2="7.75" y2="5" gradientUnits="userSpaceOnUse">
<stop stop-color="#007BFD"/>
<stop offset="1" stop-color="#20235A"/>
</linearGradient>
</defs>
</svg>
