<svg width="16" height="16" viewBox="0 0 16 16" fill="none" xmlns="http://www.w3.org/2000/svg">
<path d="M0.978155 5.51608C1.40301 5.51608 1.63175 5.27918 1.63175 4.84617V2.91806C1.63175 2.06842 2.08926 1.63541 2.90627 1.63541H4.88336C5.30821 1.63541 5.54515 1.39845 5.54515 0.97363C5.54515 0.55697 5.30821 0.320038 4.88336 0.320038H2.88173C1.18242 0.320038 0.316406 1.16155 0.316406 2.84454V4.84617C0.316406 5.27918 0.553338 5.51608 0.978155 5.51608ZM14.6546 5.51608C15.0875 5.51608 15.3164 5.27918 15.3164 4.84617V2.84454C15.3164 1.16155 14.4667 0.320038 12.751 0.320038H10.7575C10.3245 0.320038 10.0876 0.55697 10.0876 0.97363C10.0876 1.39845 10.3245 1.63541 10.7575 1.63541H12.7347C13.5353 1.63541 14.001 2.06842 14.001 2.91806V4.84617C14.001 5.27918 14.2379 5.51608 14.6546 5.51608ZM7.46507 7.10924V4.25794C7.46507 4.06186 7.30984 3.89845 7.10558 3.89845H4.26247C4.05823 3.89845 3.90297 4.06186 3.90297 4.25794V7.10924C3.90297 7.30532 4.05823 7.46054 4.26247 7.46054H7.10558C7.30984 7.46054 7.46507 7.30532 7.46507 7.10924ZM8.87847 4.60924H11.019V6.74975H8.87847V4.60924ZM10.3981 6.12885V5.23833H9.50755V6.12885H10.3981ZM6.13338 6.12885V5.23833H5.23466V6.12885H6.13338ZM4.61377 8.8821H6.75427V11.0226H4.61377V8.8821ZM11.6236 9.15988V8.26936H10.733V9.15988H11.6236ZM9.16441 9.15988V8.26936H8.27389V9.15988H9.16441ZM6.13338 10.3935V9.503H5.23466V10.3935H6.13338ZM10.3981 10.3935V9.503H9.49936V10.3935H10.3981ZM10.7575 15.3118H12.751C14.4667 15.3118 15.3164 14.4621 15.3164 12.7791V10.7857C15.3164 10.3527 15.0795 10.1158 14.6546 10.1158C14.2298 10.1158 14.001 10.3527 14.001 10.7857V12.7138C14.001 13.5635 13.5353 13.9965 12.7347 13.9965H10.7575C10.3245 13.9965 10.0876 14.2334 10.0876 14.6582C10.0876 15.0749 10.3245 15.3118 10.7575 15.3118ZM2.88173 15.3118H4.88336C5.30821 15.3118 5.54515 15.0749 5.54515 14.6582C5.54515 14.2334 5.30821 13.9965 4.88336 13.9965H2.90627C2.08926 13.9965 1.63175 13.5635 1.63175 12.7138V10.7857C1.63175 10.3527 1.39482 10.1158 0.978155 10.1158C0.545146 10.1158 0.316406 10.3527 0.316406 10.7857V12.7791C0.316406 14.4703 1.18242 15.3118 2.88173 15.3118ZM9.16441 11.6272V10.7367H8.27389V11.6272H9.16441ZM11.6236 11.6272V10.7367H10.733V11.6272H11.6236ZM11.7298 7.10924V4.25794C11.7298 4.06186 11.5745 3.89845 11.3703 3.89845H8.52713C8.3229 3.89845 8.16767 4.06186 8.16767 4.25794V7.10924C8.16767 7.30532 8.3229 7.46054 8.52713 7.46054H11.3703C11.5745 7.46054 11.7298 7.30532 11.7298 7.10924ZM4.61377 4.60924H6.75427V6.74975H4.61377V4.60924ZM7.46507 11.3739V8.52264C7.46507 8.32656 7.30984 8.17134 7.10558 8.17134H4.26247C4.05823 8.17134 3.90297 8.32656 3.90297 8.52264V11.3739C3.90297 11.57 4.05823 11.7334 4.26247 11.7334H7.10558C7.30984 11.7334 7.46507 11.57 7.46507 11.3739Z" fill="black"/>
</svg>
