<svg width="30" height="21" viewBox="0 0 30 21" fill="none" xmlns="http://www.w3.org/2000/svg">
<path d="M28.853 10.5027H12.0628M1 4.23089H4.91988M2.56795 10.5027H4.91988M3.35193 16.7745H4.91988M11.9154 11.2703L10.5175 15.9099C9.98832 17.6663 9.72371 18.5445 9.94884 19.0689C10.1443 19.5242 10.5434 19.8604 11.0253 19.9754C11.5804 20.1081 12.4007 19.6979 14.0414 18.8776L26.3033 12.7466C27.7477 12.0244 28.4701 11.6633 28.7018 11.1745C28.9034 10.7493 28.9034 10.256 28.7018 9.83079C28.4701 9.34205 27.7477 8.98096 26.3033 8.25876L14.0247 2.11947C12.3885 1.30141 11.5704 0.892374 11.0159 1.02441C10.5344 1.13908 10.1353 1.47435 9.93934 1.92884C9.7136 2.4523 9.97539 3.32866 10.499 5.0814L11.917 9.82859C11.9972 10.0967 12.0371 10.2308 12.053 10.3673C12.0671 10.4885 12.0669 10.6108 12.0525 10.732C12.0363 10.8686 11.9961 11.0025 11.9154 11.2703Z" stroke="black" stroke-width="2" stroke-linecap="round" stroke-linejoin="round"/>
</svg>
