<svg width="19" height="20" viewBox="0 0 19 20" fill="none" xmlns="http://www.w3.org/2000/svg">
<path fill-rule="evenodd" clip-rule="evenodd" d="M5.01909 10C5.01909 7.635 6.9398 5.71429 9.3048 5.71429C11.6698 5.71429 13.5905 7.635 13.5905 10C13.5905 12.365 11.6698 14.2857 9.3048 14.2857C6.9398 14.2857 5.01909 12.365 5.01909 10ZM12.1619 10C12.1619 8.42286 10.8819 7.14286 9.3048 7.14286C7.72766 7.14286 6.44766 8.42286 6.44766 10C6.44766 11.5771 7.72766 12.8571 9.3048 12.8571C10.8819 12.8571 12.1619 11.5771 12.1619 10Z" fill="#007BFD"/>
<path fill-rule="evenodd" clip-rule="evenodd" d="M12.1619 2.67929V2.14286C12.1619 0.959286 11.2027 0 10.0191 0H8.59052C7.40695 0 6.44766 0.959286 6.44766 2.14286V2.67929C5.70195 2.97143 5.01123 3.37357 4.39552 3.86642L3.92909 3.59715C2.90409 3.00501 1.59338 3.35643 1.00195 4.38143L0.287661 5.61857C0.00337529 6.11071 -0.0737697 6.69571 0.0733731 7.24428C0.220516 7.79357 0.579803 8.26142 1.07195 8.54571L1.53695 8.81428C1.47838 9.20071 1.44766 9.59714 1.44766 10C1.44766 10.4029 1.47838 10.7993 1.53695 11.1857L1.07195 11.4543C0.0469464 12.0457 -0.304482 13.3564 0.287661 14.3814L1.00195 15.6186C1.59338 16.6436 2.90409 16.995 3.92909 16.4028L4.39552 16.1336C5.01123 16.6264 5.70195 17.0293 6.44766 17.3207V17.8571C6.44766 19.0407 7.40695 20 8.59052 20H10.0191C11.2027 20 12.1619 19.0407 12.1619 17.8571V17.3207C12.9077 17.0286 13.5984 16.6264 14.2141 16.1336L14.6805 16.4028C15.7055 16.995 17.0162 16.6436 17.6077 15.6186L18.3219 14.3814C18.6062 13.8893 18.6834 13.3043 18.5362 12.7557C18.3891 12.2064 18.0298 11.7386 17.5377 11.4543L17.0727 11.1857C17.1312 10.7993 17.1619 10.4029 17.1619 10C17.1619 9.59714 17.1312 9.20071 17.0727 8.81428L17.5377 8.54571C18.5627 7.95428 18.9141 6.64357 18.3219 5.61857L17.6077 4.38143C17.0162 3.35643 15.7055 3.00501 14.6805 3.59715L14.2141 3.86642C13.5991 3.37357 12.9084 2.97072 12.1619 2.67929ZM11.2334 3.86642C10.9355 3.77285 10.7334 3.49644 10.7334 3.18501V2.14286C10.7334 1.74857 10.4134 1.42857 10.0191 1.42857H8.59052C8.19623 1.42857 7.87623 1.74857 7.87623 2.14286V3.18501C7.87623 3.49644 7.67409 3.77213 7.37623 3.86571C6.46766 4.15213 5.64552 4.635 4.9598 5.26428C4.7298 5.475 4.3898 5.51285 4.11909 5.35642C4.11909 5.35642 3.68909 5.10858 3.2148 4.83429C2.87266 4.63715 2.43623 4.75429 2.23909 5.09572L1.52481 6.33286C1.42981 6.49714 1.40409 6.69214 1.45338 6.875C1.50195 7.05786 1.62195 7.21357 1.78623 7.30857L2.68838 7.82928C2.95838 7.98571 3.09623 8.29858 3.02837 8.60286C2.92909 9.05286 2.87623 9.52 2.87623 10C2.87623 10.48 2.92909 10.9471 3.02837 11.3971C3.09623 11.7014 2.95838 12.0143 2.68838 12.1707L1.78623 12.6914C1.44409 12.8886 1.32766 13.3257 1.52481 13.6671L2.23909 14.9043C2.43623 15.2457 2.87266 15.3629 3.2148 15.1657L4.11909 14.6436C4.3898 14.4871 4.7298 14.525 4.9598 14.7357C5.64552 15.3657 6.46695 15.8479 7.37623 16.1336C7.67409 16.2271 7.87623 16.5036 7.87623 16.815V17.8571C7.87623 18.2514 8.19623 18.5714 8.59052 18.5714H10.0191C10.4134 18.5714 10.7334 18.2514 10.7334 17.8571V16.815C10.7334 16.5036 10.9355 16.2279 11.2334 16.1343C12.1419 15.8479 12.9641 15.365 13.6498 14.7357C13.8798 14.525 14.2198 14.4871 14.4905 14.6436C14.4905 14.6436 14.9205 14.8914 15.3948 15.1657C15.7369 15.3629 16.1734 15.2457 16.3705 14.9043L17.0848 13.6671C17.1798 13.5029 17.2055 13.3079 17.1562 13.125C17.1077 12.9421 16.9877 12.7864 16.8234 12.6914L15.9212 12.1707C15.6512 12.0143 15.5134 11.7014 15.5812 11.3971C15.6805 10.9471 15.7334 10.48 15.7334 10C15.7334 9.52 15.6805 9.05286 15.5812 8.60286C15.5134 8.29858 15.6512 7.98571 15.9212 7.82928L16.8234 7.30857C17.1655 7.11142 17.2819 6.67428 17.0848 6.33286L16.3705 5.09572C16.1734 4.75429 15.7369 4.63715 15.3948 4.83429L14.4905 5.35642C14.2198 5.51285 13.8798 5.475 13.6498 5.26428C12.9641 4.63428 12.1427 4.15214 11.2334 3.86642Z" fill="#007BFD"/>
</svg>
