<svg width="11" height="10" viewBox="0 0 11 10" fill="none" xmlns="http://www.w3.org/2000/svg">
<path d="M9.24149 0.758371C11.3556 2.87237 11.3556 6.30023 9.24149 8.4146C7.12738 10.5285 3.69974 10.5285 1.58552 8.4146C-0.528506 6.30023 -0.528506 2.87238 1.58552 0.758371C2.59666 -0.25279 4.23598 -0.25279 5.24713 0.758371L7.24439 2.75573C7.42805 2.93949 7.72639 2.93949 7.91005 2.75573C8.09395 2.5717 8.09395 2.27381 7.91005 2.08993C7.54251 1.72218 7.54251 1.12613 7.91005 0.758371C8.27758 0.390817 8.87383 0.390817 9.24149 0.758371Z" fill="#FCB814"/>
<path d="M4.30576 0.52301L6.30302 2.52035C6.48665 2.70412 7.25576 3.17486 7.4394 2.9911C7.44635 2.98415 7.45121 2.97607 7.45761 2.96881L5.24727 0.758378C4.77901 0.290106 4.17592 0.0415666 3.56299 0.00701904C3.83159 0.131446 4.08425 0.301465 4.30576 0.52301Z" fill="#030504"/>
<path d="M9.24155 0.758348C8.98749 0.504358 8.62533 0.430176 8.30387 0.527172C10.4139 2.64152 10.4128 6.0662 8.30005 8.17919C7.02908 9.45003 5.28405 9.95099 3.6344 9.69384C5.53335 10.3535 7.72472 9.93123 9.24156 8.41456C11.3557 6.30022 11.3557 2.87235 9.24155 0.758348ZM3.15251 6.65258C3.4281 6.37699 3.87541 6.37699 4.15102 6.65258C4.42683 6.92817 4.42683 7.37548 4.15102 7.65108C3.87541 7.92692 3.4281 7.92692 3.15251 7.65108C2.8769 7.37548 2.8769 6.92817 3.15251 6.65258Z" fill="#030504"/>
<path d="M2.91715 6.41727C3.19275 6.14167 3.64006 6.14167 3.91566 6.41727C4.1915 6.69285 4.1915 7.14018 3.91566 7.41575C3.64007 7.69159 3.19276 7.69159 2.91715 7.41575C2.64155 7.14018 2.64155 6.69285 2.91715 6.41727Z" fill="#0DB14B"/>
<path d="M2.68646 4.2536C2.87037 4.43751 2.87037 4.7354 2.68646 4.91929C2.50258 5.10317 2.20468 5.10317 2.0208 4.91929C1.83682 4.7354 1.83682 4.43749 2.0208 4.2536C2.20468 4.06984 2.50258 4.06984 2.68646 4.2536Z" fill="#030504"/>
<path d="M2.45112 4.2536C2.63502 4.43751 2.63502 4.7354 2.45112 4.91929C2.26725 5.10317 1.96934 5.10317 1.78547 4.91929C1.60146 4.7354 1.60146 4.43749 1.78547 4.2536C1.96934 4.06984 2.26726 4.06984 2.45112 4.2536Z" fill="#2577FF"/>
<path d="M5.98218 8.15062C5.70646 7.87515 5.70623 7.42795 5.98218 7.15211C6.25767 6.8765 6.70498 6.8765 6.98058 7.15211C7.25651 7.42795 7.25651 7.87515 6.98058 8.15062C6.70475 8.42646 6.25792 8.42646 5.98218 8.15062ZM4.31743 1.82609C4.6851 2.19336 4.6851 2.78988 4.31743 3.15753C3.95025 3.52495 3.35366 3.52495 2.9861 3.15753C2.61856 2.78988 2.61856 2.19336 2.9861 1.82609C3.35366 1.45852 3.95025 1.45852 4.31743 1.82609Z" fill="#030504"/>
<path d="M4.08208 1.59066C4.44973 1.95795 4.44973 2.55445 4.08208 2.9221C3.7149 3.28953 3.11829 3.28953 2.75074 2.9221C2.38322 2.55445 2.38322 1.95795 2.75074 1.59066C3.11829 1.22312 3.71489 1.22312 4.08208 1.59066ZM5.74683 7.91519C5.47111 7.63971 5.47086 7.19252 5.74683 6.9167C6.0223 6.64111 6.46961 6.64111 6.7452 6.9167C7.02114 7.19253 7.02114 7.63971 6.7452 7.91519C6.46938 8.19103 6.02254 8.19103 5.74683 7.91519Z" fill="#FF3B30"/>
</svg>
