<svg width="62" height="36" viewBox="0 0 62 36" fill="none" xmlns="http://www.w3.org/2000/svg">
<rect width="62" height="36" rx="9" fill="url(#paint0_linear_238_741)"/>
<path d="M41.9549 18H28.5695M19.75 13H22.875M21 18H22.875M21.625 23H22.875M28.4519 18.612L27.3375 22.3108C26.9156 23.711 26.7047 24.4111 26.8842 24.8291C27.04 25.1921 27.3582 25.4601 27.7424 25.5519C28.1849 25.6576 28.8389 25.3306 30.1469 24.6766L39.9223 19.7889C41.0738 19.2131 41.6496 18.9253 41.8344 18.5356C41.9951 18.1966 41.9951 17.8034 41.8344 17.4644C41.6496 17.0748 41.0738 16.7869 39.9223 16.2111L30.1335 11.3168C28.8291 10.6646 28.1769 10.3385 27.7349 10.4438C27.351 10.5352 27.0328 10.8025 26.8766 11.1648C26.6966 11.5821 26.9053 12.2808 27.3227 13.6781L28.4533 17.4626C28.5171 17.6764 28.549 17.7833 28.5616 17.8921C28.5729 17.9888 28.5727 18.0863 28.5612 18.1829C28.5484 18.2918 28.5162 18.3985 28.4519 18.612Z" stroke="white" stroke-width="2" stroke-linecap="round" stroke-linejoin="round"/>
<defs>
<linearGradient id="paint0_linear_238_741" x1="0" y1="18" x2="62" y2="18" gradientUnits="userSpaceOnUse">
<stop stop-color="#4F78DA"/>
<stop offset="1" stop-color="#339003"/>
</linearGradient>
</defs>
</svg>
