<svg width="315" height="58" viewBox="0 0 315 58" fill="none" xmlns="http://www.w3.org/2000/svg">
<path d="M0.856534 14V2.36364H8.15199V3.875H2.61222V7.42045H7.77131V8.92614H2.61222V12.4886H8.22017V14H0.856534ZM12.0597 8.81818V14H10.3608V5.27273H11.9915V6.69318H12.0994C12.3002 6.23106 12.6146 5.85985 13.0426 5.57955C13.4744 5.29924 14.018 5.15909 14.6733 5.15909C15.268 5.15909 15.7888 5.28409 16.2358 5.53409C16.6828 5.7803 17.0294 6.14773 17.2756 6.63636C17.5218 7.125 17.6449 7.72917 17.6449 8.44886V14H15.946V8.65341C15.946 8.02083 15.7813 7.52652 15.4517 7.17045C15.1222 6.81061 14.6695 6.63068 14.0938 6.63068C13.6998 6.63068 13.3494 6.71591 13.0426 6.88636C12.7396 7.05682 12.4991 7.30682 12.321 7.63636C12.1468 7.96212 12.0597 8.35606 12.0597 8.81818ZM19.9233 5.27273H21.6222V14.5682C21.6222 15.1515 21.5161 15.6439 21.304 16.0455C21.0956 16.447 20.785 16.7519 20.3722 16.9602C19.9631 17.1686 19.4574 17.2727 18.8551 17.2727C18.7945 17.2727 18.7377 17.2727 18.6847 17.2727C18.6278 17.2727 18.5691 17.2708 18.5085 17.267V15.8068C18.5616 15.8068 18.6089 15.8068 18.6506 15.8068C18.6884 15.8068 18.732 15.8068 18.7812 15.8068C19.1828 15.8068 19.4725 15.6989 19.6506 15.483C19.8324 15.2708 19.9233 14.9621 19.9233 14.5568V5.27273ZM20.7642 3.92614C20.4688 3.92614 20.215 3.82765 20.0028 3.63068C19.7945 3.42992 19.6903 3.19129 19.6903 2.91477C19.6903 2.63447 19.7945 2.39583 20.0028 2.19886C20.215 1.99811 20.4688 1.89773 20.7642 1.89773C21.0597 1.89773 21.3116 1.99811 21.5199 2.19886C21.732 2.39583 21.8381 2.63447 21.8381 2.91477C21.8381 3.19129 21.732 3.42992 21.5199 3.63068C21.3116 3.82765 21.0597 3.92614 20.7642 3.92614ZM27.5838 14.1761C26.7656 14.1761 26.0516 13.9886 25.4418 13.6136C24.8319 13.2386 24.3584 12.714 24.0213 12.0398C23.6842 11.3655 23.5156 10.5777 23.5156 9.67614C23.5156 8.77083 23.6842 7.97917 24.0213 7.30114C24.3584 6.62311 24.8319 6.09659 25.4418 5.72159C26.0516 5.34659 26.7656 5.15909 27.5838 5.15909C28.402 5.15909 29.116 5.34659 29.7259 5.72159C30.3357 6.09659 30.8092 6.62311 31.1463 7.30114C31.4834 7.97917 31.652 8.77083 31.652 9.67614C31.652 10.5777 31.4834 11.3655 31.1463 12.0398C30.8092 12.714 30.3357 13.2386 29.7259 13.6136C29.116 13.9886 28.402 14.1761 27.5838 14.1761ZM27.5895 12.75C28.1198 12.75 28.5592 12.6098 28.9077 12.3295C29.2562 12.0492 29.5137 11.6761 29.6804 11.2102C29.8509 10.7443 29.9361 10.2311 29.9361 9.67045C29.9361 9.11364 29.8509 8.60227 29.6804 8.13636C29.5137 7.66667 29.2562 7.28977 28.9077 7.00568C28.5592 6.72159 28.1198 6.57955 27.5895 6.57955C27.0554 6.57955 26.6122 6.72159 26.2599 7.00568C25.9115 7.28977 25.652 7.66667 25.4815 8.13636C25.3149 8.60227 25.2315 9.11364 25.2315 9.67045C25.2315 10.2311 25.3149 10.7443 25.4815 11.2102C25.652 11.6761 25.9115 12.0492 26.2599 12.3295C26.6122 12.6098 27.0554 12.75 27.5895 12.75ZM34.3253 17.2727C34.0715 17.2727 33.8404 17.2519 33.6321 17.2102C33.4238 17.1723 33.2685 17.1307 33.1662 17.0852L33.5753 15.6932C33.8859 15.7765 34.1624 15.8125 34.4048 15.8011C34.6473 15.7898 34.8613 15.6989 35.0469 15.5284C35.2363 15.358 35.4029 15.0795 35.5469 14.6932L35.7571 14.1136L32.5639 5.27273H34.3821L36.5923 12.0455H36.6832L38.8935 5.27273H40.7173L37.1207 15.1648C36.9541 15.6193 36.742 16.0038 36.4844 16.3182C36.2268 16.6364 35.92 16.875 35.5639 17.0341C35.2079 17.1932 34.795 17.2727 34.3253 17.2727ZM265.291 14.1932C264.738 14.1932 264.238 14.0909 263.791 13.8864C263.344 13.678 262.99 13.3769 262.729 12.983C262.471 12.589 262.342 12.1061 262.342 11.5341C262.342 11.0417 262.437 10.6364 262.626 10.3182C262.816 10 263.071 9.74811 263.393 9.5625C263.715 9.37689 264.075 9.23674 264.473 9.14205C264.871 9.04735 265.276 8.97538 265.689 8.92614C266.212 8.86553 266.636 8.81629 266.962 8.77841C267.287 8.73674 267.524 8.67045 267.672 8.57955C267.82 8.48864 267.893 8.34091 267.893 8.13636V8.09659C267.893 7.60038 267.753 7.21591 267.473 6.94318C267.196 6.67045 266.784 6.53409 266.234 6.53409C265.662 6.53409 265.212 6.66098 264.882 6.91477C264.556 7.16477 264.331 7.44318 264.206 7.75L262.609 7.38636C262.799 6.85606 263.075 6.42803 263.439 6.10227C263.806 5.77273 264.229 5.53409 264.706 5.38636C265.183 5.23485 265.685 5.15909 266.212 5.15909C266.56 5.15909 266.929 5.20076 267.32 5.28409C267.714 5.36364 268.081 5.51136 268.422 5.72727C268.767 5.94318 269.049 6.25189 269.268 6.65341C269.488 7.05114 269.598 7.56818 269.598 8.20455V14H267.939V12.8068H267.871C267.761 13.0265 267.596 13.2424 267.376 13.4545C267.157 13.6667 266.875 13.8428 266.53 13.983C266.185 14.1231 265.772 14.1932 265.291 14.1932ZM265.661 12.8295C266.13 12.8295 266.532 12.7367 266.865 12.5511C267.202 12.3655 267.458 12.1231 267.632 11.8239C267.81 11.5208 267.899 11.197 267.899 10.8523V9.72727C267.839 9.78788 267.721 9.8447 267.547 9.89773C267.376 9.94697 267.181 9.99053 266.962 10.0284C266.742 10.0625 266.528 10.0947 266.32 10.125C266.111 10.1515 265.937 10.1742 265.797 10.1932C265.467 10.2348 265.166 10.3049 264.893 10.4034C264.625 10.5019 264.409 10.6439 264.246 10.8295C264.087 11.0114 264.007 11.2538 264.007 11.5568C264.007 11.9773 264.162 12.2955 264.473 12.5114C264.784 12.7235 265.179 12.8295 265.661 12.8295ZM275.537 14.1761C274.692 14.1761 273.965 13.9848 273.355 13.6023C272.749 13.2159 272.283 12.6837 271.957 12.0057C271.632 11.3277 271.469 10.5511 271.469 9.67614C271.469 8.78977 271.635 8.00758 271.969 7.32955C272.302 6.64773 272.772 6.11553 273.378 5.73295C273.984 5.35038 274.698 5.15909 275.52 5.15909C276.183 5.15909 276.774 5.2822 277.293 5.52841C277.812 5.77083 278.23 6.11174 278.548 6.55114C278.87 6.99053 279.062 7.50379 279.122 8.09091H277.469C277.378 7.68182 277.17 7.32955 276.844 7.03409C276.522 6.73864 276.09 6.59091 275.548 6.59091C275.075 6.59091 274.66 6.71591 274.304 6.96591C273.952 7.21212 273.677 7.56439 273.48 8.02273C273.283 8.47727 273.185 9.01515 273.185 9.63636C273.185 10.2727 273.281 10.822 273.474 11.2841C273.668 11.7462 273.94 12.1042 274.293 12.358C274.649 12.6117 275.067 12.7386 275.548 12.7386C275.87 12.7386 276.162 12.6799 276.423 12.5625C276.688 12.4413 276.91 12.2689 277.088 12.0455C277.27 11.822 277.397 11.553 277.469 11.2386H279.122C279.062 11.803 278.878 12.3068 278.571 12.75C278.264 13.1932 277.853 13.5417 277.338 13.7955C276.827 14.0492 276.226 14.1761 275.537 14.1761ZM284.615 14.1761C283.77 14.1761 283.043 13.9848 282.433 13.6023C281.827 13.2159 281.361 12.6837 281.036 12.0057C280.71 11.3277 280.547 10.5511 280.547 9.67614C280.547 8.78977 280.714 8.00758 281.047 7.32955C281.38 6.64773 281.85 6.11553 282.456 5.73295C283.062 5.35038 283.776 5.15909 284.598 5.15909C285.261 5.15909 285.852 5.2822 286.371 5.52841C286.89 5.77083 287.308 6.11174 287.626 6.55114C287.948 6.99053 288.14 7.50379 288.2 8.09091H286.547C286.456 7.68182 286.248 7.32955 285.922 7.03409C285.6 6.73864 285.168 6.59091 284.626 6.59091C284.153 6.59091 283.738 6.71591 283.382 6.96591C283.03 7.21212 282.755 7.56439 282.558 8.02273C282.361 8.47727 282.263 9.01515 282.263 9.63636C282.263 10.2727 282.359 10.822 282.553 11.2841C282.746 11.7462 283.018 12.1042 283.371 12.358C283.727 12.6117 284.145 12.7386 284.626 12.7386C284.948 12.7386 285.24 12.6799 285.501 12.5625C285.767 12.4413 285.988 12.2689 286.166 12.0455C286.348 11.822 286.475 11.553 286.547 11.2386H288.2C288.14 11.803 287.956 12.3068 287.649 12.75C287.342 13.1932 286.931 13.5417 286.416 13.7955C285.905 14.0492 285.304 14.1761 284.615 14.1761ZM293.778 14.1761C292.919 14.1761 292.178 13.9924 291.557 13.625C290.939 13.2538 290.462 12.733 290.125 12.0625C289.792 11.3883 289.625 10.5985 289.625 9.69318C289.625 8.79924 289.792 8.01136 290.125 7.32955C290.462 6.64773 290.932 6.11553 291.534 5.73295C292.14 5.35038 292.848 5.15909 293.659 5.15909C294.152 5.15909 294.629 5.24053 295.091 5.40341C295.553 5.56629 295.968 5.82197 296.335 6.17045C296.703 6.51894 296.992 6.97159 297.205 7.52841C297.417 8.08144 297.523 8.75379 297.523 9.54545V10.1477H290.585V8.875H295.858C295.858 8.42803 295.767 8.0322 295.585 7.6875C295.403 7.33902 295.148 7.06439 294.818 6.86364C294.492 6.66288 294.11 6.5625 293.67 6.5625C293.193 6.5625 292.777 6.67992 292.42 6.91477C292.068 7.14583 291.795 7.44886 291.602 7.82386C291.413 8.19508 291.318 8.59848 291.318 9.03409V10.0284C291.318 10.6117 291.42 11.108 291.625 11.517C291.833 11.9261 292.123 12.2386 292.494 12.4545C292.866 12.6667 293.299 12.7727 293.795 12.7727C294.117 12.7727 294.411 12.7273 294.676 12.6364C294.941 12.5417 295.17 12.4015 295.364 12.2159C295.557 12.0303 295.705 11.8011 295.807 11.5284L297.415 11.8182C297.286 12.2917 297.055 12.7064 296.722 13.0625C296.392 13.4148 295.977 13.6894 295.477 13.8864C294.981 14.0795 294.415 14.1761 293.778 14.1761ZM305.947 7.40341L304.408 7.67614C304.343 7.47917 304.241 7.29167 304.101 7.11364C303.964 6.93561 303.779 6.78977 303.544 6.67614C303.309 6.5625 303.016 6.50568 302.663 6.50568C302.182 6.50568 301.781 6.61364 301.459 6.82955C301.137 7.04167 300.976 7.31629 300.976 7.65341C300.976 7.94508 301.084 8.17992 301.3 8.35795C301.516 8.53598 301.864 8.68182 302.345 8.79545L303.732 9.11364C304.535 9.29924 305.133 9.58523 305.527 9.97159C305.921 10.358 306.118 10.8598 306.118 11.4773C306.118 12 305.966 12.4659 305.663 12.875C305.364 13.2803 304.946 13.5985 304.408 13.8295C303.874 14.0606 303.254 14.1761 302.55 14.1761C301.572 14.1761 300.775 13.9678 300.158 13.5511C299.54 13.1307 299.161 12.5341 299.021 11.7614L300.663 11.5114C300.766 11.9394 300.976 12.2633 301.294 12.483C301.612 12.6989 302.027 12.8068 302.538 12.8068C303.095 12.8068 303.54 12.6913 303.874 12.4602C304.207 12.2254 304.374 11.9394 304.374 11.6023C304.374 11.3295 304.271 11.1004 304.067 10.9148C303.866 10.7292 303.557 10.589 303.141 10.4943L301.663 10.1705C300.849 9.98485 300.247 9.68939 299.857 9.28409C299.47 8.87879 299.277 8.36553 299.277 7.74432C299.277 7.22917 299.421 6.77841 299.709 6.39205C299.997 6.00568 300.394 5.70455 300.902 5.48864C301.41 5.26894 301.991 5.15909 302.646 5.15909C303.589 5.15909 304.332 5.36364 304.874 5.77273C305.415 6.17803 305.773 6.72159 305.947 7.40341ZM314.526 7.40341L312.986 7.67614C312.921 7.47917 312.819 7.29167 312.679 7.11364C312.543 6.93561 312.357 6.78977 312.122 6.67614C311.887 6.5625 311.594 6.50568 311.241 6.50568C310.76 6.50568 310.359 6.61364 310.037 6.82955C309.715 7.04167 309.554 7.31629 309.554 7.65341C309.554 7.94508 309.662 8.17992 309.878 8.35795C310.094 8.53598 310.442 8.68182 310.923 8.79545L312.31 9.11364C313.113 9.29924 313.711 9.58523 314.105 9.97159C314.499 10.358 314.696 10.8598 314.696 11.4773C314.696 12 314.545 12.4659 314.241 12.875C313.942 13.2803 313.524 13.5985 312.986 13.8295C312.452 14.0606 311.832 14.1761 311.128 14.1761C310.151 14.1761 309.353 13.9678 308.736 13.5511C308.118 13.1307 307.74 12.5341 307.599 11.7614L309.241 11.5114C309.344 11.9394 309.554 12.2633 309.872 12.483C310.19 12.6989 310.605 12.8068 311.116 12.8068C311.673 12.8068 312.118 12.6913 312.452 12.4602C312.785 12.2254 312.952 11.9394 312.952 11.6023C312.952 11.3295 312.849 11.1004 312.645 10.9148C312.444 10.7292 312.135 10.589 311.719 10.4943L310.241 10.1705C309.427 9.98485 308.825 9.68939 308.435 9.28409C308.048 8.87879 307.855 8.36553 307.855 7.74432C307.855 7.22917 307.999 6.77841 308.287 6.39205C308.575 6.00568 308.973 5.70455 309.48 5.48864C309.988 5.26894 310.569 5.15909 311.224 5.15909C312.168 5.15909 312.91 5.36364 313.452 5.77273C313.993 6.17803 314.351 6.72159 314.526 7.40341ZM11.1065 24.2727V25.6364H6.33949V24.2727H11.1065ZM7.6179 22.1818H9.31676V30.4375C9.31676 30.767 9.366 31.0152 9.46449 31.1818C9.56297 31.3447 9.68987 31.4564 9.84517 31.517C10.0043 31.5739 10.1766 31.6023 10.3622 31.6023C10.4986 31.6023 10.6179 31.5928 10.7202 31.5739C10.8224 31.5549 10.902 31.5398 10.9588 31.5284L11.2656 32.9318C11.1671 32.9697 11.027 33.0076 10.8452 33.0455C10.6634 33.0871 10.4361 33.1098 10.1634 33.1136C9.71638 33.1212 9.29972 33.0417 8.91335 32.875C8.52699 32.7083 8.21449 32.4508 7.97585 32.1023C7.73722 31.7538 7.6179 31.3163 7.6179 30.7898V22.1818ZM16.5682 33.1761C15.75 33.1761 15.036 32.9886 14.4261 32.6136C13.8163 32.2386 13.3428 31.714 13.0057 31.0398C12.6686 30.3655 12.5 29.5777 12.5 28.6761C12.5 27.7708 12.6686 26.9792 13.0057 26.3011C13.3428 25.6231 13.8163 25.0966 14.4261 24.7216C15.036 24.3466 15.75 24.1591 16.5682 24.1591C17.3864 24.1591 18.1004 24.3466 18.7102 24.7216C19.3201 25.0966 19.7936 25.6231 20.1307 26.3011C20.4678 26.9792 20.6364 27.7708 20.6364 28.6761C20.6364 29.5777 20.4678 30.3655 20.1307 31.0398C19.7936 31.714 19.3201 32.2386 18.7102 32.6136C18.1004 32.9886 17.3864 33.1761 16.5682 33.1761ZM16.5739 31.75C17.1042 31.75 17.5436 31.6098 17.892 31.3295C18.2405 31.0492 18.4981 30.6761 18.6648 30.2102C18.8352 29.7443 18.9205 29.2311 18.9205 28.6705C18.9205 28.1136 18.8352 27.6023 18.6648 27.1364C18.4981 26.6667 18.2405 26.2898 17.892 26.0057C17.5436 25.7216 17.1042 25.5795 16.5739 25.5795C16.0398 25.5795 15.5966 25.7216 15.2443 26.0057C14.8958 26.2898 14.6364 26.6667 14.4659 27.1364C14.2992 27.6023 14.2159 28.1136 14.2159 28.6705C14.2159 29.2311 14.2992 29.7443 14.4659 30.2102C14.6364 30.6761 14.8958 31.0492 15.2443 31.3295C15.5966 31.6098 16.0398 31.75 16.5739 31.75ZM26.767 36.2727V24.2727H28.4261V25.6875H28.5682C28.6667 25.5057 28.8087 25.2955 28.9943 25.0568C29.1799 24.8182 29.4375 24.6098 29.767 24.4318C30.0966 24.25 30.5322 24.1591 31.0739 24.1591C31.7784 24.1591 32.4072 24.3371 32.9602 24.6932C33.5133 25.0492 33.947 25.5625 34.2614 26.233C34.5795 26.9034 34.7386 27.7102 34.7386 28.6534C34.7386 29.5966 34.5814 30.4053 34.267 31.0795C33.9527 31.75 33.5208 32.267 32.9716 32.6307C32.4223 32.9905 31.7955 33.1705 31.0909 33.1705C30.5606 33.1705 30.1269 33.0814 29.7898 32.9034C29.4564 32.7254 29.1951 32.517 29.0057 32.2784C28.8163 32.0398 28.6705 31.8277 28.5682 31.642H28.4659V36.2727H26.767ZM28.4318 28.6364C28.4318 29.25 28.5208 29.7879 28.6989 30.25C28.8769 30.7121 29.1345 31.0739 29.4716 31.3352C29.8087 31.5928 30.2216 31.7216 30.7102 31.7216C31.2178 31.7216 31.642 31.5871 31.983 31.3182C32.3239 31.0455 32.5814 30.6761 32.7557 30.2102C32.9337 29.7443 33.0227 29.2197 33.0227 28.6364C33.0227 28.0606 32.9356 27.5436 32.7614 27.0852C32.5909 26.6269 32.3333 26.2652 31.9886 26C31.6477 25.7348 31.2216 25.6023 30.7102 25.6023C30.2178 25.6023 29.8011 25.7292 29.4602 25.983C29.1231 26.2367 28.8674 26.5909 28.6932 27.0455C28.5189 27.5 28.4318 28.0303 28.4318 28.6364ZM40.3182 33.1761C39.5 33.1761 38.786 32.9886 38.1761 32.6136C37.5663 32.2386 37.0928 31.714 36.7557 31.0398C36.4186 30.3655 36.25 29.5777 36.25 28.6761C36.25 27.7708 36.4186 26.9792 36.7557 26.3011C37.0928 25.6231 37.5663 25.0966 38.1761 24.7216C38.786 24.3466 39.5 24.1591 40.3182 24.1591C41.1364 24.1591 41.8504 24.3466 42.4602 24.7216C43.0701 25.0966 43.5436 25.6231 43.8807 26.3011C44.2178 26.9792 44.3864 27.7708 44.3864 28.6761C44.3864 29.5777 44.2178 30.3655 43.8807 31.0398C43.5436 31.714 43.0701 32.2386 42.4602 32.6136C41.8504 32.9886 41.1364 33.1761 40.3182 33.1761ZM40.3239 31.75C40.8542 31.75 41.2936 31.6098 41.642 31.3295C41.9905 31.0492 42.2481 30.6761 42.4148 30.2102C42.5852 29.7443 42.6705 29.2311 42.6705 28.6705C42.6705 28.1136 42.5852 27.6023 42.4148 27.1364C42.2481 26.6667 41.9905 26.2898 41.642 26.0057C41.2936 25.7216 40.8542 25.5795 40.3239 25.5795C39.7898 25.5795 39.3466 25.7216 38.9943 26.0057C38.6458 26.2898 38.3864 26.6667 38.2159 27.1364C38.0492 27.6023 37.9659 28.1136 37.9659 28.6705C37.9659 29.2311 38.0492 29.7443 38.2159 30.2102C38.3864 30.6761 38.6458 31.0492 38.9943 31.3295C39.3466 31.6098 39.7898 31.75 40.3239 31.75ZM52.8224 26.4034L51.2827 26.6761C51.2183 26.4792 51.116 26.2917 50.9759 26.1136C50.8395 25.9356 50.6539 25.7898 50.419 25.6761C50.1842 25.5625 49.8906 25.5057 49.5384 25.5057C49.0573 25.5057 48.6558 25.6136 48.3338 25.8295C48.0118 26.0417 47.8509 26.3163 47.8509 26.6534C47.8509 26.9451 47.9588 27.1799 48.1747 27.358C48.3906 27.536 48.7391 27.6818 49.2202 27.7955L50.6065 28.1136C51.4096 28.2992 52.008 28.5852 52.402 28.9716C52.7959 29.358 52.9929 29.8598 52.9929 30.4773C52.9929 31 52.8414 31.4659 52.5384 31.875C52.2391 32.2803 51.8205 32.5985 51.2827 32.8295C50.7486 33.0606 50.1293 33.1761 49.4247 33.1761C48.4474 33.1761 47.6501 32.9678 47.0327 32.5511C46.4152 32.1307 46.0365 31.5341 45.8963 30.7614L47.5384 30.5114C47.6406 30.9394 47.8509 31.2633 48.169 31.483C48.4872 31.6989 48.902 31.8068 49.4134 31.8068C49.9702 31.8068 50.4152 31.6913 50.7486 31.4602C51.0819 31.2254 51.2486 30.9394 51.2486 30.6023C51.2486 30.3295 51.1463 30.1004 50.9418 29.9148C50.741 29.7292 50.4323 29.589 50.0156 29.4943L48.5384 29.1705C47.724 28.9848 47.1217 28.6894 46.7315 28.2841C46.3452 27.8788 46.152 27.3655 46.152 26.7443C46.152 26.2292 46.2959 25.7784 46.5838 25.392C46.8717 25.0057 47.2694 24.7045 47.777 24.4886C48.2846 24.2689 48.866 24.1591 49.5213 24.1591C50.4645 24.1591 51.2069 24.3636 51.7486 24.7727C52.2902 25.178 52.6482 25.7216 52.8224 26.4034ZM58.9347 24.2727V25.6364H54.1676V24.2727H58.9347ZM55.446 22.1818H57.1449V30.4375C57.1449 30.767 57.1941 31.0152 57.2926 31.1818C57.3911 31.3447 57.518 31.4564 57.6733 31.517C57.8324 31.5739 58.0047 31.6023 58.1903 31.6023C58.3267 31.6023 58.446 31.5928 58.5483 31.5739C58.6506 31.5549 58.7301 31.5398 58.7869 31.5284L59.0938 32.9318C58.9953 32.9697 58.8551 33.0076 58.6733 33.0455C58.4915 33.0871 58.2642 33.1098 57.9915 33.1136C57.5445 33.1212 57.1278 33.0417 56.7415 32.875C56.3551 32.7083 56.0426 32.4508 55.804 32.1023C55.5653 31.7538 55.446 31.3163 55.446 30.7898V22.1818ZM70.5767 29.3807V24.2727H72.2812V33H70.6108V31.4886H70.5199C70.3191 31.9545 69.9972 32.3428 69.554 32.6534C69.1146 32.9602 68.5672 33.1136 67.9119 33.1136C67.3513 33.1136 66.8551 32.9905 66.4233 32.7443C65.9953 32.4943 65.6581 32.125 65.4119 31.6364C65.1695 31.1477 65.0483 30.5436 65.0483 29.8239V24.2727H66.7472V29.6193C66.7472 30.214 66.9119 30.6875 67.2415 31.0398C67.571 31.392 67.9991 31.5682 68.5256 31.5682C68.8438 31.5682 69.16 31.4886 69.4744 31.3295C69.7926 31.1705 70.0559 30.9299 70.2642 30.608C70.4763 30.286 70.5805 29.8769 70.5767 29.3807ZM76.2628 27.8182V33H74.5639V24.2727H76.1946V25.6932H76.3026C76.5033 25.2311 76.8177 24.8598 77.2457 24.5795C77.6776 24.2992 78.2211 24.1591 78.8764 24.1591C79.4711 24.1591 79.992 24.2841 80.4389 24.5341C80.8859 24.7803 81.2325 25.1477 81.4787 25.6364C81.7249 26.125 81.848 26.7292 81.848 27.4489V33H80.1491V27.6534C80.1491 27.0208 79.9844 26.5265 79.6548 26.1705C79.3253 25.8106 78.8726 25.6307 78.2969 25.6307C77.9029 25.6307 77.5526 25.7159 77.2457 25.8864C76.9427 26.0568 76.7022 26.3068 76.5241 26.6364C76.3499 26.9621 76.2628 27.3561 76.2628 27.8182ZM85.8253 21.3636V33H84.1264V21.3636H85.8253ZM88.1108 33V24.2727H89.8097V33H88.1108ZM88.9688 22.9261C88.6733 22.9261 88.4195 22.8277 88.2074 22.6307C87.9991 22.4299 87.8949 22.1913 87.8949 21.9148C87.8949 21.6345 87.9991 21.3958 88.2074 21.1989C88.4195 20.9981 88.6733 20.8977 88.9688 20.8977C89.2642 20.8977 89.5161 20.9981 89.7244 21.1989C89.9366 21.3958 90.0426 21.6345 90.0426 21.9148C90.0426 22.1913 89.9366 22.4299 89.7244 22.6307C89.5161 22.8277 89.2642 22.9261 88.9688 22.9261ZM92.0952 33V24.2727H93.7259V25.6932H93.8338C94.0156 25.2121 94.313 24.8371 94.7259 24.5682C95.1387 24.2955 95.633 24.1591 96.2088 24.1591C96.7921 24.1591 97.2808 24.2955 97.6747 24.5682C98.0724 24.8409 98.366 25.2159 98.5554 25.6932H98.6463C98.8546 25.2273 99.1861 24.8561 99.6406 24.5795C100.095 24.2992 100.637 24.1591 101.266 24.1591C102.057 24.1591 102.703 24.4072 103.203 24.9034C103.707 25.3996 103.959 26.1477 103.959 27.1477V33H102.26V27.3068C102.26 26.7159 102.099 26.2879 101.777 26.0227C101.455 25.7576 101.071 25.625 100.624 25.625C100.071 25.625 99.6406 25.7955 99.3338 26.1364C99.027 26.4735 98.8736 26.9072 98.8736 27.4375V33H97.1804V27.1989C97.1804 26.7254 97.0327 26.3447 96.7372 26.0568C96.4418 25.7689 96.0573 25.625 95.5838 25.625C95.2618 25.625 94.9645 25.7102 94.6918 25.8807C94.4228 26.0473 94.205 26.2803 94.0384 26.5795C93.8755 26.8788 93.794 27.2254 93.794 27.6193V33H92.0952ZM106.236 33V24.2727H107.935V33H106.236ZM107.094 22.9261C106.798 22.9261 106.545 22.8277 106.332 22.6307C106.124 22.4299 106.02 22.1913 106.02 21.9148C106.02 21.6345 106.124 21.3958 106.332 21.1989C106.545 20.9981 106.798 20.8977 107.094 20.8977C107.389 20.8977 107.641 20.9981 107.849 21.1989C108.062 21.3958 108.168 21.6345 108.168 21.9148C108.168 22.1913 108.062 22.4299 107.849 22.6307C107.641 22.8277 107.389 22.9261 107.094 22.9261ZM114.294 24.2727V25.6364H109.527V24.2727H114.294ZM110.805 22.1818H112.504V30.4375C112.504 30.767 112.554 31.0152 112.652 31.1818C112.75 31.3447 112.877 31.4564 113.033 31.517C113.192 31.5739 113.364 31.6023 113.55 31.6023C113.686 31.6023 113.805 31.5928 113.908 31.5739C114.01 31.5549 114.089 31.5398 114.146 31.5284L114.453 32.9318C114.355 32.9697 114.214 33.0076 114.033 33.0455C113.851 33.0871 113.624 33.1098 113.351 33.1136C112.904 33.1212 112.487 33.0417 112.101 32.875C111.714 32.7083 111.402 32.4508 111.163 32.1023C110.925 31.7538 110.805 31.3163 110.805 30.7898V22.1818ZM119.841 33.1761C118.981 33.1761 118.241 32.9924 117.619 32.625C117.002 32.2538 116.525 31.733 116.188 31.0625C115.854 30.3883 115.688 29.5985 115.688 28.6932C115.688 27.7992 115.854 27.0114 116.188 26.3295C116.525 25.6477 116.994 25.1155 117.597 24.733C118.203 24.3504 118.911 24.1591 119.722 24.1591C120.214 24.1591 120.691 24.2405 121.153 24.4034C121.616 24.5663 122.03 24.822 122.398 25.1705C122.765 25.5189 123.055 25.9716 123.267 26.5284C123.479 27.0814 123.585 27.7538 123.585 28.5455V29.1477H116.648V27.875H121.92C121.92 27.428 121.83 27.0322 121.648 26.6875C121.466 26.339 121.21 26.0644 120.881 25.8636C120.555 25.6629 120.172 25.5625 119.733 25.5625C119.256 25.5625 118.839 25.6799 118.483 25.9148C118.131 26.1458 117.858 26.4489 117.665 26.8239C117.475 27.1951 117.381 27.5985 117.381 28.0341V29.0284C117.381 29.6117 117.483 30.108 117.688 30.517C117.896 30.9261 118.186 31.2386 118.557 31.4545C118.928 31.6667 119.362 31.7727 119.858 31.7727C120.18 31.7727 120.473 31.7273 120.739 31.6364C121.004 31.5417 121.233 31.4015 121.426 31.2159C121.619 31.0303 121.767 30.8011 121.869 30.5284L123.477 30.8182C123.348 31.2917 123.117 31.7064 122.784 32.0625C122.455 32.4148 122.04 32.6894 121.54 32.8864C121.044 33.0795 120.477 33.1761 119.841 33.1761ZM128.737 33.1705C128.033 33.1705 127.404 32.9905 126.851 32.6307C126.302 32.267 125.87 31.75 125.555 31.0795C125.245 30.4053 125.089 29.5966 125.089 28.6534C125.089 27.7102 125.247 26.9034 125.561 26.233C125.879 25.5625 126.315 25.0492 126.868 24.6932C127.421 24.3371 128.048 24.1591 128.749 24.1591C129.29 24.1591 129.726 24.25 130.055 24.4318C130.389 24.6098 130.646 24.8182 130.828 25.0568C131.014 25.2955 131.158 25.5057 131.26 25.6875H131.362V21.3636H133.061V33H131.402V31.642H131.26C131.158 31.8277 131.01 32.0398 130.817 32.2784C130.627 32.517 130.366 32.7254 130.033 32.9034C129.699 33.0814 129.268 33.1705 128.737 33.1705ZM129.112 31.7216C129.601 31.7216 130.014 31.5928 130.351 31.3352C130.692 31.0739 130.949 30.7121 131.124 30.25C131.302 29.7879 131.391 29.25 131.391 28.6364C131.391 28.0303 131.304 27.5 131.129 27.0455C130.955 26.5909 130.699 26.2367 130.362 25.983C130.025 25.7292 129.608 25.6023 129.112 25.6023C128.601 25.6023 128.175 25.7348 127.834 26C127.493 26.2652 127.235 26.6269 127.061 27.0852C126.891 27.5436 126.805 28.0606 126.805 28.6364C126.805 29.2197 126.893 29.7443 127.067 30.2102C127.241 30.6761 127.499 31.0455 127.839 31.3182C128.184 31.5871 128.608 31.7216 129.112 31.7216ZM143.482 33.1761C142.622 33.1761 141.881 32.9924 141.26 32.625C140.643 32.2538 140.165 31.733 139.828 31.0625C139.495 30.3883 139.328 29.5985 139.328 28.6932C139.328 27.7992 139.495 27.0114 139.828 26.3295C140.165 25.6477 140.635 25.1155 141.237 24.733C141.843 24.3504 142.552 24.1591 143.362 24.1591C143.855 24.1591 144.332 24.2405 144.794 24.4034C145.256 24.5663 145.671 24.822 146.038 25.1705C146.406 25.5189 146.696 25.9716 146.908 26.5284C147.12 27.0814 147.226 27.7538 147.226 28.5455V29.1477H140.288V27.875H145.561C145.561 27.428 145.47 27.0322 145.288 26.6875C145.107 26.339 144.851 26.0644 144.521 25.8636C144.196 25.6629 143.813 25.5625 143.374 25.5625C142.896 25.5625 142.48 25.6799 142.124 25.9148C141.771 26.1458 141.499 26.4489 141.305 26.8239C141.116 27.1951 141.021 27.5985 141.021 28.0341V29.0284C141.021 29.6117 141.124 30.108 141.328 30.517C141.536 30.9261 141.826 31.2386 142.197 31.4545C142.569 31.6667 143.002 31.7727 143.499 31.7727C143.821 31.7727 144.114 31.7273 144.379 31.6364C144.644 31.5417 144.874 31.4015 145.067 31.2159C145.26 31.0303 145.408 30.8011 145.51 30.5284L147.118 30.8182C146.989 31.2917 146.758 31.7064 146.425 32.0625C146.095 32.4148 145.68 32.6894 145.18 32.8864C144.684 33.0795 144.118 33.1761 143.482 33.1761ZM156.327 24.2727L153.162 33H151.344L148.173 24.2727H149.997L152.207 30.9886H152.298L154.503 24.2727H156.327ZM161.388 33.1761C160.528 33.1761 159.787 32.9924 159.166 32.625C158.549 32.2538 158.071 31.733 157.734 31.0625C157.401 30.3883 157.234 29.5985 157.234 28.6932C157.234 27.7992 157.401 27.0114 157.734 26.3295C158.071 25.6477 158.541 25.1155 159.143 24.733C159.75 24.3504 160.458 24.1591 161.268 24.1591C161.761 24.1591 162.238 24.2405 162.7 24.4034C163.162 24.5663 163.577 24.822 163.945 25.1705C164.312 25.5189 164.602 25.9716 164.814 26.5284C165.026 27.0814 165.132 27.7538 165.132 28.5455V29.1477H158.195V27.875H163.467C163.467 27.428 163.376 27.0322 163.195 26.6875C163.013 26.339 162.757 26.0644 162.428 25.8636C162.102 25.6629 161.719 25.5625 161.28 25.5625C160.803 25.5625 160.386 25.6799 160.03 25.9148C159.678 26.1458 159.405 26.4489 159.212 26.8239C159.022 27.1951 158.928 27.5985 158.928 28.0341V29.0284C158.928 29.6117 159.03 30.108 159.234 30.517C159.443 30.9261 159.732 31.2386 160.104 31.4545C160.475 31.6667 160.909 31.7727 161.405 31.7727C161.727 31.7727 162.02 31.7273 162.286 31.6364C162.551 31.5417 162.78 31.4015 162.973 31.2159C163.166 31.0303 163.314 30.8011 163.416 30.5284L165.024 30.8182C164.895 31.2917 164.664 31.7064 164.331 32.0625C164.001 32.4148 163.587 32.6894 163.087 32.8864C162.59 33.0795 162.024 33.1761 161.388 33.1761ZM168.716 27.8182V33H167.017V24.2727H168.648V25.6932H168.756C168.956 25.2311 169.271 24.8598 169.699 24.5795C170.131 24.2992 170.674 24.1591 171.33 24.1591C171.924 24.1591 172.445 24.2841 172.892 24.5341C173.339 24.7803 173.686 25.1477 173.932 25.6364C174.178 26.125 174.301 26.7292 174.301 27.4489V33H172.602V27.6534C172.602 27.0208 172.438 26.5265 172.108 26.1705C171.778 25.8106 171.326 25.6307 170.75 25.6307C170.356 25.6307 170.006 25.7159 169.699 25.8864C169.396 26.0568 169.155 26.3068 168.977 26.6364C168.803 26.9621 168.716 27.3561 168.716 27.8182ZM180.653 24.2727V25.6364H175.886V24.2727H180.653ZM177.165 22.1818H178.864V30.4375C178.864 30.767 178.913 31.0152 179.011 31.1818C179.11 31.3447 179.237 31.4564 179.392 31.517C179.551 31.5739 179.723 31.6023 179.909 31.6023C180.045 31.6023 180.165 31.5928 180.267 31.5739C180.369 31.5549 180.449 31.5398 180.506 31.5284L180.812 32.9318C180.714 32.9697 180.574 33.0076 180.392 33.0455C180.21 33.0871 179.983 33.1098 179.71 33.1136C179.263 33.1212 178.847 33.0417 178.46 32.875C178.074 32.7083 177.761 32.4508 177.523 32.1023C177.284 31.7538 177.165 31.3163 177.165 30.7898V22.1818ZM188.932 26.4034L187.392 26.6761C187.328 26.4792 187.225 26.2917 187.085 26.1136C186.949 25.9356 186.763 25.7898 186.528 25.6761C186.294 25.5625 186 25.5057 185.648 25.5057C185.167 25.5057 184.765 25.6136 184.443 25.8295C184.121 26.0417 183.96 26.3163 183.96 26.6534C183.96 26.9451 184.068 27.1799 184.284 27.358C184.5 27.536 184.848 27.6818 185.33 27.7955L186.716 28.1136C187.519 28.2992 188.117 28.5852 188.511 28.9716C188.905 29.358 189.102 29.8598 189.102 30.4773C189.102 31 188.951 31.4659 188.648 31.875C188.348 32.2803 187.93 32.5985 187.392 32.8295C186.858 33.0606 186.239 33.1761 185.534 33.1761C184.557 33.1761 183.759 32.9678 183.142 32.5511C182.525 32.1307 182.146 31.5341 182.006 30.7614L183.648 30.5114C183.75 30.9394 183.96 31.2633 184.278 31.483C184.597 31.6989 185.011 31.8068 185.523 31.8068C186.08 31.8068 186.525 31.6913 186.858 31.4602C187.191 31.2254 187.358 30.9394 187.358 30.6023C187.358 30.3295 187.256 30.1004 187.051 29.9148C186.85 29.7292 186.542 29.589 186.125 29.4943L184.648 29.1705C183.833 28.9848 183.231 28.6894 182.841 28.2841C182.455 27.8788 182.261 27.3655 182.261 26.7443C182.261 26.2292 182.405 25.7784 182.693 25.392C182.981 25.0057 183.379 24.7045 183.886 24.4886C184.394 24.2689 184.975 24.1591 185.631 24.1591C186.574 24.1591 187.316 24.3636 187.858 24.7727C188.4 25.178 188.758 25.7216 188.932 26.4034ZM197.744 33.1932C197.191 33.1932 196.691 33.0909 196.244 32.8864C195.797 32.678 195.443 32.3769 195.182 31.983C194.924 31.589 194.795 31.1061 194.795 30.5341C194.795 30.0417 194.89 29.6364 195.08 29.3182C195.269 29 195.525 28.7481 195.847 28.5625C196.169 28.3769 196.528 28.2367 196.926 28.142C197.324 28.0473 197.729 27.9754 198.142 27.9261C198.665 27.8655 199.089 27.8163 199.415 27.7784C199.741 27.7367 199.977 27.6705 200.125 27.5795C200.273 27.4886 200.347 27.3409 200.347 27.1364V27.0966C200.347 26.6004 200.206 26.2159 199.926 25.9432C199.65 25.6705 199.237 25.5341 198.688 25.5341C198.116 25.5341 197.665 25.661 197.335 25.9148C197.009 26.1648 196.784 26.4432 196.659 26.75L195.062 26.3864C195.252 25.8561 195.528 25.428 195.892 25.1023C196.259 24.7727 196.682 24.5341 197.159 24.3864C197.636 24.2348 198.138 24.1591 198.665 24.1591C199.013 24.1591 199.383 24.2008 199.773 24.2841C200.167 24.3636 200.534 24.5114 200.875 24.7273C201.22 24.9432 201.502 25.2519 201.722 25.6534C201.941 26.0511 202.051 26.5682 202.051 27.2045V33H200.392V31.8068H200.324C200.214 32.0265 200.049 32.2424 199.83 32.4545C199.61 32.6667 199.328 32.8428 198.983 32.983C198.638 33.1231 198.225 33.1932 197.744 33.1932ZM198.114 31.8295C198.583 31.8295 198.985 31.7367 199.318 31.5511C199.655 31.3655 199.911 31.1231 200.085 30.8239C200.263 30.5208 200.352 30.197 200.352 29.8523V28.7273C200.292 28.7879 200.174 28.8447 200 28.8977C199.83 28.947 199.634 28.9905 199.415 29.0284C199.195 29.0625 198.981 29.0947 198.773 29.125C198.564 29.1515 198.39 29.1742 198.25 29.1932C197.92 29.2348 197.619 29.3049 197.347 29.4034C197.078 29.5019 196.862 29.6439 196.699 29.8295C196.54 30.0114 196.46 30.2538 196.46 30.5568C196.46 30.9773 196.616 31.2955 196.926 31.5114C197.237 31.7235 197.633 31.8295 198.114 31.8295ZM206.013 27.8182V33H204.314V24.2727H205.945V25.6932H206.053C206.253 25.2311 206.568 24.8598 206.996 24.5795C207.428 24.2992 207.971 24.1591 208.626 24.1591C209.221 24.1591 209.742 24.2841 210.189 24.5341C210.636 24.7803 210.982 25.1477 211.229 25.6364C211.475 26.125 211.598 26.7292 211.598 27.4489V33H209.899V27.6534C209.899 27.0208 209.734 26.5265 209.405 26.1705C209.075 25.8106 208.623 25.6307 208.047 25.6307C207.653 25.6307 207.303 25.7159 206.996 25.8864C206.693 26.0568 206.452 26.3068 206.274 26.6364C206.1 26.9621 206.013 27.3561 206.013 27.8182ZM217.143 33.1705C216.439 33.1705 215.81 32.9905 215.257 32.6307C214.708 32.267 214.276 31.75 213.962 31.0795C213.651 30.4053 213.496 29.5966 213.496 28.6534C213.496 27.7102 213.653 26.9034 213.967 26.233C214.286 25.5625 214.721 25.0492 215.274 24.6932C215.827 24.3371 216.454 24.1591 217.155 24.1591C217.696 24.1591 218.132 24.25 218.462 24.4318C218.795 24.6098 219.053 24.8182 219.234 25.0568C219.42 25.2955 219.564 25.5057 219.666 25.6875H219.768V21.3636H221.467V33H219.808V31.642H219.666C219.564 31.8277 219.416 32.0398 219.223 32.2784C219.034 32.517 218.772 32.7254 218.439 32.9034C218.106 33.0814 217.674 33.1705 217.143 33.1705ZM217.518 31.7216C218.007 31.7216 218.42 31.5928 218.757 31.3352C219.098 31.0739 219.356 30.7121 219.53 30.25C219.708 29.7879 219.797 29.25 219.797 28.6364C219.797 28.0303 219.71 27.5 219.536 27.0455C219.361 26.5909 219.106 26.2367 218.768 25.983C218.431 25.7292 218.015 25.6023 217.518 25.6023C217.007 25.6023 216.581 25.7348 216.24 26C215.899 26.2652 215.642 26.6269 215.467 27.0852C215.297 27.5436 215.212 28.0606 215.212 28.6364C215.212 29.2197 215.299 29.7443 215.473 30.2102C215.647 30.6761 215.905 31.0455 216.246 31.3182C216.59 31.5871 217.015 31.7216 217.518 31.7216ZM228.263 33V21.3636H229.962V25.6875H230.064C230.162 25.5057 230.304 25.2955 230.49 25.0568C230.676 24.8182 230.933 24.6098 231.263 24.4318C231.592 24.25 232.028 24.1591 232.57 24.1591C233.274 24.1591 233.903 24.3371 234.456 24.6932C235.009 25.0492 235.443 25.5625 235.757 26.233C236.075 26.9034 236.234 27.7102 236.234 28.6534C236.234 29.5966 236.077 30.4053 235.763 31.0795C235.448 31.75 235.017 32.267 234.467 32.6307C233.918 32.9905 233.291 33.1705 232.587 33.1705C232.056 33.1705 231.623 33.0814 231.286 32.9034C230.952 32.7254 230.691 32.517 230.501 32.2784C230.312 32.0398 230.166 31.8277 230.064 31.642H229.922V33H228.263ZM229.928 28.6364C229.928 29.25 230.017 29.7879 230.195 30.25C230.373 30.7121 230.63 31.0739 230.967 31.3352C231.304 31.5928 231.717 31.7216 232.206 31.7216C232.714 31.7216 233.138 31.5871 233.479 31.3182C233.82 31.0455 234.077 30.6761 234.251 30.2102C234.429 29.7443 234.518 29.2197 234.518 28.6364C234.518 28.0606 234.431 27.5436 234.257 27.0852C234.087 26.6269 233.829 26.2652 233.484 26C233.143 25.7348 232.717 25.6023 232.206 25.6023C231.714 25.6023 231.297 25.7292 230.956 25.983C230.619 26.2367 230.363 26.5909 230.189 27.0455C230.015 27.5 229.928 28.0303 229.928 28.6364ZM241.818 33.1761C241 33.1761 240.286 32.9886 239.676 32.6136C239.066 32.2386 238.593 31.714 238.256 31.0398C237.919 30.3655 237.75 29.5777 237.75 28.6761C237.75 27.7708 237.919 26.9792 238.256 26.3011C238.593 25.6231 239.066 25.0966 239.676 24.7216C240.286 24.3466 241 24.1591 241.818 24.1591C242.636 24.1591 243.35 24.3466 243.96 24.7216C244.57 25.0966 245.044 25.6231 245.381 26.3011C245.718 26.9792 245.886 27.7708 245.886 28.6761C245.886 29.5777 245.718 30.3655 245.381 31.0398C245.044 31.714 244.57 32.2386 243.96 32.6136C243.35 32.9886 242.636 33.1761 241.818 33.1761ZM241.824 31.75C242.354 31.75 242.794 31.6098 243.142 31.3295C243.491 31.0492 243.748 30.6761 243.915 30.2102C244.085 29.7443 244.17 29.2311 244.17 28.6705C244.17 28.1136 244.085 27.6023 243.915 27.1364C243.748 26.6667 243.491 26.2898 243.142 26.0057C242.794 25.7216 242.354 25.5795 241.824 25.5795C241.29 25.5795 240.847 25.7216 240.494 26.0057C240.146 26.2898 239.886 26.6667 239.716 27.1364C239.549 27.6023 239.466 28.1136 239.466 28.6705C239.466 29.2311 239.549 29.7443 239.716 30.2102C239.886 30.6761 240.146 31.0492 240.494 31.3295C240.847 31.6098 241.29 31.75 241.824 31.75ZM251.459 33.1761C250.641 33.1761 249.927 32.9886 249.317 32.6136C248.707 32.2386 248.233 31.714 247.896 31.0398C247.559 30.3655 247.391 29.5777 247.391 28.6761C247.391 27.7708 247.559 26.9792 247.896 26.3011C248.233 25.6231 248.707 25.0966 249.317 24.7216C249.927 24.3466 250.641 24.1591 251.459 24.1591C252.277 24.1591 252.991 24.3466 253.601 24.7216C254.211 25.0966 254.684 25.6231 255.021 26.3011C255.358 26.9792 255.527 27.7708 255.527 28.6761C255.527 29.5777 255.358 30.3655 255.021 31.0398C254.684 31.714 254.211 32.2386 253.601 32.6136C252.991 32.9886 252.277 33.1761 251.459 33.1761ZM251.464 31.75C251.995 31.75 252.434 31.6098 252.783 31.3295C253.131 31.0492 253.389 30.6761 253.555 30.2102C253.726 29.7443 253.811 29.2311 253.811 28.6705C253.811 28.1136 253.726 27.6023 253.555 27.1364C253.389 26.6667 253.131 26.2898 252.783 26.0057C252.434 25.7216 251.995 25.5795 251.464 25.5795C250.93 25.5795 250.487 25.7216 250.135 26.0057C249.786 26.2898 249.527 26.6667 249.357 27.1364C249.19 27.6023 249.107 28.1136 249.107 28.6705C249.107 29.2311 249.19 29.7443 249.357 30.2102C249.527 30.6761 249.786 31.0492 250.135 31.3295C250.487 31.6098 250.93 31.75 251.464 31.75ZM263.963 26.4034L262.423 26.6761C262.359 26.4792 262.257 26.2917 262.116 26.1136C261.98 25.9356 261.795 25.7898 261.56 25.6761C261.325 25.5625 261.031 25.5057 260.679 25.5057C260.198 25.5057 259.796 25.6136 259.474 25.8295C259.152 26.0417 258.991 26.3163 258.991 26.6534C258.991 26.9451 259.099 27.1799 259.315 27.358C259.531 27.536 259.88 27.6818 260.361 27.7955L261.747 28.1136C262.55 28.2992 263.149 28.5852 263.543 28.9716C263.937 29.358 264.134 29.8598 264.134 30.4773C264.134 31 263.982 31.4659 263.679 31.875C263.38 32.2803 262.961 32.5985 262.423 32.8295C261.889 33.0606 261.27 33.1761 260.565 33.1761C259.588 33.1761 258.791 32.9678 258.173 32.5511C257.556 32.1307 257.177 31.5341 257.037 30.7614L258.679 30.5114C258.781 30.9394 258.991 31.2633 259.31 31.483C259.628 31.6989 260.043 31.8068 260.554 31.8068C261.111 31.8068 261.556 31.6913 261.889 31.4602C262.223 31.2254 262.389 30.9394 262.389 30.6023C262.389 30.3295 262.287 30.1004 262.082 29.9148C261.882 29.7292 261.573 29.589 261.156 29.4943L259.679 29.1705C258.865 28.9848 258.262 28.6894 257.872 28.2841C257.486 27.8788 257.293 27.3655 257.293 26.7443C257.293 26.2292 257.437 25.7784 257.724 25.392C258.012 25.0057 258.41 24.7045 258.918 24.4886C259.425 24.2689 260.007 24.1591 260.662 24.1591C261.605 24.1591 262.348 24.3636 262.889 24.7727C263.431 25.178 263.789 25.7216 263.963 26.4034ZM270.075 24.2727V25.6364H265.308V24.2727H270.075ZM266.587 22.1818H268.286V30.4375C268.286 30.767 268.335 31.0152 268.433 31.1818C268.532 31.3447 268.659 31.4564 268.814 31.517C268.973 31.5739 269.145 31.6023 269.331 31.6023C269.467 31.6023 269.587 31.5928 269.689 31.5739C269.791 31.5549 269.871 31.5398 269.928 31.5284L270.234 32.9318C270.136 32.9697 269.996 33.0076 269.814 33.0455C269.632 33.0871 269.405 33.1098 269.132 33.1136C268.685 33.1212 268.268 33.0417 267.882 32.875C267.496 32.7083 267.183 32.4508 266.945 32.1023C266.706 31.7538 266.587 31.3163 266.587 30.7898V22.1818ZM277.263 36.2727C277.009 36.2727 276.778 36.2519 276.57 36.2102C276.361 36.1723 276.206 36.1307 276.104 36.0852L276.513 34.6932C276.823 34.7765 277.1 34.8125 277.342 34.8011C277.585 34.7898 277.799 34.6989 277.984 34.5284C278.174 34.358 278.34 34.0795 278.484 33.6932L278.695 33.1136L275.501 24.2727H277.32L279.53 31.0455H279.621L281.831 24.2727H283.655L280.058 34.1648C279.892 34.6193 279.679 35.0038 279.422 35.3182C279.164 35.6364 278.857 35.875 278.501 36.0341C278.145 36.1932 277.732 36.2727 277.263 36.2727ZM288.631 33.1761C287.813 33.1761 287.098 32.9886 286.489 32.6136C285.879 32.2386 285.405 31.714 285.068 31.0398C284.731 30.3655 284.562 29.5777 284.562 28.6761C284.562 27.7708 284.731 26.9792 285.068 26.3011C285.405 25.6231 285.879 25.0966 286.489 24.7216C287.098 24.3466 287.813 24.1591 288.631 24.1591C289.449 24.1591 290.163 24.3466 290.773 24.7216C291.383 25.0966 291.856 25.6231 292.193 26.3011C292.53 26.9792 292.699 27.7708 292.699 28.6761C292.699 29.5777 292.53 30.3655 292.193 31.0398C291.856 31.714 291.383 32.2386 290.773 32.6136C290.163 32.9886 289.449 33.1761 288.631 33.1761ZM288.636 31.75C289.167 31.75 289.606 31.6098 289.955 31.3295C290.303 31.0492 290.561 30.6761 290.727 30.2102C290.898 29.7443 290.983 29.2311 290.983 28.6705C290.983 28.1136 290.898 27.6023 290.727 27.1364C290.561 26.6667 290.303 26.2898 289.955 26.0057C289.606 25.7216 289.167 25.5795 288.636 25.5795C288.102 25.5795 287.659 25.7216 287.307 26.0057C286.958 26.2898 286.699 26.6667 286.528 27.1364C286.362 27.6023 286.278 28.1136 286.278 28.6705C286.278 29.2311 286.362 29.7443 286.528 30.2102C286.699 30.6761 286.958 31.0492 287.307 31.3295C287.659 31.6098 288.102 31.75 288.636 31.75ZM300.124 29.3807V24.2727H301.828V33H300.158V31.4886H300.067C299.866 31.9545 299.544 32.3428 299.101 32.6534C298.661 32.9602 298.114 33.1136 297.459 33.1136C296.898 33.1136 296.402 32.9905 295.97 32.7443C295.542 32.4943 295.205 32.125 294.959 31.6364C294.716 31.1477 294.595 30.5436 294.595 29.8239V24.2727H296.294V29.6193C296.294 30.214 296.459 30.6875 296.788 31.0398C297.118 31.392 297.546 31.5682 298.072 31.5682C298.391 31.5682 298.707 31.4886 299.021 31.3295C299.339 31.1705 299.603 30.9299 299.811 30.608C300.023 30.286 300.127 29.8769 300.124 29.3807ZM304.111 33V24.2727H305.753V25.6591H305.844C306.003 25.1894 306.283 24.8201 306.685 24.5511C307.09 24.2784 307.548 24.142 308.06 24.142C308.166 24.142 308.291 24.1458 308.435 24.1534C308.582 24.161 308.698 24.1705 308.781 24.1818V25.8068C308.713 25.7879 308.592 25.767 308.418 25.7443C308.243 25.7178 308.069 25.7045 307.895 25.7045C307.493 25.7045 307.135 25.7898 306.821 25.9602C306.51 26.1269 306.264 26.3598 306.082 26.6591C305.901 26.9545 305.81 27.2917 305.81 27.6705V33H304.111ZM33.4361 44.2727L30.2713 53H28.4531L25.2827 44.2727H27.1065L29.3168 50.9886H29.4077L31.6122 44.2727H33.4361ZM35.0327 53V44.2727H36.7315V53H35.0327ZM35.8906 42.9261C35.5952 42.9261 35.3414 42.8277 35.1293 42.6307C34.9209 42.4299 34.8168 42.1913 34.8168 41.9148C34.8168 41.6345 34.9209 41.3958 35.1293 41.1989C35.3414 40.9981 35.5952 40.8977 35.8906 40.8977C36.1861 40.8977 36.438 40.9981 36.6463 41.1989C36.8584 41.3958 36.9645 41.6345 36.9645 41.9148C36.9645 42.1913 36.8584 42.4299 36.6463 42.6307C36.438 42.8277 36.1861 42.9261 35.8906 42.9261ZM45.5568 46.4034L44.017 46.6761C43.9527 46.4792 43.8504 46.2917 43.7102 46.1136C43.5739 45.9356 43.3883 45.7898 43.1534 45.6761C42.9186 45.5625 42.625 45.5057 42.2727 45.5057C41.7917 45.5057 41.3902 45.6136 41.0682 45.8295C40.7462 46.0417 40.5852 46.3163 40.5852 46.6534C40.5852 46.9451 40.6932 47.1799 40.9091 47.358C41.125 47.536 41.4735 47.6818 41.9545 47.7955L43.3409 48.1136C44.1439 48.2992 44.7424 48.5852 45.1364 48.9716C45.5303 49.358 45.7273 49.8598 45.7273 50.4773C45.7273 51 45.5758 51.4659 45.2727 51.875C44.9735 52.2803 44.5549 52.5985 44.017 52.8295C43.483 53.0606 42.8636 53.1761 42.1591 53.1761C41.1818 53.1761 40.3845 52.9678 39.767 52.5511C39.1496 52.1307 38.7708 51.5341 38.6307 50.7614L40.2727 50.5114C40.375 50.9394 40.5852 51.2633 40.9034 51.483C41.2216 51.6989 41.6364 51.8068 42.1477 51.8068C42.7045 51.8068 43.1496 51.6913 43.483 51.4602C43.8163 51.2254 43.983 50.9394 43.983 50.6023C43.983 50.3295 43.8807 50.1004 43.6761 49.9148C43.4754 49.7292 43.1667 49.589 42.75 49.4943L41.2727 49.1705C40.4583 48.9848 39.8561 48.6894 39.4659 48.2841C39.0795 47.8788 38.8864 47.3655 38.8864 46.7443C38.8864 46.2292 39.0303 45.7784 39.3182 45.392C39.6061 45.0057 40.0038 44.7045 40.5114 44.4886C41.0189 44.2689 41.6004 44.1591 42.2557 44.1591C43.1989 44.1591 43.9413 44.3636 44.483 44.7727C45.0246 45.178 45.3826 45.7216 45.5568 46.4034ZM47.5952 53V44.2727H49.294V53H47.5952ZM48.4531 42.9261C48.1577 42.9261 47.9039 42.8277 47.6918 42.6307C47.4834 42.4299 47.3793 42.1913 47.3793 41.9148C47.3793 41.6345 47.4834 41.3958 47.6918 41.1989C47.9039 40.9981 48.1577 40.8977 48.4531 40.8977C48.7486 40.8977 49.0005 40.9981 49.2088 41.1989C49.4209 41.3958 49.527 41.6345 49.527 41.9148C49.527 42.1913 49.4209 42.4299 49.2088 42.6307C49.0005 42.8277 48.7486 42.9261 48.4531 42.9261ZM51.7159 53V41.3636H53.4148V45.6875H53.517C53.6155 45.5057 53.7576 45.2955 53.9432 45.0568C54.1288 44.8182 54.3864 44.6098 54.7159 44.4318C55.0455 44.25 55.4811 44.1591 56.0227 44.1591C56.7273 44.1591 57.3561 44.3371 57.9091 44.6932C58.4621 45.0492 58.8958 45.5625 59.2102 46.233C59.5284 46.9034 59.6875 47.7102 59.6875 48.6534C59.6875 49.5966 59.5303 50.4053 59.2159 51.0795C58.9015 51.75 58.4697 52.267 57.9205 52.6307C57.3712 52.9905 56.7443 53.1705 56.0398 53.1705C55.5095 53.1705 55.0758 53.0814 54.7386 52.9034C54.4053 52.7254 54.1439 52.517 53.9545 52.2784C53.7652 52.0398 53.6193 51.8277 53.517 51.642H53.375V53H51.7159ZM53.3807 48.6364C53.3807 49.25 53.4697 49.7879 53.6477 50.25C53.8258 50.7121 54.0833 51.0739 54.4205 51.3352C54.7576 51.5928 55.1705 51.7216 55.6591 51.7216C56.1667 51.7216 56.5909 51.5871 56.9318 51.3182C57.2727 51.0455 57.5303 50.6761 57.7045 50.2102C57.8826 49.7443 57.9716 49.2197 57.9716 48.6364C57.9716 48.0606 57.8845 47.5436 57.7102 47.0852C57.5398 46.6269 57.2822 46.2652 56.9375 46C56.5966 45.7348 56.1705 45.6023 55.6591 45.6023C55.1667 45.6023 54.75 45.7292 54.4091 45.983C54.072 46.2367 53.8163 46.5909 53.642 47.0455C53.4678 47.5 53.3807 48.0303 53.3807 48.6364ZM61.5952 53V44.2727H63.294V53H61.5952ZM62.4531 42.9261C62.1577 42.9261 61.9039 42.8277 61.6918 42.6307C61.4834 42.4299 61.3793 42.1913 61.3793 41.9148C61.3793 41.6345 61.4834 41.3958 61.6918 41.1989C61.9039 40.9981 62.1577 40.8977 62.4531 40.8977C62.7486 40.8977 63.0005 40.9981 63.2088 41.1989C63.4209 41.3958 63.527 41.6345 63.527 41.9148C63.527 42.1913 63.4209 42.4299 63.2088 42.6307C63.0005 42.8277 62.7486 42.9261 62.4531 42.9261ZM67.2784 41.3636V53H65.5795V41.3636H67.2784ZM69.5639 53V44.2727H71.2628V53H69.5639ZM70.4219 42.9261C70.1264 42.9261 69.8726 42.8277 69.6605 42.6307C69.4522 42.4299 69.348 42.1913 69.348 41.9148C69.348 41.6345 69.4522 41.3958 69.6605 41.1989C69.8726 40.9981 70.1264 40.8977 70.4219 40.8977C70.7173 40.8977 70.9692 40.9981 71.1776 41.1989C71.3897 41.3958 71.4957 41.6345 71.4957 41.9148C71.4957 42.1913 71.3897 42.4299 71.1776 42.6307C70.9692 42.8277 70.7173 42.9261 70.4219 42.9261ZM77.6222 44.2727V45.6364H72.8551V44.2727H77.6222ZM74.1335 42.1818H75.8324V50.4375C75.8324 50.767 75.8816 51.0152 75.9801 51.1818C76.0786 51.3447 76.2055 51.4564 76.3608 51.517C76.5199 51.5739 76.6922 51.6023 76.8778 51.6023C77.0142 51.6023 77.1335 51.5928 77.2358 51.5739C77.3381 51.5549 77.4176 51.5398 77.4744 51.5284L77.7812 52.9318C77.6828 52.9697 77.5426 53.0076 77.3608 53.0455C77.179 53.0871 76.9517 53.1098 76.679 53.1136C76.232 53.1212 75.8153 53.0417 75.429 52.875C75.0426 52.7083 74.7301 52.4508 74.4915 52.1023C74.2528 51.7538 74.1335 51.3163 74.1335 50.7898V42.1818ZM80.5753 56.2727C80.3215 56.2727 80.0904 56.2519 79.8821 56.2102C79.6738 56.1723 79.5185 56.1307 79.4162 56.0852L79.8253 54.6932C80.1359 54.7765 80.4124 54.8125 80.6548 54.8011C80.8973 54.7898 81.1113 54.6989 81.2969 54.5284C81.4863 54.358 81.6529 54.0795 81.7969 53.6932L82.0071 53.1136L78.8139 44.2727H80.6321L82.8423 51.0455H82.9332L85.1435 44.2727H86.9673L83.3707 54.1648C83.2041 54.6193 82.992 55.0038 82.7344 55.3182C82.4768 55.6364 82.17 55.875 81.8139 56.0341C81.4579 56.1932 81.045 56.2727 80.5753 56.2727ZM89.1364 53.108C88.8258 53.108 88.5587 52.9981 88.3352 52.7784C88.1117 52.5549 88 52.286 88 51.9716C88 51.661 88.1117 51.3958 88.3352 51.1761C88.5587 50.9527 88.8258 50.8409 89.1364 50.8409C89.447 50.8409 89.714 50.9527 89.9375 51.1761C90.161 51.3958 90.2727 51.661 90.2727 51.9716C90.2727 52.1799 90.2197 52.3712 90.1136 52.5455C90.0114 52.7159 89.875 52.8523 89.7045 52.9545C89.5341 53.0568 89.3447 53.108 89.1364 53.108Z" fill="black"/>
<path d="M46.5703 13.7891C46.7422 13.5234 46.9297 13.4427 47.1328 13.5469C47.1953 13.5781 47.2969 13.6406 47.4375 13.7344C47.5781 13.8229 47.7396 13.9115 47.9219 14C48.1094 14.0833 48.2969 14.151 48.4844 14.2031C48.8229 14.2917 49.1562 14.3359 49.4844 14.3359C49.8125 14.3359 50.099 14.3047 50.3438 14.2422C50.5885 14.1797 50.8099 14.0807 51.0078 13.9453C51.4557 13.638 51.6797 13.2083 51.6797 12.6562C51.6797 12.1458 51.4479 11.75 50.9844 11.4688C50.5469 11.2083 49.9766 11.0781 49.2734 11.0781C48.9557 11.0781 48.724 11.0911 48.5781 11.1172C48.3958 11.1484 48.276 11.1641 48.2188 11.1641C48.1615 11.1641 48.1042 11.1276 48.0469 11.0547C47.9896 10.9818 47.9453 10.8958 47.9141 10.7969C47.8568 10.6146 47.8281 10.4531 47.8281 10.3125C47.8281 10.1667 47.849 10.0495 47.8906 9.96094C47.9375 9.86719 48.0339 9.80469 48.1797 9.77344C49.6953 9.4349 50.651 8.9375 51.0469 8.28125C51.1979 8.03646 51.2734 7.78125 51.2734 7.51562C51.2734 7.25 51.2266 7.03646 51.1328 6.875C51.0443 6.70833 50.9219 6.57031 50.7656 6.46094C50.4531 6.23698 50.0703 6.125 49.6172 6.125C49.2578 6.125 48.9557 6.19271 48.7109 6.32812C48.2578 6.57812 47.9922 6.8776 47.9141 7.22656C47.8516 7.47135 47.6901 7.59375 47.4297 7.59375C47.1745 7.59375 46.9766 7.57292 46.8359 7.53125C46.6953 7.48438 46.5859 7.42708 46.5078 7.35938C46.3828 7.24479 46.3203 7.06771 46.3203 6.82812C46.3203 6.58333 46.3698 6.34896 46.4688 6.125C46.5729 5.89583 46.7109 5.69271 46.8828 5.51562C47.0599 5.33333 47.263 5.17448 47.4922 5.03906C47.7214 4.90365 47.9635 4.79167 48.2188 4.70312C48.724 4.52083 49.2161 4.42969 49.6953 4.42969C50.1797 4.42969 50.625 4.48698 51.0312 4.60156C51.4427 4.71615 51.8073 4.89062 52.125 5.125C52.8333 5.64583 53.1875 6.36719 53.1875 7.28906C53.1875 8.05469 52.8906 8.70833 52.2969 9.25C51.8854 9.61979 51.3698 9.90885 50.75 10.1172C51.5781 10.1172 52.2604 10.3672 52.7969 10.8672C53.3125 11.3516 53.5703 11.9036 53.5703 12.5234C53.5703 13.138 53.4583 13.6562 53.2344 14.0781C53.0156 14.5052 52.7292 14.8646 52.375 15.1562C51.6406 15.7552 50.7969 16.0547 49.8438 16.0547C48.4062 16.0547 47.2995 15.7344 46.5234 15.0938C46.2734 14.8958 46.1484 14.7344 46.1484 14.6094C46.1484 14.4896 46.1771 14.3854 46.2344 14.2969L46.5703 13.7891ZM65 4.99219C66.3125 4.99219 67.1432 5.57812 67.4922 6.75C68.013 5.91146 68.7031 5.36458 69.5625 5.10938C69.8542 5.02604 70.2214 4.98438 70.6641 4.98438C71.1068 4.98438 71.5339 5.09375 71.9453 5.3125C72.362 5.53125 72.6693 5.81771 72.8672 6.17188C73.0703 6.52083 73.1979 6.90625 73.25 7.32812C73.3073 7.75 73.3359 8.20312 73.3359 8.6875V13.4844C73.3359 13.6302 73.2891 13.7526 73.1953 13.8516C73.1016 13.9505 72.9635 14 72.7812 14H72.0156C71.8177 14 71.6719 13.9505 71.5781 13.8516C71.4844 13.7526 71.4375 13.6302 71.4375 13.4844V8.61719C71.4375 7.94531 71.3203 7.44531 71.0859 7.11719C70.8568 6.78906 70.4922 6.625 69.9922 6.625C69.4245 6.625 68.9271 6.875 68.5 7.375C68.0417 7.89583 67.8125 8.54167 67.8125 9.3125V13.4844C67.8125 13.6302 67.7656 13.7526 67.6719 13.8516C67.5781 13.9505 67.4401 14 67.2578 14H66.4922C66.2943 14 66.1484 13.9505 66.0547 13.8516C65.9609 13.7526 65.9141 13.6302 65.9141 13.4844V8.61719C65.9141 7.94531 65.7969 7.44531 65.5625 7.11719C65.3333 6.78906 64.9688 6.625 64.4688 6.625C63.901 6.625 63.401 6.875 62.9688 7.375C62.5156 7.89583 62.2891 8.54167 62.2891 9.3125V13.4844C62.2891 13.6302 62.2448 13.7526 62.1562 13.8516C62.0677 13.9505 61.9323 14 61.75 14H60.9453C60.763 14 60.625 13.9505 60.5312 13.8516C60.4375 13.7526 60.3906 13.6302 60.3906 13.4844V8.6875C60.3906 7.64062 60.3568 6.91146 60.2891 6.5C60.2214 6.08333 60.1875 5.83333 60.1875 5.75C60.1875 5.375 60.3672 5.1875 60.7266 5.1875H61.1562C61.4479 5.1875 61.6458 5.29688 61.75 5.51562C61.875 5.78125 61.9948 6.19271 62.1094 6.75C62.5625 5.93229 63.2188 5.39062 64.0781 5.125C64.3698 5.03646 64.6771 4.99219 65 4.99219ZM75.6562 9.5625C75.6562 8.88542 75.7682 8.26562 75.9922 7.70312C76.2214 7.13542 76.5339 6.65104 76.9297 6.25C77.7578 5.41146 78.8021 4.99219 80.0625 4.99219C81.474 4.99219 82.5677 5.41146 83.3438 6.25C84.0938 7.05729 84.4688 8.16667 84.4688 9.57812C84.4688 10.9427 84.0443 12.0573 83.1953 12.9219C82.3672 13.7708 81.3229 14.1953 80.0625 14.1953C78.7344 14.1953 77.6667 13.7604 76.8594 12.8906C76.0573 12.0417 75.6562 10.9323 75.6562 9.5625ZM78.1641 7.57812C77.9714 7.86458 77.8307 8.19271 77.7422 8.5625C77.6536 8.92708 77.6094 9.29948 77.6094 9.67969C77.6094 10.0547 77.6589 10.4167 77.7578 10.7656C77.862 11.1094 78.0156 11.4167 78.2188 11.6875C78.6667 12.2812 79.2917 12.5781 80.0938 12.5781C80.9115 12.5781 81.5312 12.2865 81.9531 11.7031C82.3281 11.1927 82.5156 10.4974 82.5156 9.61719C82.5156 8.29948 82.0833 7.39062 81.2188 6.89062C80.901 6.70833 80.5156 6.61719 80.0625 6.61719C79.6146 6.61719 79.2344 6.70573 78.9219 6.88281C78.6146 7.05469 78.362 7.28646 78.1641 7.57812ZM86.8281 5.75C86.8281 5.375 87.0078 5.1875 87.3672 5.1875H87.7969C88.0885 5.1875 88.2865 5.29688 88.3906 5.51562C88.5365 5.82812 88.6615 6.23958 88.7656 6.75C89.2344 5.89583 89.9323 5.34896 90.8594 5.10938C91.151 5.03125 91.513 4.99219 91.9453 4.99219C92.3828 4.99219 92.7865 5.08594 93.1562 5.27344C93.526 5.45573 93.8177 5.70833 94.0312 6.03125C94.4271 6.61979 94.625 7.48698 94.625 8.63281V13.4844C94.625 13.6302 94.5781 13.7526 94.4844 13.8516C94.3906 13.9505 94.2526 14 94.0703 14H93.3047C93.1068 14 92.9609 13.9505 92.8672 13.8516C92.7734 13.7526 92.7266 13.6302 92.7266 13.4844V8.625C92.7266 7.29167 92.237 6.625 91.2578 6.625C90.6849 6.625 90.1615 6.86458 89.6875 7.34375C89.1823 7.85938 88.9297 8.45833 88.9297 9.14062V13.4844C88.9297 13.6302 88.8854 13.7526 88.7969 13.8516C88.7083 13.9505 88.5729 14 88.3906 14H87.5859C87.4036 14 87.2656 13.9505 87.1719 13.8516C87.0781 13.7526 87.0312 13.6302 87.0312 13.4844V8.6875C87.0312 7.64062 86.9974 6.91146 86.9297 6.5C86.862 6.08333 86.8281 5.83333 86.8281 5.75ZM102.258 6.375C102.258 6.66667 102.094 6.8125 101.766 6.8125H99.5625V11.7188C99.5625 12.25 99.8255 12.5156 100.352 12.5156C100.685 12.5156 101.12 12.349 101.656 12.0156C101.76 11.9479 101.872 11.9141 101.992 11.9141C102.117 11.9141 102.216 12 102.289 12.1719L102.469 12.5781C102.536 12.7344 102.57 12.8672 102.57 12.9766C102.57 13.0859 102.487 13.2135 102.32 13.3594C102.159 13.5 101.951 13.6276 101.695 13.7422C101.117 14.0026 100.594 14.1328 100.125 14.1328C99.6562 14.1328 99.2839 14.0859 99.0078 13.9922C98.737 13.8932 98.5052 13.7474 98.3125 13.5547C97.8958 13.1484 97.6875 12.5625 97.6875 11.7969V6.8125H97.0312C96.7031 6.8125 96.5391 6.66406 96.5391 6.36719V5.92188C96.5391 5.80208 96.5703 5.70833 96.6328 5.64062C96.6953 5.57292 96.8177 5.52083 97 5.48438L97.7812 5.25781L98.0781 3.42188C98.1354 3.07812 98.276 2.90625 98.5 2.90625H99.1484C99.2682 2.90625 99.3672 2.95573 99.4453 3.05469C99.5234 3.14844 99.5625 3.27083 99.5625 3.42188V5.1875H101.766C102.094 5.1875 102.258 5.33073 102.258 5.61719V6.375ZM104.375 0.640625C104.375 0.5 104.414 0.382812 104.492 0.289062C104.576 0.195312 104.674 0.148438 104.789 0.148438H105.859C105.979 0.148438 106.078 0.195312 106.156 0.289062C106.234 0.382812 106.273 0.5 106.273 0.640625V6.55469C106.721 5.79427 107.38 5.30729 108.25 5.09375C108.526 5.02604 108.875 4.99219 109.297 4.99219C109.724 4.99219 110.122 5.08594 110.492 5.27344C110.862 5.45573 111.156 5.70833 111.375 6.03125C111.766 6.61979 111.961 7.48698 111.961 8.63281V13.4844C111.961 13.6406 111.914 13.7656 111.82 13.8594C111.727 13.9531 111.589 14 111.406 14H110.641C110.443 14 110.297 13.9505 110.203 13.8516C110.109 13.7526 110.062 13.6302 110.062 13.4844V8.625C110.062 7.29167 109.573 6.625 108.594 6.625C108.047 6.625 107.531 6.86458 107.047 7.34375C106.531 7.86458 106.273 8.46354 106.273 9.14062V13.4844C106.273 13.6302 106.229 13.7526 106.141 13.8516C106.052 13.9505 105.909 14 105.711 14H104.859C104.708 14 104.589 13.9505 104.5 13.8516C104.417 13.7526 104.375 13.6302 104.375 13.4844V0.640625ZM117.242 12.5938C118.242 12.5938 118.742 12.2578 118.742 11.5859C118.742 11.2161 118.458 10.9036 117.891 10.6484C117.651 10.5391 117.388 10.4375 117.102 10.3438C116.82 10.25 116.549 10.138 116.289 10.0078C116.029 9.8776 115.784 9.73698 115.555 9.58594C115.331 9.42969 115.135 9.2526 114.969 9.05469C114.625 8.63802 114.453 8.10938 114.453 7.46875C114.453 6.6875 114.779 6.06771 115.43 5.60938C116.008 5.19792 116.719 4.99219 117.562 4.99219C118.469 4.99219 119.227 5.16927 119.836 5.52344C120.044 5.64844 120.148 5.79167 120.148 5.95312C120.148 6.18229 120.086 6.4349 119.961 6.71094C119.841 6.98177 119.698 7.11719 119.531 7.11719C119.37 7.11719 119.221 7.08333 119.086 7.01562C118.956 6.94792 118.836 6.89062 118.727 6.84375C118.622 6.79167 118.51 6.75 118.391 6.71875C118.13 6.64062 117.888 6.60156 117.664 6.60156C117.445 6.60156 117.268 6.61719 117.133 6.64844C116.997 6.67969 116.875 6.72917 116.766 6.79688C116.5 6.95833 116.367 7.15625 116.367 7.39062C116.367 7.625 116.419 7.80469 116.523 7.92969C116.633 8.05469 116.781 8.16927 116.969 8.27344C117.156 8.3776 117.38 8.48177 117.641 8.58594L118.484 8.9375C119.167 9.23438 119.628 9.5026 119.867 9.74219C120.336 10.2214 120.57 10.776 120.57 11.4062C120.57 12.1979 120.299 12.849 119.758 13.3594C119.159 13.9167 118.307 14.1953 117.203 14.1953C116.083 14.1953 115.242 13.9792 114.68 13.5469C114.404 13.3385 114.266 13.151 114.266 12.9844C114.266 12.8177 114.294 12.6693 114.352 12.5391C114.414 12.4036 114.492 12.2474 114.586 12.0703C114.685 11.888 114.815 11.7969 114.977 11.7969C115.143 11.7969 115.318 11.8724 115.5 12.0234C115.688 12.1693 115.943 12.3021 116.266 12.4219C116.589 12.5365 116.914 12.5938 117.242 12.5938ZM126.312 9.5625C126.312 8.88542 126.424 8.26562 126.648 7.70312C126.878 7.13542 127.19 6.65104 127.586 6.25C128.414 5.41146 129.458 4.99219 130.719 4.99219C132.13 4.99219 133.224 5.41146 134 6.25C134.75 7.05729 135.125 8.16667 135.125 9.57812C135.125 10.9427 134.701 12.0573 133.852 12.9219C133.023 13.7708 131.979 14.1953 130.719 14.1953C129.391 14.1953 128.323 13.7604 127.516 12.8906C126.714 12.0417 126.312 10.9323 126.312 9.5625ZM128.82 7.57812C128.628 7.86458 128.487 8.19271 128.398 8.5625C128.31 8.92708 128.266 9.29948 128.266 9.67969C128.266 10.0547 128.315 10.4167 128.414 10.7656C128.518 11.1094 128.672 11.4167 128.875 11.6875C129.323 12.2812 129.948 12.5781 130.75 12.5781C131.568 12.5781 132.188 12.2865 132.609 11.7031C132.984 11.1927 133.172 10.4974 133.172 9.61719C133.172 8.29948 132.74 7.39062 131.875 6.89062C131.557 6.70833 131.172 6.61719 130.719 6.61719C130.271 6.61719 129.891 6.70573 129.578 6.88281C129.271 7.05469 129.018 7.28646 128.82 7.57812ZM142.5 6.375C142.5 6.66667 142.336 6.8125 142.008 6.8125H140.102V13.4453C140.102 13.612 140.055 13.7474 139.961 13.8516C139.867 13.9505 139.737 14 139.57 14H138.805C138.622 14 138.482 13.9505 138.383 13.8516C138.284 13.7474 138.234 13.612 138.234 13.4453V6.8125H137.133C136.805 6.8125 136.641 6.66406 136.641 6.36719V5.92969C136.641 5.8099 136.672 5.72135 136.734 5.66406C136.802 5.60156 136.924 5.54427 137.102 5.49219L138.266 5.30469C138 4.60677 137.844 4.09115 137.797 3.75781C137.755 3.41927 137.734 3.09896 137.734 2.79688C137.734 2.48958 137.802 2.16927 137.938 1.83594C138.073 1.5026 138.271 1.20833 138.531 0.953125C139.115 0.380208 139.891 0.09375 140.859 0.09375C141.625 0.09375 142.284 0.257812 142.836 0.585938C143.143 0.773438 143.297 0.942708 143.297 1.09375C143.297 1.23958 143.25 1.3776 143.156 1.50781L142.781 2.03906C142.677 2.17969 142.578 2.25 142.484 2.25C142.396 2.25 142.31 2.22396 142.227 2.17188C142.143 2.11979 142.044 2.0625 141.93 2C141.622 1.83333 141.268 1.75 140.867 1.75C139.987 1.75 139.547 2.30469 139.547 3.41406C139.547 3.95052 139.667 4.54167 139.906 5.1875H142.008C142.336 5.1875 142.5 5.33073 142.5 5.61719V6.375ZM153.172 6.375C153.172 6.66667 153.008 6.8125 152.68 6.8125H150.773V13.4453C150.773 13.612 150.727 13.7474 150.633 13.8516C150.539 13.9505 150.409 14 150.242 14H149.477C149.294 14 149.154 13.9505 149.055 13.8516C148.956 13.7474 148.906 13.612 148.906 13.4453V6.8125H147.805C147.477 6.8125 147.312 6.66406 147.312 6.36719V5.92969C147.312 5.8099 147.344 5.72135 147.406 5.66406C147.474 5.60156 147.596 5.54427 147.773 5.49219L148.938 5.30469C148.672 4.60677 148.516 4.09115 148.469 3.75781C148.427 3.41927 148.406 3.09896 148.406 2.79688C148.406 2.48958 148.474 2.16927 148.609 1.83594C148.745 1.5026 148.943 1.20833 149.203 0.953125C149.786 0.380208 150.562 0.09375 151.531 0.09375C152.297 0.09375 152.956 0.257812 153.508 0.585938C153.815 0.773438 153.969 0.942708 153.969 1.09375C153.969 1.23958 153.922 1.3776 153.828 1.50781L153.453 2.03906C153.349 2.17969 153.25 2.25 153.156 2.25C153.068 2.25 152.982 2.22396 152.898 2.17188C152.815 2.11979 152.716 2.0625 152.602 2C152.294 1.83333 151.94 1.75 151.539 1.75C150.659 1.75 150.219 2.30469 150.219 3.41406C150.219 3.95052 150.339 4.54167 150.578 5.1875H152.68C153.008 5.1875 153.172 5.33073 153.172 5.61719V6.375ZM154.617 5.75C154.617 5.375 154.781 5.1875 155.109 5.1875H155.531C155.818 5.1875 156.021 5.3125 156.141 5.5625C156.312 5.92708 156.438 6.42969 156.516 7.07031C156.516 7.08073 156.518 7.08594 156.523 7.08594C156.534 7.08594 156.552 6.9974 156.578 6.82031C156.604 6.64323 156.68 6.42708 156.805 6.17188C156.93 5.91146 157.083 5.69271 157.266 5.51562C157.635 5.16667 158.089 4.99219 158.625 4.99219C159.224 4.99219 159.641 5.09115 159.875 5.28906C159.984 5.3776 160.029 5.5 160.008 5.65625L159.883 6.64062C159.852 6.90625 159.716 7.03906 159.477 7.03906C159.362 7.03906 159.221 7.01562 159.055 6.96875C158.732 6.88542 158.477 6.84375 158.289 6.84375C158.102 6.84375 157.904 6.92708 157.695 7.09375C157.487 7.25521 157.307 7.45833 157.156 7.70312C156.849 8.21354 156.695 8.75781 156.695 9.33594V13.4844C156.695 13.6302 156.654 13.7526 156.57 13.8516C156.487 13.9505 156.367 14 156.211 14H155.305C155.138 14 155.01 13.9505 154.922 13.8516C154.839 13.7526 154.797 13.6302 154.797 13.4844V8.10156C154.797 7.1849 154.766 6.58073 154.703 6.28906C154.646 5.99219 154.617 5.8125 154.617 5.75ZM162.797 10.0234L162.789 10.1719C162.789 10.8854 163.016 11.4583 163.469 11.8906C163.943 12.349 164.586 12.5781 165.398 12.5781C166.138 12.5781 166.826 12.3568 167.461 11.9141C167.581 11.8307 167.688 11.7891 167.781 11.7891C167.974 11.7891 168.12 11.8854 168.219 12.0781L168.43 12.5156C168.477 12.6198 168.5 12.7318 168.5 12.8516C168.5 12.9714 168.445 13.0964 168.336 13.2266C168.232 13.3516 168.094 13.4661 167.922 13.5703C167.75 13.6745 167.549 13.7656 167.32 13.8438C167.096 13.9219 166.865 13.987 166.625 14.0391C166.146 14.1432 165.646 14.1953 165.125 14.1953C164.604 14.1953 164.078 14.0964 163.547 13.8984C163.021 13.7005 162.565 13.4115 162.18 13.0312C161.352 12.224 160.938 11.1328 160.938 9.75781C160.938 7.34635 161.786 5.84635 163.484 5.25781C164.016 5.07552 164.56 4.98438 165.117 4.98438C165.68 4.98438 166.156 5.04427 166.547 5.16406C166.943 5.28385 167.284 5.46094 167.57 5.69531C168.174 6.1901 168.477 6.88021 168.477 7.76562C168.477 8.63542 168.122 9.29948 167.414 9.75781C166.794 10.1589 165.977 10.3594 164.961 10.3594C164.336 10.3594 163.615 10.2474 162.797 10.0234ZM166.641 7.74219C166.641 6.9974 166.141 6.625 165.141 6.625C164.188 6.625 163.521 6.97396 163.141 7.67188C163.005 7.91667 162.917 8.21875 162.875 8.57812C163.323 8.80208 163.893 8.91406 164.586 8.91406C165.956 8.91406 166.641 8.52344 166.641 7.74219ZM172.141 10.0234L172.133 10.1719C172.133 10.8854 172.359 11.4583 172.812 11.8906C173.286 12.349 173.93 12.5781 174.742 12.5781C175.482 12.5781 176.169 12.3568 176.805 11.9141C176.924 11.8307 177.031 11.7891 177.125 11.7891C177.318 11.7891 177.464 11.8854 177.562 12.0781L177.773 12.5156C177.82 12.6198 177.844 12.7318 177.844 12.8516C177.844 12.9714 177.789 13.0964 177.68 13.2266C177.576 13.3516 177.438 13.4661 177.266 13.5703C177.094 13.6745 176.893 13.7656 176.664 13.8438C176.44 13.9219 176.208 13.987 175.969 14.0391C175.49 14.1432 174.99 14.1953 174.469 14.1953C173.948 14.1953 173.422 14.0964 172.891 13.8984C172.365 13.7005 171.909 13.4115 171.523 13.0312C170.695 12.224 170.281 11.1328 170.281 9.75781C170.281 7.34635 171.13 5.84635 172.828 5.25781C173.359 5.07552 173.904 4.98438 174.461 4.98438C175.023 4.98438 175.5 5.04427 175.891 5.16406C176.286 5.28385 176.628 5.46094 176.914 5.69531C177.518 6.1901 177.82 6.88021 177.82 7.76562C177.82 8.63542 177.466 9.29948 176.758 9.75781C176.138 10.1589 175.32 10.3594 174.305 10.3594C173.68 10.3594 172.958 10.2474 172.141 10.0234ZM175.984 7.74219C175.984 6.9974 175.484 6.625 174.484 6.625C173.531 6.625 172.865 6.97396 172.484 7.67188C172.349 7.91667 172.26 8.21875 172.219 8.57812C172.667 8.80208 173.237 8.91406 173.93 8.91406C175.299 8.91406 175.984 8.52344 175.984 7.74219ZM186.141 12.6484C186.193 13.1693 186.219 13.8203 186.219 14.6016V17.8281C186.219 18.2135 186.065 18.4062 185.758 18.4062H184.789C184.461 18.4062 184.297 18.2031 184.297 17.7969V9.14844C184.297 7.6849 184.219 6.61719 184.062 5.94531C184.047 5.8776 184.039 5.78385 184.039 5.66406C184.039 5.54427 184.086 5.4349 184.18 5.33594C184.279 5.23698 184.404 5.1875 184.555 5.1875H185.031C185.318 5.1875 185.521 5.3125 185.641 5.5625C185.781 5.85417 185.888 6.23177 185.961 6.69531C186.326 6.0599 186.823 5.59635 187.453 5.30469C187.901 5.09635 188.409 4.99219 188.977 4.99219C189.549 4.99219 190.06 5.10417 190.508 5.32812C190.956 5.54688 191.328 5.84896 191.625 6.23438C192.214 7 192.508 8.02604 192.508 9.3125C192.508 10.6562 192.177 11.7917 191.516 12.7188C190.818 13.7031 189.904 14.1953 188.773 14.1953C187.596 14.1953 186.719 13.6797 186.141 12.6484ZM186.039 9.875C186.039 10.625 186.289 11.2708 186.789 11.8125C187.263 12.3229 187.799 12.5781 188.398 12.5781C189.154 12.5781 189.714 12.2109 190.078 11.4766C190.37 10.8932 190.516 10.1562 190.516 9.26562C190.516 8.54688 190.344 7.9375 190 7.4375C189.63 6.89583 189.138 6.625 188.523 6.625C187.831 6.625 187.24 6.91146 186.75 7.48438C186.276 8.04688 186.039 8.70052 186.039 9.44531V9.875ZM194.664 5.75C194.664 5.375 194.828 5.1875 195.156 5.1875H195.578C195.865 5.1875 196.068 5.3125 196.188 5.5625C196.359 5.92708 196.484 6.42969 196.562 7.07031C196.562 7.08073 196.565 7.08594 196.57 7.08594C196.581 7.08594 196.599 6.9974 196.625 6.82031C196.651 6.64323 196.727 6.42708 196.852 6.17188C196.977 5.91146 197.13 5.69271 197.312 5.51562C197.682 5.16667 198.135 4.99219 198.672 4.99219C199.271 4.99219 199.688 5.09115 199.922 5.28906C200.031 5.3776 200.076 5.5 200.055 5.65625L199.93 6.64062C199.898 6.90625 199.763 7.03906 199.523 7.03906C199.409 7.03906 199.268 7.01562 199.102 6.96875C198.779 6.88542 198.523 6.84375 198.336 6.84375C198.148 6.84375 197.951 6.92708 197.742 7.09375C197.534 7.25521 197.354 7.45833 197.203 7.70312C196.896 8.21354 196.742 8.75781 196.742 9.33594V13.4844C196.742 13.6302 196.701 13.7526 196.617 13.8516C196.534 13.9505 196.414 14 196.258 14H195.352C195.185 14 195.057 13.9505 194.969 13.8516C194.885 13.7526 194.844 13.6302 194.844 13.4844V8.10156C194.844 7.1849 194.812 6.58073 194.75 6.28906C194.693 5.99219 194.664 5.8125 194.664 5.75ZM202.844 10.0234L202.836 10.1719C202.836 10.8854 203.062 11.4583 203.516 11.8906C203.99 12.349 204.633 12.5781 205.445 12.5781C206.185 12.5781 206.872 12.3568 207.508 11.9141C207.628 11.8307 207.734 11.7891 207.828 11.7891C208.021 11.7891 208.167 11.8854 208.266 12.0781L208.477 12.5156C208.523 12.6198 208.547 12.7318 208.547 12.8516C208.547 12.9714 208.492 13.0964 208.383 13.2266C208.279 13.3516 208.141 13.4661 207.969 13.5703C207.797 13.6745 207.596 13.7656 207.367 13.8438C207.143 13.9219 206.911 13.987 206.672 14.0391C206.193 14.1432 205.693 14.1953 205.172 14.1953C204.651 14.1953 204.125 14.0964 203.594 13.8984C203.068 13.7005 202.612 13.4115 202.227 13.0312C201.398 12.224 200.984 11.1328 200.984 9.75781C200.984 7.34635 201.833 5.84635 203.531 5.25781C204.062 5.07552 204.607 4.98438 205.164 4.98438C205.727 4.98438 206.203 5.04427 206.594 5.16406C206.99 5.28385 207.331 5.46094 207.617 5.69531C208.221 6.1901 208.523 6.88021 208.523 7.76562C208.523 8.63542 208.169 9.29948 207.461 9.75781C206.841 10.1589 206.023 10.3594 205.008 10.3594C204.383 10.3594 203.661 10.2474 202.844 10.0234ZM206.688 7.74219C206.688 6.9974 206.188 6.625 205.188 6.625C204.234 6.625 203.568 6.97396 203.188 7.67188C203.052 7.91667 202.964 8.21875 202.922 8.57812C203.37 8.80208 203.94 8.91406 204.633 8.91406C206.003 8.91406 206.688 8.52344 206.688 7.74219ZM215.688 4.99219C217 4.99219 217.831 5.57812 218.18 6.75C218.701 5.91146 219.391 5.36458 220.25 5.10938C220.542 5.02604 220.909 4.98438 221.352 4.98438C221.794 4.98438 222.221 5.09375 222.633 5.3125C223.049 5.53125 223.357 5.81771 223.555 6.17188C223.758 6.52083 223.885 6.90625 223.938 7.32812C223.995 7.75 224.023 8.20312 224.023 8.6875V13.4844C224.023 13.6302 223.977 13.7526 223.883 13.8516C223.789 13.9505 223.651 14 223.469 14H222.703C222.505 14 222.359 13.9505 222.266 13.8516C222.172 13.7526 222.125 13.6302 222.125 13.4844V8.61719C222.125 7.94531 222.008 7.44531 221.773 7.11719C221.544 6.78906 221.18 6.625 220.68 6.625C220.112 6.625 219.615 6.875 219.188 7.375C218.729 7.89583 218.5 8.54167 218.5 9.3125V13.4844C218.5 13.6302 218.453 13.7526 218.359 13.8516C218.266 13.9505 218.128 14 217.945 14H217.18C216.982 14 216.836 13.9505 216.742 13.8516C216.648 13.7526 216.602 13.6302 216.602 13.4844V8.61719C216.602 7.94531 216.484 7.44531 216.25 7.11719C216.021 6.78906 215.656 6.625 215.156 6.625C214.589 6.625 214.089 6.875 213.656 7.375C213.203 7.89583 212.977 8.54167 212.977 9.3125V13.4844C212.977 13.6302 212.932 13.7526 212.844 13.8516C212.755 13.9505 212.62 14 212.438 14H211.633C211.451 14 211.312 13.9505 211.219 13.8516C211.125 13.7526 211.078 13.6302 211.078 13.4844V8.6875C211.078 7.64062 211.044 6.91146 210.977 6.5C210.909 6.08333 210.875 5.83333 210.875 5.75C210.875 5.375 211.055 5.1875 211.414 5.1875H211.844C212.135 5.1875 212.333 5.29688 212.438 5.51562C212.562 5.78125 212.682 6.19271 212.797 6.75C213.25 5.93229 213.906 5.39062 214.766 5.125C215.057 5.03646 215.365 4.99219 215.688 4.99219ZM227.797 3.67969C227.443 3.67969 227.141 3.55729 226.891 3.3125C226.641 3.07292 226.516 2.77083 226.516 2.40625C226.516 2.05208 226.641 1.75 226.891 1.5C227.13 1.26042 227.432 1.14062 227.797 1.14062C228.354 1.14062 228.745 1.39583 228.969 1.90625C229.036 2.05729 229.07 2.22396 229.07 2.40625C229.07 2.77083 228.945 3.07292 228.695 3.3125C228.445 3.55729 228.146 3.67969 227.797 3.67969ZM228.711 11.8516C228.711 12.2214 228.833 12.4062 229.078 12.4062C229.161 12.4062 229.255 12.3828 229.359 12.3359C229.562 12.2474 229.701 12.2031 229.773 12.2031C229.883 12.2031 229.971 12.2786 230.039 12.4297L230.281 12.9766C230.323 13.0651 230.344 13.1484 230.344 13.2266C230.344 13.4505 230.151 13.6589 229.766 13.8516C229.401 14.0391 229.039 14.1328 228.68 14.1328C228.326 14.1328 228.042 14.0938 227.828 14.0156C227.615 13.9375 227.432 13.8073 227.281 13.625C226.979 13.25 226.828 12.6406 226.828 11.7969V5.70312C226.828 5.55729 226.87 5.4349 226.953 5.33594C227.036 5.23698 227.135 5.1875 227.25 5.1875H228.297C228.417 5.1875 228.516 5.23698 228.594 5.33594C228.672 5.4349 228.711 5.55729 228.711 5.70312V11.8516ZM240.086 13.4688C240.086 13.8229 239.924 14 239.602 14H239.25C238.938 14 238.732 13.875 238.633 13.625C238.523 13.3385 238.406 12.9401 238.281 12.4297C238.062 12.9766 237.69 13.4089 237.164 13.7266C236.643 14.0391 235.992 14.1953 235.211 14.1953C234.19 14.1953 233.438 13.8776 232.953 13.2422C232.469 12.6016 232.227 11.6589 232.227 10.4141V5.70312C232.227 5.55729 232.271 5.4349 232.359 5.33594C232.453 5.23698 232.583 5.1875 232.75 5.1875H233.609C233.953 5.1875 234.125 5.35938 234.125 5.70312V10.3281C234.125 11.5729 234.414 12.2917 234.992 12.4844C235.18 12.5469 235.401 12.5781 235.656 12.5781C235.917 12.5781 236.182 12.5182 236.453 12.3984C236.729 12.2786 236.977 12.1198 237.195 11.9219C237.685 11.4688 237.93 10.9505 237.93 10.3672V5.70312C237.93 5.55729 237.974 5.4349 238.062 5.33594C238.151 5.23698 238.292 5.1875 238.484 5.1875H239.305C239.487 5.1875 239.62 5.23698 239.703 5.33594C239.786 5.4349 239.828 5.55729 239.828 5.70312V10.5859C239.828 11.6849 239.906 12.5703 240.062 13.2422C240.078 13.2995 240.086 13.375 240.086 13.4688ZM247.656 4.99219C248.969 4.99219 249.799 5.57812 250.148 6.75C250.669 5.91146 251.359 5.36458 252.219 5.10938C252.51 5.02604 252.878 4.98438 253.32 4.98438C253.763 4.98438 254.19 5.09375 254.602 5.3125C255.018 5.53125 255.326 5.81771 255.523 6.17188C255.727 6.52083 255.854 6.90625 255.906 7.32812C255.964 7.75 255.992 8.20312 255.992 8.6875V13.4844C255.992 13.6302 255.945 13.7526 255.852 13.8516C255.758 13.9505 255.62 14 255.438 14H254.672C254.474 14 254.328 13.9505 254.234 13.8516C254.141 13.7526 254.094 13.6302 254.094 13.4844V8.61719C254.094 7.94531 253.977 7.44531 253.742 7.11719C253.513 6.78906 253.148 6.625 252.648 6.625C252.081 6.625 251.583 6.875 251.156 7.375C250.698 7.89583 250.469 8.54167 250.469 9.3125V13.4844C250.469 13.6302 250.422 13.7526 250.328 13.8516C250.234 13.9505 250.096 14 249.914 14H249.148C248.951 14 248.805 13.9505 248.711 13.8516C248.617 13.7526 248.57 13.6302 248.57 13.4844V8.61719C248.57 7.94531 248.453 7.44531 248.219 7.11719C247.99 6.78906 247.625 6.625 247.125 6.625C246.557 6.625 246.057 6.875 245.625 7.375C245.172 7.89583 244.945 8.54167 244.945 9.3125V13.4844C244.945 13.6302 244.901 13.7526 244.812 13.8516C244.724 13.9505 244.589 14 244.406 14H243.602C243.419 14 243.281 13.9505 243.188 13.8516C243.094 13.7526 243.047 13.6302 243.047 13.4844V8.6875C243.047 7.64062 243.013 6.91146 242.945 6.5C242.878 6.08333 242.844 5.83333 242.844 5.75C242.844 5.375 243.023 5.1875 243.383 5.1875H243.812C244.104 5.1875 244.302 5.29688 244.406 5.51562C244.531 5.78125 244.651 6.19271 244.766 6.75C245.219 5.93229 245.875 5.39062 246.734 5.125C247.026 5.03646 247.333 4.99219 247.656 4.99219ZM97.3359 41.9922C97.3359 41.3464 97.6172 41.0234 98.1797 41.0234H98.5C98.7135 41.0234 98.862 41.0495 98.9453 41.1016C99.1016 41.1953 99.2474 41.3438 99.3828 41.5469L104.414 48.9531C104.607 49.2344 104.758 49.4922 104.867 49.7266L105.188 50.3984C105.193 50.4089 105.201 50.4141 105.211 50.4141C105.227 50.4141 105.229 50.3464 105.219 50.2109C105.208 50.0755 105.182 49.8802 105.141 49.625C105.099 49.3646 105.078 49.1068 105.078 48.8516V41.5C105.078 41.3646 105.117 41.2526 105.195 41.1641C105.279 41.0703 105.378 41.0234 105.492 41.0234H106.523C106.633 41.0234 106.727 41.0703 106.805 41.1641C106.888 41.2526 106.93 41.3646 106.93 41.5V52.2188C106.93 52.4271 106.865 52.5885 106.734 52.7031C106.516 52.901 106.318 53 106.141 53H105.664C105.404 53 105.214 52.9583 105.094 52.875C104.917 52.7396 104.698 52.4844 104.438 52.1094C101.464 47.7604 99.8698 45.4115 99.6562 45.0625L99.0078 43.9766C98.9974 43.9609 98.9818 43.9531 98.9609 43.9531C98.9453 43.9531 98.9453 43.9922 98.9609 44.0703C98.9766 44.1484 98.9974 44.2812 99.0234 44.4688C99.0547 44.651 99.0833 44.8542 99.1094 45.0781C99.1615 45.599 99.1875 46.0833 99.1875 46.5312V52.5234C99.1875 52.6536 99.1458 52.7656 99.0625 52.8594C98.9844 52.9531 98.888 53 98.7734 53H97.7422C97.6328 53 97.5365 52.9531 97.4531 52.8594C97.375 52.7656 97.3359 52.6536 97.3359 52.5234V41.9922ZM109.688 48.5625C109.688 47.8854 109.799 47.2656 110.023 46.7031C110.253 46.1354 110.565 45.651 110.961 45.25C111.789 44.4115 112.833 43.9922 114.094 43.9922C115.505 43.9922 116.599 44.4115 117.375 45.25C118.125 46.0573 118.5 47.1667 118.5 48.5781C118.5 49.9427 118.076 51.0573 117.227 51.9219C116.398 52.7708 115.354 53.1953 114.094 53.1953C112.766 53.1953 111.698 52.7604 110.891 51.8906C110.089 51.0417 109.688 49.9323 109.688 48.5625ZM112.195 46.5781C112.003 46.8646 111.862 47.1927 111.773 47.5625C111.685 47.9271 111.641 48.2995 111.641 48.6797C111.641 49.0547 111.69 49.4167 111.789 49.7656C111.893 50.1094 112.047 50.4167 112.25 50.6875C112.698 51.2812 113.323 51.5781 114.125 51.5781C114.943 51.5781 115.562 51.2865 115.984 50.7031C116.359 50.1927 116.547 49.4974 116.547 48.6172C116.547 47.2995 116.115 46.3906 115.25 45.8906C114.932 45.7083 114.547 45.6172 114.094 45.6172C113.646 45.6172 113.266 45.7057 112.953 45.8828C112.646 46.0547 112.393 46.2865 112.195 46.5781ZM130.742 47.6641C130.315 47.6641 130.102 47.4531 130.102 47.0312C130.102 46.5469 129.953 46.1771 129.656 45.9219C129.401 45.6979 129.057 45.5859 128.625 45.5859C128.198 45.5859 127.844 45.6745 127.562 45.8516C127.281 46.0286 127.052 46.2552 126.875 46.5312C126.531 47.0729 126.359 47.724 126.359 48.4844C126.359 49.9062 126.792 50.8385 127.656 51.2812C127.969 51.4427 128.315 51.5234 128.695 51.5234C129.076 51.5234 129.388 51.4818 129.633 51.3984C129.878 51.3151 130.096 51.224 130.289 51.125C130.482 51.026 130.648 50.9349 130.789 50.8516C130.935 50.7682 131.055 50.7266 131.148 50.7266C131.336 50.7266 131.484 50.8125 131.594 50.9844L131.766 51.2734C131.844 51.4089 131.883 51.5417 131.883 51.6719C131.883 51.7969 131.831 51.9297 131.727 52.0703C131.622 52.2057 131.482 52.3307 131.305 52.4453C131.133 52.5599 130.935 52.6641 130.711 52.7578C130.487 52.8516 130.255 52.9323 130.016 53C128.87 53.3073 127.823 53.2604 126.875 52.8594C125.812 52.4115 125.081 51.6094 124.68 50.4531C124.482 49.8802 124.383 49.2396 124.383 48.5312C124.383 47.8229 124.487 47.1875 124.695 46.625C124.909 46.0625 125.203 45.5859 125.578 45.1953C126.354 44.3932 127.367 43.9922 128.617 43.9922C129.721 43.9922 130.568 44.2812 131.156 44.8594C131.651 45.3542 131.898 45.974 131.898 46.7188C131.898 47.349 131.576 47.6641 130.93 47.6641H130.742ZM134.008 44.75C134.008 44.375 134.172 44.1875 134.5 44.1875H134.922C135.208 44.1875 135.411 44.3125 135.531 44.5625C135.703 44.9271 135.828 45.4297 135.906 46.0703C135.906 46.0807 135.909 46.0859 135.914 46.0859C135.924 46.0859 135.943 45.9974 135.969 45.8203C135.995 45.6432 136.07 45.4271 136.195 45.1719C136.32 44.9115 136.474 44.6927 136.656 44.5156C137.026 44.1667 137.479 43.9922 138.016 43.9922C138.615 43.9922 139.031 44.0911 139.266 44.2891C139.375 44.3776 139.419 44.5 139.398 44.6562L139.273 45.6406C139.242 45.9062 139.107 46.0391 138.867 46.0391C138.753 46.0391 138.612 46.0156 138.445 45.9688C138.122 45.8854 137.867 45.8438 137.68 45.8438C137.492 45.8438 137.294 45.9271 137.086 46.0938C136.878 46.2552 136.698 46.4583 136.547 46.7031C136.24 47.2135 136.086 47.7578 136.086 48.3359V52.4844C136.086 52.6302 136.044 52.7526 135.961 52.8516C135.878 52.9505 135.758 53 135.602 53H134.695C134.529 53 134.401 52.9505 134.312 52.8516C134.229 52.7526 134.188 52.6302 134.188 52.4844V47.1016C134.188 46.1849 134.156 45.5807 134.094 45.2891C134.036 44.9922 134.008 44.8125 134.008 44.75ZM142.188 49.0234L142.18 49.1719C142.18 49.8854 142.406 50.4583 142.859 50.8906C143.333 51.349 143.977 51.5781 144.789 51.5781C145.529 51.5781 146.216 51.3568 146.852 50.9141C146.971 50.8307 147.078 50.7891 147.172 50.7891C147.365 50.7891 147.51 50.8854 147.609 51.0781L147.82 51.5156C147.867 51.6198 147.891 51.7318 147.891 51.8516C147.891 51.9714 147.836 52.0964 147.727 52.2266C147.622 52.3516 147.484 52.4661 147.312 52.5703C147.141 52.6745 146.94 52.7656 146.711 52.8438C146.487 52.9219 146.255 52.987 146.016 53.0391C145.536 53.1432 145.036 53.1953 144.516 53.1953C143.995 53.1953 143.469 53.0964 142.938 52.8984C142.411 52.7005 141.956 52.4115 141.57 52.0312C140.742 51.224 140.328 50.1328 140.328 48.7578C140.328 46.3464 141.177 44.8464 142.875 44.2578C143.406 44.0755 143.951 43.9844 144.508 43.9844C145.07 43.9844 145.547 44.0443 145.938 44.1641C146.333 44.2839 146.674 44.4609 146.961 44.6953C147.565 45.1901 147.867 45.8802 147.867 46.7656C147.867 47.6354 147.513 48.2995 146.805 48.7578C146.185 49.1589 145.367 49.3594 144.352 49.3594C143.727 49.3594 143.005 49.2474 142.188 49.0234ZM146.031 46.7422C146.031 45.9974 145.531 45.625 144.531 45.625C143.578 45.625 142.911 45.974 142.531 46.6719C142.396 46.9167 142.307 47.2188 142.266 47.5781C142.714 47.8021 143.284 47.9141 143.977 47.9141C145.346 47.9141 146.031 47.5234 146.031 46.7422ZM156.055 45.2891V39.6406C156.055 39.5052 156.094 39.3906 156.172 39.2969C156.255 39.1979 156.357 39.1484 156.477 39.1484H157.562C157.682 39.1484 157.781 39.1979 157.859 39.2969C157.938 39.3906 157.977 39.5052 157.977 39.6406V49.6562C157.977 50.7083 158.06 51.5807 158.227 52.2734C158.242 52.3464 158.25 52.4401 158.25 52.5547C158.25 52.6641 158.201 52.7656 158.102 52.8594C158.008 52.9531 157.885 53 157.734 53H157.352C157.044 53 156.839 52.875 156.734 52.625C156.599 52.3073 156.487 51.888 156.398 51.3672C155.997 52.2161 155.323 52.7812 154.375 53.0625C154.062 53.151 153.672 53.1953 153.203 53.1953C152.74 53.1953 152.276 53.0755 151.812 52.8359C151.354 52.5964 150.964 52.2708 150.641 51.8594C149.979 51.0052 149.648 49.9427 149.648 48.6719C149.648 47.3594 149.969 46.2708 150.609 45.4062C151.302 44.4635 152.227 43.9922 153.383 43.9922C154.539 43.9922 155.43 44.4245 156.055 45.2891ZM151.648 48.7266C151.648 49.0807 151.69 49.4271 151.773 49.7656C151.862 50.1042 151.995 50.4062 152.172 50.6719C152.568 51.276 153.115 51.5781 153.812 51.5781C154.448 51.5781 155.005 51.3021 155.484 50.75C155.995 50.1771 156.25 49.5 156.25 48.7188C156.25 47.7708 156.003 47.0104 155.508 46.4375C155.034 45.8906 154.451 45.6172 153.758 45.6172C153.034 45.6172 152.484 45.9583 152.109 46.6406C151.802 47.2135 151.648 47.9089 151.648 48.7266ZM161.828 42.6797C161.474 42.6797 161.172 42.5573 160.922 42.3125C160.672 42.0729 160.547 41.7708 160.547 41.4062C160.547 41.0521 160.672 40.75 160.922 40.5C161.161 40.2604 161.464 40.1406 161.828 40.1406C162.385 40.1406 162.776 40.3958 163 40.9062C163.068 41.0573 163.102 41.224 163.102 41.4062C163.102 41.7708 162.977 42.0729 162.727 42.3125C162.477 42.5573 162.177 42.6797 161.828 42.6797ZM162.742 50.8516C162.742 51.2214 162.865 51.4062 163.109 51.4062C163.193 51.4062 163.286 51.3828 163.391 51.3359C163.594 51.2474 163.732 51.2031 163.805 51.2031C163.914 51.2031 164.003 51.2786 164.07 51.4297L164.312 51.9766C164.354 52.0651 164.375 52.1484 164.375 52.2266C164.375 52.4505 164.182 52.6589 163.797 52.8516C163.432 53.0391 163.07 53.1328 162.711 53.1328C162.357 53.1328 162.073 53.0938 161.859 53.0156C161.646 52.9375 161.464 52.8073 161.312 52.625C161.01 52.25 160.859 51.6406 160.859 50.7969V44.7031C160.859 44.5573 160.901 44.4349 160.984 44.3359C161.068 44.237 161.167 44.1875 161.281 44.1875H162.328C162.448 44.1875 162.547 44.237 162.625 44.3359C162.703 44.4349 162.742 44.5573 162.742 44.7031V50.8516ZM170.992 45.375C170.992 45.6667 170.828 45.8125 170.5 45.8125H168.297V50.7188C168.297 51.25 168.56 51.5156 169.086 51.5156C169.419 51.5156 169.854 51.349 170.391 51.0156C170.495 50.9479 170.607 50.9141 170.727 50.9141C170.852 50.9141 170.951 51 171.023 51.1719L171.203 51.5781C171.271 51.7344 171.305 51.8672 171.305 51.9766C171.305 52.0859 171.221 52.2135 171.055 52.3594C170.893 52.5 170.685 52.6276 170.43 52.7422C169.852 53.0026 169.328 53.1328 168.859 53.1328C168.391 53.1328 168.018 53.0859 167.742 52.9922C167.471 52.8932 167.24 52.7474 167.047 52.5547C166.63 52.1484 166.422 51.5625 166.422 50.7969V45.8125H165.766C165.438 45.8125 165.273 45.6641 165.273 45.3672V44.9219C165.273 44.8021 165.305 44.7083 165.367 44.6406C165.43 44.5729 165.552 44.5208 165.734 44.4844L166.516 44.2578L166.812 42.4219C166.87 42.0781 167.01 41.9062 167.234 41.9062H167.883C168.003 41.9062 168.102 41.9557 168.18 42.0547C168.258 42.1484 168.297 42.2708 168.297 42.4219V44.1875H170.5C170.828 44.1875 170.992 44.3307 170.992 44.6172V45.375ZM182.758 47.6641C182.331 47.6641 182.117 47.4531 182.117 47.0312C182.117 46.5469 181.969 46.1771 181.672 45.9219C181.417 45.6979 181.073 45.5859 180.641 45.5859C180.214 45.5859 179.859 45.6745 179.578 45.8516C179.297 46.0286 179.068 46.2552 178.891 46.5312C178.547 47.0729 178.375 47.724 178.375 48.4844C178.375 49.9062 178.807 50.8385 179.672 51.2812C179.984 51.4427 180.331 51.5234 180.711 51.5234C181.091 51.5234 181.404 51.4818 181.648 51.3984C181.893 51.3151 182.112 51.224 182.305 51.125C182.497 51.026 182.664 50.9349 182.805 50.8516C182.951 50.7682 183.07 50.7266 183.164 50.7266C183.352 50.7266 183.5 50.8125 183.609 50.9844L183.781 51.2734C183.859 51.4089 183.898 51.5417 183.898 51.6719C183.898 51.7969 183.846 51.9297 183.742 52.0703C183.638 52.2057 183.497 52.3307 183.32 52.4453C183.148 52.5599 182.951 52.6641 182.727 52.7578C182.503 52.8516 182.271 52.9323 182.031 53C180.885 53.3073 179.839 53.2604 178.891 52.8594C177.828 52.4115 177.096 51.6094 176.695 50.4531C176.497 49.8802 176.398 49.2396 176.398 48.5312C176.398 47.8229 176.503 47.1875 176.711 46.625C176.924 46.0625 177.219 45.5859 177.594 45.1953C178.37 44.3932 179.383 43.9922 180.633 43.9922C181.737 43.9922 182.583 44.2812 183.172 44.8594C183.667 45.3542 183.914 45.974 183.914 46.7188C183.914 47.349 183.591 47.6641 182.945 47.6641H182.758ZM193.305 52.5859C193.305 52.862 193.169 53 192.898 53H192.141C191.938 53 191.815 52.9609 191.773 52.8828C191.732 52.7995 191.708 52.7266 191.703 52.6641C191.698 52.5964 191.688 52.5156 191.672 52.4219C191.641 52.1667 191.596 51.8906 191.539 51.5938C191.133 52.3385 190.495 52.8307 189.625 53.0703C189.318 53.1536 188.979 53.1953 188.609 53.1953C188.24 53.1953 187.87 53.1328 187.5 53.0078C187.13 52.888 186.802 52.7083 186.516 52.4688C185.87 51.9271 185.547 51.2161 185.547 50.3359C185.547 49.3724 185.901 48.6354 186.609 48.125C187.193 47.7135 187.943 47.5078 188.859 47.5078C189.776 47.5078 190.552 47.776 191.188 48.3125C191.203 48.1354 191.211 47.9141 191.211 47.6484C191.211 47.3828 191.159 47.1172 191.055 46.8516C190.951 46.5859 190.802 46.3646 190.609 46.1875C190.214 45.8385 189.661 45.6641 188.953 45.6641C188.318 45.6641 187.672 45.8385 187.016 46.1875C186.891 46.2552 186.781 46.2891 186.688 46.2891C186.547 46.2891 186.411 46.151 186.281 45.875C186.141 45.5938 186.07 45.3906 186.07 45.2656C186.07 45.0365 186.242 44.8151 186.586 44.6016C187.242 44.1953 188.12 43.9922 189.219 43.9922C190.219 43.9922 191.047 44.2656 191.703 44.8125C192.479 45.4688 192.867 46.3958 192.867 47.5938C192.867 48.125 192.781 48.7943 192.609 49.6016C193.052 50.862 193.284 51.8568 193.305 52.5859ZM188.07 49.2734C187.857 49.4297 187.703 49.5859 187.609 49.7422C187.521 49.8984 187.477 50.0833 187.477 50.2969C187.477 50.5052 187.513 50.6927 187.586 50.8594C187.664 51.0208 187.771 51.1562 187.906 51.2656C188.193 51.4896 188.513 51.6016 188.867 51.6016C189.227 51.6016 189.521 51.5599 189.75 51.4766C189.979 51.3932 190.177 51.2865 190.344 51.1562C190.703 50.875 190.883 50.5781 190.883 50.2656C190.852 49.875 190.635 49.5677 190.234 49.3438C189.875 49.1354 189.451 49.0312 188.961 49.0312C188.581 49.0312 188.284 49.112 188.07 49.2734ZM195.367 44.75C195.367 44.375 195.531 44.1875 195.859 44.1875H196.281C196.568 44.1875 196.771 44.3125 196.891 44.5625C197.062 44.9271 197.188 45.4297 197.266 46.0703C197.266 46.0807 197.268 46.0859 197.273 46.0859C197.284 46.0859 197.302 45.9974 197.328 45.8203C197.354 45.6432 197.43 45.4271 197.555 45.1719C197.68 44.9115 197.833 44.6927 198.016 44.5156C198.385 44.1667 198.839 43.9922 199.375 43.9922C199.974 43.9922 200.391 44.0911 200.625 44.2891C200.734 44.3776 200.779 44.5 200.758 44.6562L200.633 45.6406C200.602 45.9062 200.466 46.0391 200.227 46.0391C200.112 46.0391 199.971 46.0156 199.805 45.9688C199.482 45.8854 199.227 45.8438 199.039 45.8438C198.852 45.8438 198.654 45.9271 198.445 46.0938C198.237 46.2552 198.057 46.4583 197.906 46.7031C197.599 47.2135 197.445 47.7578 197.445 48.3359V52.4844C197.445 52.6302 197.404 52.7526 197.32 52.8516C197.237 52.9505 197.117 53 196.961 53H196.055C195.888 53 195.76 52.9505 195.672 52.8516C195.589 52.7526 195.547 52.6302 195.547 52.4844V47.1016C195.547 46.1849 195.516 45.5807 195.453 45.2891C195.396 44.9922 195.367 44.8125 195.367 44.75ZM208.07 45.2891V39.6406C208.07 39.5052 208.109 39.3906 208.188 39.2969C208.271 39.1979 208.372 39.1484 208.492 39.1484H209.578C209.698 39.1484 209.797 39.1979 209.875 39.2969C209.953 39.3906 209.992 39.5052 209.992 39.6406V49.6562C209.992 50.7083 210.076 51.5807 210.242 52.2734C210.258 52.3464 210.266 52.4401 210.266 52.5547C210.266 52.6641 210.216 52.7656 210.117 52.8594C210.023 52.9531 209.901 53 209.75 53H209.367C209.06 53 208.854 52.875 208.75 52.625C208.615 52.3073 208.503 51.888 208.414 51.3672C208.013 52.2161 207.339 52.7812 206.391 53.0625C206.078 53.151 205.688 53.1953 205.219 53.1953C204.755 53.1953 204.292 53.0755 203.828 52.8359C203.37 52.5964 202.979 52.2708 202.656 51.8594C201.995 51.0052 201.664 49.9427 201.664 48.6719C201.664 47.3594 201.984 46.2708 202.625 45.4062C203.318 44.4635 204.242 43.9922 205.398 43.9922C206.555 43.9922 207.445 44.4245 208.07 45.2891ZM203.664 48.7266C203.664 49.0807 203.706 49.4271 203.789 49.7656C203.878 50.1042 204.01 50.4062 204.188 50.6719C204.583 51.276 205.13 51.5781 205.828 51.5781C206.464 51.5781 207.021 51.3021 207.5 50.75C208.01 50.1771 208.266 49.5 208.266 48.7188C208.266 47.7708 208.018 47.0104 207.523 46.4375C207.049 45.8906 206.466 45.6172 205.773 45.6172C205.049 45.6172 204.5 45.9583 204.125 46.6406C203.818 47.2135 203.664 47.9089 203.664 48.7266ZM216.711 44.75C216.711 44.375 216.875 44.1875 217.203 44.1875H217.625C217.911 44.1875 218.115 44.3125 218.234 44.5625C218.406 44.9271 218.531 45.4297 218.609 46.0703C218.609 46.0807 218.612 46.0859 218.617 46.0859C218.628 46.0859 218.646 45.9974 218.672 45.8203C218.698 45.6432 218.773 45.4271 218.898 45.1719C219.023 44.9115 219.177 44.6927 219.359 44.5156C219.729 44.1667 220.182 43.9922 220.719 43.9922C221.318 43.9922 221.734 44.0911 221.969 44.2891C222.078 44.3776 222.122 44.5 222.102 44.6562L221.977 45.6406C221.945 45.9062 221.81 46.0391 221.57 46.0391C221.456 46.0391 221.315 46.0156 221.148 45.9688C220.826 45.8854 220.57 45.8438 220.383 45.8438C220.195 45.8438 219.997 45.9271 219.789 46.0938C219.581 46.2552 219.401 46.4583 219.25 46.7031C218.943 47.2135 218.789 47.7578 218.789 48.3359V52.4844C218.789 52.6302 218.747 52.7526 218.664 52.8516C218.581 52.9505 218.461 53 218.305 53H217.398C217.232 53 217.104 52.9505 217.016 52.8516C216.932 52.7526 216.891 52.6302 216.891 52.4844V47.1016C216.891 46.1849 216.859 45.5807 216.797 45.2891C216.74 44.9922 216.711 44.8125 216.711 44.75ZM224.891 49.0234L224.883 49.1719C224.883 49.8854 225.109 50.4583 225.562 50.8906C226.036 51.349 226.68 51.5781 227.492 51.5781C228.232 51.5781 228.919 51.3568 229.555 50.9141C229.674 50.8307 229.781 50.7891 229.875 50.7891C230.068 50.7891 230.214 50.8854 230.312 51.0781L230.523 51.5156C230.57 51.6198 230.594 51.7318 230.594 51.8516C230.594 51.9714 230.539 52.0964 230.43 52.2266C230.326 52.3516 230.188 52.4661 230.016 52.5703C229.844 52.6745 229.643 52.7656 229.414 52.8438C229.19 52.9219 228.958 52.987 228.719 53.0391C228.24 53.1432 227.74 53.1953 227.219 53.1953C226.698 53.1953 226.172 53.0964 225.641 52.8984C225.115 52.7005 224.659 52.4115 224.273 52.0312C223.445 51.224 223.031 50.1328 223.031 48.7578C223.031 46.3464 223.88 44.8464 225.578 44.2578C226.109 44.0755 226.654 43.9844 227.211 43.9844C227.773 43.9844 228.25 44.0443 228.641 44.1641C229.036 44.2839 229.378 44.4609 229.664 44.6953C230.268 45.1901 230.57 45.8802 230.57 46.7656C230.57 47.6354 230.216 48.2995 229.508 48.7578C228.888 49.1589 228.07 49.3594 227.055 49.3594C226.43 49.3594 225.708 49.2474 224.891 49.0234ZM228.734 46.7422C228.734 45.9974 228.234 45.625 227.234 45.625C226.281 45.625 225.615 45.974 225.234 46.6719C225.099 46.9167 225.01 47.2188 224.969 47.5781C225.417 47.8021 225.987 47.9141 226.68 47.9141C228.049 47.9141 228.734 47.5234 228.734 46.7422ZM240.109 44.1875C240.438 44.1875 240.602 44.3906 240.602 44.7969V56.8906C240.602 57.026 240.562 57.1458 240.484 57.25C240.406 57.3542 240.307 57.4062 240.188 57.4062H239.102C238.982 57.4062 238.88 57.3542 238.797 57.25C238.719 57.1458 238.68 57.026 238.68 56.8906V53.6094C238.68 53.1875 238.708 52.5182 238.766 51.6016C238.349 52.3516 237.721 52.8438 236.883 53.0781C236.602 53.1562 236.24 53.1953 235.797 53.1953C235.354 53.1953 234.909 53.0703 234.461 52.8203C234.018 52.5651 233.646 52.224 233.344 51.7969C232.724 50.9323 232.414 49.8333 232.414 48.5C232.414 47.2396 232.781 46.1719 233.516 45.2969C234.245 44.4271 235.104 43.9922 236.094 43.9922C236.74 43.9922 237.284 44.1198 237.727 44.375C238.174 44.6302 238.562 45.0104 238.891 45.5156L239.078 44.7656L239.148 44.5078C239.19 44.362 239.253 44.2734 239.336 44.2422C239.424 44.2057 239.521 44.1875 239.625 44.1875H240.109ZM236.5 51.5781C236.844 51.5781 237.159 51.4948 237.445 51.3281C237.732 51.1615 237.979 50.9375 238.188 50.6562C238.625 50.0521 238.844 49.349 238.844 48.5469C238.844 47.6823 238.599 46.974 238.109 46.4219C237.641 45.8906 237.081 45.625 236.43 45.625C235.784 45.625 235.279 45.9219 234.914 46.5156C234.586 47.0469 234.422 47.724 234.422 48.5469C234.422 49.3906 234.591 50.0885 234.93 50.6406C235.31 51.2656 235.833 51.5781 236.5 51.5781ZM251.492 52.4688C251.492 52.8229 251.331 53 251.008 53H250.656C250.344 53 250.138 52.875 250.039 52.625C249.93 52.3385 249.812 51.9401 249.688 51.4297C249.469 51.9766 249.096 52.4089 248.57 52.7266C248.049 53.0391 247.398 53.1953 246.617 53.1953C245.596 53.1953 244.844 52.8776 244.359 52.2422C243.875 51.6016 243.633 50.6589 243.633 49.4141V44.7031C243.633 44.5573 243.677 44.4349 243.766 44.3359C243.859 44.237 243.99 44.1875 244.156 44.1875H245.016C245.359 44.1875 245.531 44.3594 245.531 44.7031V49.3281C245.531 50.5729 245.82 51.2917 246.398 51.4844C246.586 51.5469 246.807 51.5781 247.062 51.5781C247.323 51.5781 247.589 51.5182 247.859 51.3984C248.135 51.2786 248.383 51.1198 248.602 50.9219C249.091 50.4688 249.336 49.9505 249.336 49.3672V44.7031C249.336 44.5573 249.38 44.4349 249.469 44.3359C249.557 44.237 249.698 44.1875 249.891 44.1875H250.711C250.893 44.1875 251.026 44.237 251.109 44.3359C251.193 44.4349 251.234 44.5573 251.234 44.7031V49.5859C251.234 50.6849 251.312 51.5703 251.469 52.2422C251.484 52.2995 251.492 52.375 251.492 52.4688ZM255.203 42.6797C254.849 42.6797 254.547 42.5573 254.297 42.3125C254.047 42.0729 253.922 41.7708 253.922 41.4062C253.922 41.0521 254.047 40.75 254.297 40.5C254.536 40.2604 254.839 40.1406 255.203 40.1406C255.76 40.1406 256.151 40.3958 256.375 40.9062C256.443 41.0573 256.477 41.224 256.477 41.4062C256.477 41.7708 256.352 42.0729 256.102 42.3125C255.852 42.5573 255.552 42.6797 255.203 42.6797ZM256.117 50.8516C256.117 51.2214 256.24 51.4062 256.484 51.4062C256.568 51.4062 256.661 51.3828 256.766 51.3359C256.969 51.2474 257.107 51.2031 257.18 51.2031C257.289 51.2031 257.378 51.2786 257.445 51.4297L257.688 51.9766C257.729 52.0651 257.75 52.1484 257.75 52.2266C257.75 52.4505 257.557 52.6589 257.172 52.8516C256.807 53.0391 256.445 53.1328 256.086 53.1328C255.732 53.1328 255.448 53.0938 255.234 53.0156C255.021 52.9375 254.839 52.8073 254.688 52.625C254.385 52.25 254.234 51.6406 254.234 50.7969V44.7031C254.234 44.5573 254.276 44.4349 254.359 44.3359C254.443 44.237 254.542 44.1875 254.656 44.1875H255.703C255.823 44.1875 255.922 44.237 256 44.3359C256.078 44.4349 256.117 44.5573 256.117 44.7031V50.8516ZM259.398 44.75C259.398 44.375 259.562 44.1875 259.891 44.1875H260.312C260.599 44.1875 260.802 44.3125 260.922 44.5625C261.094 44.9271 261.219 45.4297 261.297 46.0703C261.297 46.0807 261.299 46.0859 261.305 46.0859C261.315 46.0859 261.333 45.9974 261.359 45.8203C261.385 45.6432 261.461 45.4271 261.586 45.1719C261.711 44.9115 261.865 44.6927 262.047 44.5156C262.417 44.1667 262.87 43.9922 263.406 43.9922C264.005 43.9922 264.422 44.0911 264.656 44.2891C264.766 44.3776 264.81 44.5 264.789 44.6562L264.664 45.6406C264.633 45.9062 264.497 46.0391 264.258 46.0391C264.143 46.0391 264.003 46.0156 263.836 45.9688C263.513 45.8854 263.258 45.8438 263.07 45.8438C262.883 45.8438 262.685 45.9271 262.477 46.0938C262.268 46.2552 262.089 46.4583 261.938 46.7031C261.63 47.2135 261.477 47.7578 261.477 48.3359V52.4844C261.477 52.6302 261.435 52.7526 261.352 52.8516C261.268 52.9505 261.148 53 260.992 53H260.086C259.919 53 259.792 52.9505 259.703 52.8516C259.62 52.7526 259.578 52.6302 259.578 52.4844V47.1016C259.578 46.1849 259.547 45.5807 259.484 45.2891C259.427 44.9922 259.398 44.8125 259.398 44.75ZM267.578 49.0234L267.57 49.1719C267.57 49.8854 267.797 50.4583 268.25 50.8906C268.724 51.349 269.367 51.5781 270.18 51.5781C270.919 51.5781 271.607 51.3568 272.242 50.9141C272.362 50.8307 272.469 50.7891 272.562 50.7891C272.755 50.7891 272.901 50.8854 273 51.0781L273.211 51.5156C273.258 51.6198 273.281 51.7318 273.281 51.8516C273.281 51.9714 273.227 52.0964 273.117 52.2266C273.013 52.3516 272.875 52.4661 272.703 52.5703C272.531 52.6745 272.331 52.7656 272.102 52.8438C271.878 52.9219 271.646 52.987 271.406 53.0391C270.927 53.1432 270.427 53.1953 269.906 53.1953C269.385 53.1953 268.859 53.0964 268.328 52.8984C267.802 52.7005 267.346 52.4115 266.961 52.0312C266.133 51.224 265.719 50.1328 265.719 48.7578C265.719 46.3464 266.568 44.8464 268.266 44.2578C268.797 44.0755 269.341 43.9844 269.898 43.9844C270.461 43.9844 270.938 44.0443 271.328 44.1641C271.724 44.2839 272.065 44.4609 272.352 44.6953C272.956 45.1901 273.258 45.8802 273.258 46.7656C273.258 47.6354 272.904 48.2995 272.195 48.7578C271.576 49.1589 270.758 49.3594 269.742 49.3594C269.117 49.3594 268.396 49.2474 267.578 49.0234ZM271.422 46.7422C271.422 45.9974 270.922 45.625 269.922 45.625C268.969 45.625 268.302 45.974 267.922 46.6719C267.786 46.9167 267.698 47.2188 267.656 47.5781C268.104 47.8021 268.674 47.9141 269.367 47.9141C270.737 47.9141 271.422 47.5234 271.422 46.7422ZM281.445 45.2891V39.6406C281.445 39.5052 281.484 39.3906 281.562 39.2969C281.646 39.1979 281.747 39.1484 281.867 39.1484H282.953C283.073 39.1484 283.172 39.1979 283.25 39.2969C283.328 39.3906 283.367 39.5052 283.367 39.6406V49.6562C283.367 50.7083 283.451 51.5807 283.617 52.2734C283.633 52.3464 283.641 52.4401 283.641 52.5547C283.641 52.6641 283.591 52.7656 283.492 52.8594C283.398 52.9531 283.276 53 283.125 53H282.742C282.435 53 282.229 52.875 282.125 52.625C281.99 52.3073 281.878 51.888 281.789 51.3672C281.388 52.2161 280.714 52.7812 279.766 53.0625C279.453 53.151 279.062 53.1953 278.594 53.1953C278.13 53.1953 277.667 53.0755 277.203 52.8359C276.745 52.5964 276.354 52.2708 276.031 51.8594C275.37 51.0052 275.039 49.9427 275.039 48.6719C275.039 47.3594 275.359 46.2708 276 45.4062C276.693 44.4635 277.617 43.9922 278.773 43.9922C279.93 43.9922 280.82 44.4245 281.445 45.2891ZM277.039 48.7266C277.039 49.0807 277.081 49.4271 277.164 49.7656C277.253 50.1042 277.385 50.4062 277.562 50.6719C277.958 51.276 278.505 51.5781 279.203 51.5781C279.839 51.5781 280.396 51.3021 280.875 50.75C281.385 50.1771 281.641 49.5 281.641 48.7188C281.641 47.7708 281.393 47.0104 280.898 46.4375C280.424 45.8906 279.841 45.6172 279.148 45.6172C278.424 45.6172 277.875 45.9583 277.5 46.6406C277.193 47.2135 277.039 47.9089 277.039 48.7266ZM287.227 49C287.107 49 287.005 48.9531 286.922 48.8594C286.839 48.7604 286.797 48.6432 286.797 48.5078L286.398 41.0703C286.398 40.9349 286.44 40.8203 286.523 40.7266C286.612 40.6276 286.716 40.5781 286.836 40.5781H288.164C288.294 40.5781 288.398 40.6276 288.477 40.7266C288.56 40.8203 288.599 40.9349 288.594 41.0703L288.289 48.5078C288.289 48.6432 288.245 48.7604 288.156 48.8594C288.073 48.9531 287.971 49 287.852 49H287.227ZM286.195 51.8203C286.195 51.4505 286.328 51.1302 286.594 50.8594C286.849 50.5938 287.164 50.4609 287.539 50.4609C287.909 50.4609 288.221 50.5938 288.477 50.8594C288.737 51.1302 288.867 51.4505 288.867 51.8203C288.867 52.1953 288.737 52.5182 288.477 52.7891C288.216 53.0599 287.904 53.1953 287.539 53.1953C287.169 53.1953 286.854 53.0599 286.594 52.7891C286.328 52.5182 286.195 52.1953 286.195 51.8203Z" fill="#0090FF"/>
</svg>
