<svg width="23" height="19" viewBox="0 0 23 19" fill="none" xmlns="http://www.w3.org/2000/svg">
<path fill-rule="evenodd" clip-rule="evenodd" d="M1.86207 3.92415C2.89046 3.92415 3.72414 3.09047 3.72414 2.06208C3.72414 1.03369 2.89046 0.200012 1.86207 0.200012C0.833677 0.200012 0 1.03369 0 2.06208C0 3.09047 0.833677 3.92415 1.86207 3.92415ZM6.82754 1.06209C6.27526 1.06209 5.82754 1.5098 5.82754 2.06209C5.82754 2.61437 6.27526 3.06209 6.82754 3.06209H21.1034C21.6557 3.06209 22.1034 2.61437 22.1034 2.06209C22.1034 1.5098 21.6557 1.06209 21.1034 1.06209H6.82754ZM6.82754 7.88967C6.27526 7.88967 5.82754 8.33739 5.82754 8.88967C5.82754 9.44196 6.27526 9.88967 6.82754 9.88967H21.1034C21.6557 9.88967 22.1034 9.44196 22.1034 8.88967C22.1034 8.33739 21.6557 7.88967 21.1034 7.88967H6.82754ZM5.82754 16.3379C5.82754 15.7857 6.27526 15.3379 6.82754 15.3379H21.1034C21.6557 15.3379 22.1034 15.7857 22.1034 16.3379C22.1034 16.8902 21.6557 17.3379 21.1034 17.3379H6.82754C6.27526 17.3379 5.82754 16.8902 5.82754 16.3379ZM3.72414 8.88967C3.72414 9.91806 2.89046 10.7517 1.86207 10.7517C0.833677 10.7517 0 9.91806 0 8.88967C0 7.86127 0.833677 7.0276 1.86207 7.0276C2.89046 7.0276 3.72414 7.86127 3.72414 8.88967ZM1.86207 18.2C2.89046 18.2 3.72414 17.3663 3.72414 16.3379C3.72414 15.3096 2.89046 14.4759 1.86207 14.4759C0.833677 14.4759 0 15.3096 0 16.3379C0 17.3663 0.833677 18.2 1.86207 18.2Z" fill="black"/>
</svg>
