<svg width="10" height="10" viewBox="0 0 10 10" fill="none" xmlns="http://www.w3.org/2000/svg">
<path d="M9.78045 4.3693L9.10045 3.5793C8.97045 3.4293 8.86545 3.1493 8.86545 2.9493V2.0993C8.86545 1.5693 8.43045 1.1343 7.90045 1.1343H7.05045C6.85545 1.1343 6.57045 1.0293 6.42045 0.899297L5.63045 0.219297C5.28545 -0.0757031 4.72045 -0.0757031 4.37045 0.219297L3.58543 0.904297C3.43543 1.0293 3.15043 1.1343 2.95543 1.1343H2.09043C1.56043 1.1343 1.12543 1.5693 1.12543 2.0993V2.9543C1.12543 3.1493 1.02043 3.4293 0.89543 3.5793L0.22043 4.3743C-0.0695703 4.7193 -0.0695703 5.2793 0.22043 5.6243L0.89543 6.4193C1.02043 6.5693 1.12543 6.8493 1.12543 7.0443V7.8993C1.12543 8.4293 1.56043 8.8643 2.09043 8.8643H2.95543C3.15043 8.8643 3.43543 8.9693 3.58543 9.0993L4.37545 9.7793C4.72045 10.0743 5.28545 10.0743 5.63545 9.7793L6.42545 9.0993C6.57545 8.9693 6.85545 8.8643 7.05545 8.8643H7.90545C8.43545 8.8643 8.87045 8.4293 8.87045 7.8993V7.0493C8.87045 6.8543 8.97545 6.5693 9.10545 6.4193L9.78545 5.6293C10.0754 5.2843 10.0754 4.7143 9.78045 4.3693ZM7.08045 4.0543L4.66545 6.4693C4.59545 6.5393 4.50045 6.5793 4.40045 6.5793C4.30045 6.5793 4.20545 6.5393 4.13545 6.4693L2.92543 5.2593C2.78043 5.1143 2.78043 4.8743 2.92543 4.7293C3.07043 4.5843 3.31043 4.5843 3.45543 4.7293L4.40045 5.6743L6.55045 3.5243C6.69545 3.3793 6.93545 3.3793 7.08045 3.5243C7.22545 3.6693 7.22545 3.9093 7.08045 4.0543Z" fill="#4F78DA"/>
</svg>
