<svg width="18" height="19" viewBox="0 0 18 19" fill="none" xmlns="http://www.w3.org/2000/svg">
<path d="M8.55263 0.666672C6.65424 0.666672 4.8336 1.42524 3.49124 2.7755C2.14887 4.12576 1.39474 5.95711 1.39474 7.86667V9.57667C1.12482 9.81323 0.906125 10.1031 0.75221 10.4282C0.598295 10.7533 0.512449 11.1068 0.5 11.4667C0.52038 11.9885 0.69701 12.492 1.00675 12.9112C1.31648 13.3303 1.74487 13.6456 2.23579 13.8157C3.39895 16.6147 5.73421 18.6667 8.55263 18.6667H11.2368V16.8667H8.55263C6.53053 16.8667 4.69632 15.3367 3.77474 12.9157L3.58684 12.4207L3.05895 12.3667C2.84396 12.3361 2.64736 12.228 2.50579 12.0624C2.36422 11.8968 2.28734 11.6851 2.28947 11.4667C2.29042 11.3096 2.33221 11.1555 2.41069 11.0197C2.48917 10.884 2.60161 10.7712 2.73684 10.6927L3.18421 10.4317V8.76667C3.18421 8.52798 3.27848 8.29906 3.44627 8.13028C3.61407 7.96149 3.84165 7.86667 4.07895 7.86667H13.0263C13.2636 7.86667 13.4912 7.96149 13.659 8.13028C13.8268 8.29906 13.9211 8.52798 13.9211 8.76667V13.2667H10.2616C10.1804 13.0376 10.0391 12.8348 9.85274 12.6798C9.66638 12.5247 9.44184 12.4233 9.20287 12.386C8.96389 12.3488 8.71936 12.3772 8.49511 12.4682C8.27086 12.5593 8.07524 12.7096 7.92891 12.9033C7.78259 13.0969 7.691 13.3268 7.66384 13.5685C7.63667 13.8102 7.67493 14.0548 7.77458 14.2764C7.87423 14.498 8.03156 14.6885 8.22994 14.8276C8.42831 14.9667 8.66037 15.0493 8.90158 15.0667H15.7105C16.1851 15.0667 16.6403 14.877 16.9759 14.5395C17.3115 14.2019 17.5 13.7441 17.5 13.2667V11.4667C17.5 10.9893 17.3115 10.5314 16.9759 10.1939C16.6403 9.85631 16.1851 9.66667 15.7105 9.66667V7.86667C15.7105 5.95711 14.9564 4.12576 13.614 2.7755C12.2717 1.42524 10.451 0.666672 8.55263 0.666672Z" fill="black"/>
</svg>
