<svg width="9" height="9" viewBox="0 0 9 9" fill="none" xmlns="http://www.w3.org/2000/svg">
<path d="M8.26316 5.47167C8.15305 6.2551 7.81311 6.98828 7.28631 7.57851C6.75952 8.16873 6.06953 8.58949 5.30361 8.78757C4.53768 8.98565 3.73022 8.95216 2.98332 8.69134C2.23643 8.43051 1.58366 7.95406 1.10754 7.32224C0.631434 6.69042 0.353371 5.9316 0.30852 5.14175C0.263669 4.3519 0.454044 3.56648 0.85557 2.88483C1.2571 2.20317 1.85174 1.65589 2.56431 1.31219C3.27687 0.968488 4.07535 0.843806 4.85878 0.953909C5.37895 1.02702 5.87964 1.20186 6.33224 1.46846C6.78484 1.73507 7.1805 2.08821 7.49663 2.50772C7.81275 2.92723 8.04315 3.40491 8.17468 3.91346C8.3062 4.42202 8.33626 4.9515 8.26316 5.47167ZM6.83693 3.02989C6.71782 2.87182 6.21641 3.0488 6.05834 3.16792L5.08419 3.90244L5.07704 3.89889L2.78069 2.91442C2.73006 2.896 2.6758 2.88978 2.62232 2.89627C2.56883 2.90276 2.51764 2.92178 2.47288 2.95177L2.22865 3.13581C2.2106 3.1474 2.19575 3.16335 2.18548 3.18218C2.17521 3.20102 2.16984 3.22213 2.16988 3.24359C2.16991 3.26504 2.17535 3.28614 2.18568 3.30494C2.19601 3.32374 2.2109 3.33964 2.22899 3.35117L3.69362 4.45242L3.93314 4.77027L3.09329 5.40224C3.00621 5.47602 2.92967 5.5614 2.86579 5.65599L2.34894 5.41651C2.29917 5.39677 2.24536 5.38943 2.19212 5.3951C2.13889 5.40077 2.08783 5.41929 2.04334 5.44907L1.96808 5.50533C1.9301 5.53396 1.90504 5.5765 1.89842 5.6236C1.8918 5.6707 1.90416 5.7185 1.93279 5.75649L2.26647 6.19931L2.27299 6.20737L2.52534 6.54284L2.53179 6.5514L2.86497 6.99414C2.89368 7.03201 2.93621 7.05698 2.98327 7.0636C3.03034 7.07021 3.0781 7.05793 3.11614 7.02944L3.19146 6.97268C3.23238 6.93815 3.26428 6.89418 3.28441 6.84456C3.30454 6.79495 3.31229 6.74118 3.307 6.6879L3.21883 6.12448C3.32738 6.08893 3.43056 6.03871 3.52552 5.97524L4.36443 5.34262L4.60402 5.65997L5.25791 7.37126C5.264 7.39183 5.27518 7.41053 5.29041 7.42565C5.30563 7.44076 5.32441 7.4518 5.34503 7.45774C5.36564 7.46369 5.38742 7.46435 5.40835 7.45967C5.42929 7.45499 5.44871 7.44512 5.46482 7.43096L5.70906 7.24691C5.75031 7.21212 5.78275 7.16807 5.80375 7.11835C5.82474 7.06864 5.8337 7.01466 5.82988 6.96083L5.51686 4.48315L5.51549 4.4748L6.48964 3.74027C6.64771 3.62116 6.95597 3.18846 6.83693 3.02989Z" fill="white"/>
</svg>
