<svg width="41" height="73" viewBox="0 0 41 73" fill="none" xmlns="http://www.w3.org/2000/svg">
<path d="M13.9578 20.9777L11.5611 21.5135C11.5214 21.5227 11.4976 21.5073 11.4888 21.468L11.1744 20.063C11.1657 20.0237 11.1806 20 11.2204 19.9912L14.0986 19.347C14.157 19.3341 14.1874 19.2856 14.1746 19.2268L13.9392 18.1758C13.9263 18.1169 13.8778 18.0865 13.82 18.0994L9.53652 19.0574C9.47762 19.0708 9.44676 19.1194 9.46012 19.1782L10.9107 25.6616C10.9241 25.7205 10.9721 25.7505 11.0314 25.737L12.2786 25.4583C12.3374 25.4449 12.3679 25.3974 12.3544 25.3386L11.7918 22.8237C11.783 22.7844 11.7985 22.7601 11.8382 22.7513L14.2348 22.2151C14.2937 22.2022 14.3242 22.1537 14.3107 22.0948L14.0779 21.0536C14.0646 20.9947 14.0167 20.9643 13.9578 20.9777Z" fill="black"/>
<path d="M19.6293 20.926C20.2931 20.4366 20.593 19.6577 20.402 18.8034C20.1295 17.5851 19.0347 16.9327 17.6687 17.2383L15.0072 17.834C14.9484 17.8469 14.9174 17.8949 14.9308 17.9543L16.3813 24.4372C16.3947 24.496 16.4427 24.5265 16.5021 24.5136L17.7493 24.2344C17.8081 24.2209 17.8386 24.173 17.8251 24.1141L17.2909 21.7272C17.2826 21.688 17.2976 21.6637 17.3374 21.6549L18.2309 21.4551L19.9276 23.6438C19.972 23.7063 20.0087 23.729 20.0969 23.7094L21.4922 23.3966C21.5608 23.3816 21.5763 23.3161 21.5345 23.2634L19.6293 20.926ZM18.2412 20.1636L17.0628 20.4274C17.023 20.4362 16.9988 20.4207 16.99 20.3814L16.6451 18.839C16.6364 18.7998 16.6513 18.776 16.6911 18.7672L17.8695 18.5035C18.4197 18.3801 18.8462 18.6248 18.9582 19.1265C19.0723 19.6371 18.7915 20.0402 18.2412 20.1636Z" fill="black"/>
<path d="M26.6347 20.9364L23.7565 21.5806C23.7172 21.5894 23.6934 21.5745 23.6841 21.5347L23.3744 20.1498C23.3657 20.1105 23.3806 20.0867 23.4198 20.0775L25.8171 19.5417C25.8759 19.5283 25.9069 19.4798 25.8935 19.4209L25.6607 18.3802C25.6472 18.3209 25.5987 18.2904 25.5399 18.3038L23.1432 18.8397C23.104 18.8489 23.0802 18.8334 23.0709 18.7942L22.7746 17.4681C22.7658 17.4289 22.7808 17.4047 22.8201 17.3964L25.6983 16.7522C25.7566 16.7387 25.7872 16.6908 25.7742 16.632L25.5388 15.581C25.5259 15.5216 25.4774 15.4917 25.4196 15.5046L21.1362 16.4627C21.0773 16.4761 21.0463 16.5241 21.0597 16.5829L22.5102 23.0663C22.5237 23.1252 22.5717 23.1556 22.6311 23.1422L26.9139 22.1841C26.9722 22.1712 27.0027 22.1227 26.9893 22.0638L26.7544 21.0129C26.7411 20.954 26.693 20.9234 26.6347 20.9364Z" fill="black"/>
<path d="M2.0071 69V57.3636H9.46165V59.1307H4.11506V62.2898H8.95028V64.0568H4.11506V69H2.0071ZM11.1662 69V60.2727H13.1605V61.7273H13.2514C13.4105 61.2235 13.6832 60.8352 14.0696 60.5625C14.4598 60.286 14.9048 60.1477 15.4048 60.1477C15.5185 60.1477 15.6454 60.1534 15.7855 60.1648C15.9295 60.1723 16.0488 60.1856 16.1435 60.2045V62.0966C16.0563 62.0663 15.9181 62.0398 15.7287 62.017C15.5431 61.9905 15.3632 61.9773 15.1889 61.9773C14.8139 61.9773 14.4768 62.0587 14.1776 62.2216C13.8821 62.3807 13.6491 62.6023 13.4787 62.8864C13.3082 63.1705 13.223 63.4981 13.223 63.8693V69H11.1662ZM21.0142 69.1705C20.1392 69.1705 19.3835 68.9886 18.7472 68.625C18.1146 68.2576 17.6278 67.7386 17.2869 67.0682C16.946 66.3939 16.7756 65.6004 16.7756 64.6875C16.7756 63.7898 16.946 63.0019 17.2869 62.3239C17.6316 61.642 18.1127 61.1117 18.7301 60.733C19.3475 60.3504 20.0729 60.1591 20.9062 60.1591C21.4441 60.1591 21.9517 60.2462 22.429 60.4205C22.91 60.5909 23.3343 60.8561 23.7017 61.2159C24.0729 61.5758 24.3646 62.0341 24.5767 62.5909C24.7888 63.1439 24.8949 63.803 24.8949 64.5682V65.1989H17.7415V63.8125H22.9233C22.9195 63.4186 22.8343 63.0682 22.6676 62.7614C22.5009 62.4508 22.268 62.2064 21.9688 62.0284C21.6733 61.8504 21.3286 61.7614 20.9347 61.7614C20.5142 61.7614 20.1449 61.8636 19.8267 62.0682C19.5085 62.2689 19.2604 62.5341 19.0824 62.8636C18.9081 63.1894 18.8191 63.5473 18.8153 63.9375V65.1477C18.8153 65.6553 18.9081 66.0909 19.0938 66.4545C19.2794 66.8144 19.5388 67.0909 19.8722 67.2841C20.2055 67.4735 20.5956 67.5682 21.0426 67.5682C21.3419 67.5682 21.6127 67.5265 21.8551 67.4432C22.0975 67.3561 22.3078 67.2292 22.4858 67.0625C22.6638 66.8958 22.7983 66.6894 22.8892 66.4432L24.8097 66.6591C24.6884 67.1667 24.4574 67.6098 24.1165 67.9886C23.7794 68.3636 23.3475 68.6553 22.821 68.8636C22.2945 69.0682 21.6922 69.1705 21.0142 69.1705ZM30.4986 69.1705C29.6236 69.1705 28.8679 68.9886 28.2315 68.625C27.599 68.2576 27.1122 67.7386 26.7713 67.0682C26.4304 66.3939 26.2599 65.6004 26.2599 64.6875C26.2599 63.7898 26.4304 63.0019 26.7713 62.3239C27.116 61.642 27.5971 61.1117 28.2145 60.733C28.8319 60.3504 29.5573 60.1591 30.3906 60.1591C30.9285 60.1591 31.4361 60.2462 31.9134 60.4205C32.3944 60.5909 32.8187 60.8561 33.1861 61.2159C33.5573 61.5758 33.849 62.0341 34.0611 62.5909C34.2732 63.1439 34.3793 63.803 34.3793 64.5682V65.1989H27.2259V63.8125H32.4077C32.4039 63.4186 32.3187 63.0682 32.152 62.7614C31.9853 62.4508 31.7524 62.2064 31.4531 62.0284C31.1577 61.8504 30.813 61.7614 30.419 61.7614C29.9986 61.7614 29.6293 61.8636 29.3111 62.0682C28.9929 62.2689 28.7448 62.5341 28.5668 62.8636C28.3925 63.1894 28.3035 63.5473 28.2997 63.9375V65.1477C28.2997 65.6553 28.3925 66.0909 28.5781 66.4545C28.7637 66.8144 29.0232 67.0909 29.3565 67.2841C29.6899 67.4735 30.08 67.5682 30.527 67.5682C30.8262 67.5682 31.0971 67.5265 31.3395 67.4432C31.5819 67.3561 31.7921 67.2292 31.9702 67.0625C32.1482 66.8958 32.2827 66.6894 32.3736 66.4432L34.294 66.6591C34.1728 67.1667 33.9418 67.6098 33.6009 67.9886C33.2637 68.3636 32.8319 68.6553 32.3054 68.8636C31.7789 69.0682 31.1766 69.1705 30.4986 69.1705Z" fill="black"/>
<path d="M41 19.9994L36.0544 15.9658L38.3199 10.0007L32.0203 8.9796L30.9998 2.67999L25.0336 4.94616L21 0.00100708L20.3858 0.754132L16.9655 4.94616L11.0008 2.68007L9.97922 8.97968L3.68062 10.0008L5.9457 15.9659L1 19.9994L5.9457 24.0335L3.68062 29.9992L9.97922 31.0208L11.0003 37.3199L16.9655 35.0543L21 39.999L25.0336 35.0543L30.9998 37.3199L32.0203 31.0208L38.3205 29.9992L36.0544 24.0335L41 19.9994ZM36.1473 28.7449L30.6379 29.6384L29.7454 35.1473L24.5277 33.1656L21 37.4908L17.4713 33.1655L12.2546 35.1473L11.3616 29.6383L5.85273 28.7454L7.83383 23.5272L3.50922 20L7.83391 16.4723L5.85281 11.2551L11.3616 10.3621L12.2547 4.85319L17.4713 6.83437L21 2.50976L24.5277 6.83444L29.7454 4.85273L30.6379 10.3621L36.1473 11.2551L34.1661 16.4723L38.4908 20L34.1661 23.5272L36.1473 28.7449Z" fill="black"/>
<path d="M32.1826 19.6955L29.3047 20.3392C29.2655 20.348 29.2413 20.3325 29.2325 20.2933L28.9228 18.9083C28.914 18.869 28.9295 18.8448 28.9687 18.8365L31.3649 18.2997C31.4248 18.2868 31.4547 18.2387 31.4418 18.1799L31.209 17.1382C31.1955 17.0794 31.1476 17.049 31.0882 17.0618L28.6915 17.5987C28.6522 17.6069 28.6284 17.5919 28.6197 17.5527L28.3229 16.2266C28.3141 16.1874 28.329 16.1637 28.3683 16.1544L31.2461 15.5106C31.306 15.4972 31.3364 15.4492 31.3235 15.3904L31.0881 14.3394C31.0747 14.2801 31.0272 14.2496 30.9673 14.263L26.685 15.2211C26.6262 15.2344 26.5951 15.2825 26.6086 15.3413L28.059 21.8247C28.0725 21.8836 28.1204 21.914 28.1794 21.9007L32.4617 20.9426C32.5215 20.9292 32.552 20.8812 32.5386 20.8223L32.3032 19.7714C32.2905 19.7125 32.2425 19.682 32.1826 19.6955Z" fill="black"/>
</svg>
