<svg width="224" height="59" viewBox="0 0 224 59" fill="none" xmlns="http://www.w3.org/2000/svg">
<path d="M5.61967 19L0.488281 0.818181H4.03054L7.30646 14.1793H7.47514L10.973 0.818181H14.1957L17.7024 14.1882H17.8622L21.1381 0.818181H24.6804L19.549 19H16.2997L12.6598 6.24254H12.5178L8.86896 19H5.61967ZM31.4675 19.2663C30.1003 19.2663 28.9196 18.9822 27.9252 18.4141C26.9368 17.84 26.1763 17.0291 25.6436 15.9815C25.111 14.928 24.8446 13.6881 24.8446 12.2617C24.8446 10.859 25.111 9.62796 25.6436 8.56854C26.1822 7.5032 26.9339 6.6746 27.8986 6.08274C28.8633 5.48497 29.9967 5.18608 31.2988 5.18608C32.1393 5.18608 32.9324 5.32221 33.6781 5.59446C34.4297 5.86079 35.0926 6.27509 35.6667 6.83736C36.2467 7.39962 36.7025 8.11577 37.0339 8.9858C37.3654 9.84991 37.5311 10.8797 37.5311 12.0753V13.0607H26.3539V10.8945H34.4505C34.4445 10.279 34.3114 9.73153 34.051 9.25213C33.7905 8.76681 33.4266 8.38506 32.959 8.10689C32.4973 7.82872 31.9587 7.68963 31.3432 7.68963C30.6863 7.68963 30.1092 7.84943 29.612 8.16903C29.1149 8.48272 28.7272 8.89702 28.449 9.41193C28.1768 9.92093 28.0377 10.4802 28.0318 11.0898V12.9808C28.0318 13.7739 28.1768 14.4545 28.4668 15.0227C28.7568 15.585 29.1622 16.017 29.6831 16.3189C30.2039 16.6148 30.8135 16.7628 31.5119 16.7628C31.9795 16.7628 32.4026 16.6977 32.7814 16.5675C33.1602 16.4313 33.4887 16.2331 33.7669 15.9727C34.045 15.7122 34.2551 15.3897 34.3972 15.005L37.3979 15.3423C37.2085 16.1354 36.8475 16.8279 36.3148 17.4197C35.7881 18.0057 35.1133 18.4614 34.2907 18.7869C33.468 19.1065 32.5269 19.2663 31.4675 19.2663ZM43.4637 0.818181V19H40.2499V0.818181H43.4637ZM52.7166 19.2663C51.3554 19.2663 50.1864 18.9674 49.2099 18.3697C48.2392 17.7719 47.4905 16.9463 46.9638 15.8928C46.4429 14.8333 46.1825 13.6141 46.1825 12.2351C46.1825 10.8501 46.4489 9.62796 46.9815 8.56854C47.5142 7.5032 48.2659 6.6746 49.2365 6.08274C50.2131 5.48497 51.3672 5.18608 52.6989 5.18608C53.8056 5.18608 54.7852 5.39027 55.6374 5.79865C56.4956 6.20111 57.1792 6.77225 57.6882 7.51207C58.1972 8.24598 58.4872 9.10417 58.5582 10.0866H55.4865C55.3622 9.42969 55.0663 8.88222 54.5987 8.44425C54.1371 8.00035 53.5186 7.77841 52.7433 7.77841C52.0863 7.77841 51.5092 7.95597 51.0121 8.31108C50.5149 8.66027 50.1272 9.16335 49.8491 9.82031C49.5768 10.4773 49.4407 11.2644 49.4407 12.1818C49.4407 13.111 49.5768 13.91 49.8491 14.5788C50.1213 15.2417 50.5031 15.7537 50.9943 16.1147C51.4915 16.4698 52.0745 16.6474 52.7433 16.6474C53.2167 16.6474 53.6399 16.5586 54.0128 16.381C54.3916 16.1976 54.7082 15.9342 54.9627 15.5909C55.2172 15.2476 55.3918 14.8304 55.4865 14.3391H58.5582C58.4813 15.3039 58.1972 16.1591 57.706 16.9048C57.2147 17.6446 56.5459 18.2247 55.6996 18.6449C54.8532 19.0592 53.8589 19.2663 52.7166 19.2663ZM67.1453 19.2663C65.8137 19.2663 64.6595 18.9734 63.683 18.3874C62.7064 17.8015 61.9488 16.9818 61.4102 15.9283C60.8776 14.8748 60.6112 13.6437 60.6112 12.2351C60.6112 10.8265 60.8776 9.59245 61.4102 8.53303C61.9488 7.4736 62.7064 6.65092 63.683 6.06499C64.6595 5.47905 65.8137 5.18608 67.1453 5.18608C68.477 5.18608 69.6311 5.47905 70.6077 6.06499C71.5843 6.65092 72.3389 7.4736 72.8715 8.53303C73.4101 9.59245 73.6794 10.8265 73.6794 12.2351C73.6794 13.6437 73.4101 14.8748 72.8715 15.9283C72.3389 16.9818 71.5843 17.8015 70.6077 18.3874C69.6311 18.9734 68.477 19.2663 67.1453 19.2663ZM67.1631 16.6918C67.8852 16.6918 68.4888 16.4935 68.9742 16.0969C69.4595 15.6945 69.8205 15.1559 70.0573 14.4812C70.2999 13.8065 70.4213 13.0548 70.4213 12.2262C70.4213 11.3917 70.2999 10.6371 70.0573 9.96236C69.8205 9.28172 69.4595 8.74018 68.9742 8.33771C68.4888 7.93525 67.8852 7.73402 67.1631 7.73402C66.4233 7.73402 65.8077 7.93525 65.3165 8.33771C64.8312 8.74018 64.4672 9.28172 64.2245 9.96236C63.9878 10.6371 63.8694 11.3917 63.8694 12.2262C63.8694 13.0548 63.9878 13.8065 64.2245 14.4812C64.4672 15.1559 64.8312 15.6945 65.3165 16.0969C65.8077 16.4935 66.4233 16.6918 67.1631 16.6918ZM76.4071 19V5.36364H79.4789V7.68075H79.6387C79.9228 6.8995 80.3933 6.28989 81.0502 5.85192C81.7072 5.40803 82.4914 5.18608 83.4029 5.18608C84.3262 5.18608 85.1045 5.41098 85.7377 5.8608C86.377 6.30469 86.8268 6.91134 87.0872 7.68075H87.2292C87.5311 6.92318 88.0401 6.31948 88.7562 5.86967C89.4783 5.41394 90.3335 5.18608 91.3219 5.18608C92.5766 5.18608 93.6006 5.58262 94.3936 6.37571C95.1867 7.1688 95.5833 8.32588 95.5833 9.84695V19H92.3606V10.3441C92.3606 9.49775 92.1357 8.87926 91.6859 8.48864C91.2361 8.09209 90.6857 7.89382 90.0346 7.89382C89.2593 7.89382 88.6526 8.13648 88.2147 8.6218C87.7826 9.10121 87.5666 9.72562 87.5666 10.495V19H84.415V10.2109C84.415 9.50663 84.2019 8.94437 83.7757 8.52415C83.3555 8.10393 82.8051 7.89382 82.1245 7.89382C81.6628 7.89382 81.2426 8.01219 80.8638 8.24893C80.485 8.47976 80.1832 8.80824 79.9583 9.23438C79.7334 9.65459 79.6209 10.1458 79.6209 10.7081V19H76.4071ZM104.881 19.2663C103.513 19.2663 102.333 18.9822 101.338 18.4141C100.35 17.84 99.5894 17.0291 99.0567 15.9815C98.5241 14.928 98.2577 13.6881 98.2577 12.2617C98.2577 10.859 98.5241 9.62796 99.0567 8.56854C99.5953 7.5032 100.347 6.6746 101.312 6.08274C102.276 5.48497 103.41 5.18608 104.712 5.18608C105.552 5.18608 106.345 5.32221 107.091 5.59446C107.843 5.86079 108.506 6.27509 109.08 6.83736C109.66 7.39962 110.116 8.11577 110.447 8.9858C110.778 9.84991 110.944 10.8797 110.944 12.0753V13.0607H99.767V10.8945H107.864C107.858 10.279 107.724 9.73153 107.464 9.25213C107.204 8.76681 106.84 8.38506 106.372 8.10689C105.91 7.82872 105.372 7.68963 104.756 7.68963C104.099 7.68963 103.522 7.84943 103.025 8.16903C102.528 8.48272 102.14 8.89702 101.862 9.41193C101.59 9.92093 101.451 10.4802 101.445 11.0898V12.9808C101.445 13.7739 101.59 14.4545 101.88 15.0227C102.17 15.585 102.575 16.017 103.096 16.3189C103.617 16.6148 104.227 16.7628 104.925 16.7628C105.393 16.7628 105.816 16.6977 106.195 16.5675C106.573 16.4313 106.902 16.2331 107.18 15.9727C107.458 15.7122 107.668 15.3897 107.81 15.005L110.811 15.3423C110.622 16.1354 110.261 16.8279 109.728 17.4197C109.201 18.0057 108.526 18.4614 107.704 18.7869C106.881 19.1065 105.94 19.2663 104.881 19.2663Z" fill="black"/>
<path d="M126.673 5.36364V7.84943H118.834V5.36364H126.673ZM120.77 2.09659H123.983V14.8984C123.983 15.3305 124.049 15.6619 124.179 15.8928C124.315 16.1177 124.492 16.2715 124.711 16.3544C124.93 16.4373 125.173 16.4787 125.439 16.4787C125.641 16.4787 125.824 16.4639 125.99 16.4343C126.162 16.4047 126.292 16.3781 126.381 16.3544L126.922 18.8668C126.75 18.926 126.505 18.9911 126.185 19.0621C125.872 19.1332 125.487 19.1746 125.031 19.1864C124.226 19.2101 123.501 19.0888 122.856 18.8224C122.211 18.5502 121.699 18.13 121.32 17.5618C120.947 16.9936 120.764 16.2834 120.77 15.4311V2.09659ZM135.163 19.2663C133.831 19.2663 132.677 18.9734 131.701 18.3874C130.724 17.8015 129.966 16.9818 129.428 15.9283C128.895 14.8748 128.629 13.6437 128.629 12.2351C128.629 10.8265 128.895 9.59245 129.428 8.53303C129.966 7.4736 130.724 6.65092 131.701 6.06499C132.677 5.47905 133.831 5.18608 135.163 5.18608C136.495 5.18608 137.649 5.47905 138.625 6.06499C139.602 6.65092 140.356 7.4736 140.889 8.53303C141.428 9.59245 141.697 10.8265 141.697 12.2351C141.697 13.6437 141.428 14.8748 140.889 15.9283C140.356 16.9818 139.602 17.8015 138.625 18.3874C137.649 18.9734 136.495 19.2663 135.163 19.2663ZM135.181 16.6918C135.903 16.6918 136.506 16.4935 136.992 16.0969C137.477 15.6945 137.838 15.1559 138.075 14.4812C138.318 13.8065 138.439 13.0548 138.439 12.2262C138.439 11.3917 138.318 10.6371 138.075 9.96236C137.838 9.28172 137.477 8.74018 136.992 8.33771C136.506 7.93525 135.903 7.73402 135.181 7.73402C134.441 7.73402 133.825 7.93525 133.334 8.33771C132.849 8.74018 132.485 9.28172 132.242 9.96236C132.005 10.6371 131.887 11.3917 131.887 12.2262C131.887 13.0548 132.005 13.8065 132.242 14.4812C132.485 15.1559 132.849 15.6945 133.334 16.0969C133.825 16.4935 134.441 16.6918 135.181 16.6918ZM150.768 19V0.818181H162.416V3.57919H154.062V8.51527H161.617V11.2763H154.062V19H150.768ZM168.488 0.818181V19H165.274V0.818181H168.488ZM180.484 13.2649V5.36364H183.698V19H180.582V16.5763H180.44C180.132 17.3398 179.626 17.9643 178.922 18.4496C178.223 18.9349 177.362 19.1776 176.338 19.1776C175.445 19.1776 174.655 18.9793 173.968 18.5827C173.287 18.1803 172.755 17.5973 172.37 16.8338C171.985 16.0644 171.793 15.1352 171.793 14.0462V5.36364H175.007V13.549C175.007 14.4131 175.243 15.0997 175.717 15.6087C176.19 16.1177 176.812 16.3722 177.581 16.3722C178.055 16.3722 178.513 16.2567 178.957 16.0259C179.401 15.7951 179.765 15.4518 180.049 14.9961C180.339 14.5344 180.484 13.9574 180.484 13.2649ZM193.812 5.36364V7.84943H185.973V5.36364H193.812ZM187.908 2.09659H191.122V14.8984C191.122 15.3305 191.187 15.6619 191.317 15.8928C191.454 16.1177 191.631 16.2715 191.85 16.3544C192.069 16.4373 192.312 16.4787 192.578 16.4787C192.779 16.4787 192.963 16.4639 193.129 16.4343C193.3 16.4047 193.43 16.3781 193.519 16.3544L194.061 18.8668C193.889 18.926 193.643 18.9911 193.324 19.0621C193.01 19.1332 192.625 19.1746 192.17 19.1864C191.365 19.2101 190.64 19.0888 189.995 18.8224C189.35 18.5502 188.838 18.13 188.459 17.5618C188.086 16.9936 187.902 16.2834 187.908 15.4311V2.09659ZM203.309 5.36364V7.84943H195.47V5.36364H203.309ZM197.405 2.09659H200.619V14.8984C200.619 15.3305 200.684 15.6619 200.815 15.8928C200.951 16.1177 201.128 16.2715 201.347 16.3544C201.566 16.4373 201.809 16.4787 202.075 16.4787C202.276 16.4787 202.46 16.4639 202.626 16.4343C202.797 16.4047 202.927 16.3781 203.016 16.3544L203.558 18.8668C203.386 18.926 203.141 18.9911 202.821 19.0621C202.507 19.1332 202.123 19.1746 201.667 19.1864C200.862 19.2101 200.137 19.0888 199.492 18.8224C198.847 18.5502 198.335 18.13 197.956 17.5618C197.583 16.9936 197.4 16.2834 197.405 15.4311V2.09659ZM205.997 19V5.36364H209.113V7.63636H209.255C209.504 6.8492 209.93 6.24254 210.534 5.81641C211.143 5.38435 211.839 5.16832 212.62 5.16832C212.797 5.16832 212.996 5.1772 213.215 5.19496C213.44 5.20679 213.626 5.22751 213.774 5.2571V8.21342C213.638 8.16607 213.422 8.12464 213.126 8.08913C212.836 8.0477 212.555 8.02699 212.282 8.02699C211.697 8.02699 211.17 8.15424 210.702 8.40874C210.241 8.65731 209.877 9.00355 209.61 9.44744C209.344 9.89134 209.211 10.4033 209.211 10.9833V19H205.997ZM215.909 19V5.36364H219.025V7.63636H219.167C219.416 6.8492 219.842 6.24254 220.446 5.81641C221.055 5.38435 221.751 5.16832 222.532 5.16832C222.71 5.16832 222.908 5.1772 223.127 5.19496C223.352 5.20679 223.538 5.22751 223.686 5.2571V8.21342C223.55 8.16607 223.334 8.12464 223.038 8.08913C222.748 8.0477 222.467 8.02699 222.195 8.02699C221.609 8.02699 221.082 8.15424 220.614 8.40874C220.153 8.65731 219.789 9.00355 219.522 9.44744C219.256 9.89134 219.123 10.4033 219.123 10.9833V19H215.909ZM1.65128 58.1136V39.3636H4.81179V41.6186H4.99822C5.16394 41.2872 5.39773 40.935 5.69957 40.5621C6.00142 40.1834 6.4098 39.8608 6.92472 39.5945C7.43963 39.3222 8.09659 39.1861 8.8956 39.1861C9.9491 39.1861 10.899 39.4554 11.7454 39.994C12.5977 40.5266 13.2724 41.3168 13.7695 42.3643C14.2726 43.406 14.5241 44.6844 14.5241 46.1996C14.5241 47.697 14.2785 48.9695 13.7873 50.017C13.296 51.0646 12.6272 51.8636 11.7809 52.4141C10.9345 52.9645 9.97573 53.2397 8.90447 53.2397C8.12322 53.2397 7.47514 53.1095 6.96023 52.8491C6.44531 52.5887 6.03101 52.275 5.71733 51.908C5.40956 51.5352 5.16986 51.183 4.99822 50.8516H4.86506V58.1136H1.65128ZM4.80291 46.1818C4.80291 47.0637 4.9272 47.8361 5.17578 48.4989C5.43028 49.1618 5.79427 49.6797 6.26776 50.0526C6.74716 50.4195 7.32718 50.603 8.00781 50.603C8.71804 50.603 9.31286 50.4136 9.79226 50.0348C10.2717 49.6501 10.6327 49.1263 10.8754 48.4634C11.1239 47.7946 11.2482 47.0341 11.2482 46.1818C11.2482 45.3355 11.1269 44.5838 10.8842 43.9268C10.6416 43.2699 10.2805 42.755 9.80114 42.3821C9.32173 42.0092 8.72396 41.8228 8.00781 41.8228C7.32126 41.8228 6.73828 42.0033 6.25888 42.3643C5.77947 42.7254 5.41548 43.2314 5.1669 43.8825C4.92424 44.5335 4.80291 45.3 4.80291 46.1818ZM17.2763 53V39.3636H20.3924V41.6364H20.5344C20.783 40.8492 21.2092 40.2425 21.8129 39.8164C22.4225 39.3844 23.1179 39.1683 23.8991 39.1683C24.0767 39.1683 24.275 39.1772 24.494 39.195C24.7189 39.2068 24.9053 39.2275 25.0533 39.2571V42.2134C24.9171 42.1661 24.7011 42.1246 24.4052 42.0891C24.1152 42.0477 23.834 42.027 23.5618 42.027C22.9759 42.027 22.4491 42.1542 21.9815 42.4087C21.5199 42.6573 21.1559 43.0036 20.8896 43.4474C20.6232 43.8913 20.4901 44.4033 20.4901 44.9833V53H17.2763ZM32.6638 53.2663C31.2966 53.2663 30.1159 52.9822 29.1215 52.4141C28.1331 51.84 27.3726 51.0291 26.8399 49.9815C26.3073 48.928 26.0409 47.6881 26.0409 46.2617C26.0409 44.859 26.3073 43.628 26.8399 42.5685C27.3785 41.5032 28.1302 40.6746 29.0949 40.0827C30.0596 39.485 31.193 39.1861 32.4951 39.1861C33.3356 39.1861 34.1286 39.3222 34.8744 39.5945C35.626 39.8608 36.2889 40.2751 36.863 40.8374C37.443 41.3996 37.8988 42.1158 38.2302 42.9858C38.5616 43.8499 38.7274 44.8797 38.7274 46.0753V47.0607H27.5502V44.8945H35.6468C35.6408 44.279 35.5077 43.7315 35.2472 43.2521C34.9868 42.7668 34.6228 42.3851 34.1553 42.1069C33.6936 41.8287 33.155 41.6896 32.5395 41.6896C31.8825 41.6896 31.3055 41.8494 30.8083 42.169C30.3112 42.4827 29.9235 42.897 29.6453 43.4119C29.3731 43.9209 29.234 44.4802 29.2281 45.0898V46.9808C29.2281 47.7739 29.3731 48.4545 29.6631 49.0227C29.9531 49.585 30.3585 50.017 30.8794 50.3189C31.4002 50.6148 32.0098 50.7628 32.7082 50.7628C33.1758 50.7628 33.5989 50.6977 33.9777 50.5675C34.3565 50.4313 34.685 50.2331 34.9632 49.9727C35.2413 49.7122 35.4514 49.3897 35.5935 49.005L38.5942 49.3423C38.4048 50.1354 38.0438 50.8279 37.5111 51.4197C36.9843 52.0057 36.3096 52.4614 35.4869 52.7869C34.6643 53.1065 33.7232 53.2663 32.6638 53.2663ZM41.4462 53V39.3636H44.5179V41.6808H44.6777C44.9618 40.8995 45.4324 40.2899 46.0893 39.8519C46.7463 39.408 47.5305 39.1861 48.4419 39.1861C49.3652 39.1861 50.1435 39.411 50.7768 39.8608C51.416 40.3047 51.8658 40.9113 52.1262 41.6808H52.2683C52.5701 40.9232 53.0791 40.3195 53.7953 39.8697C54.5173 39.4139 55.3726 39.1861 56.361 39.1861C57.6157 39.1861 58.6396 39.5826 59.4327 40.3757C60.2258 41.1688 60.6223 42.3259 60.6223 43.8469V53H57.3997V44.3441C57.3997 43.4978 57.1748 42.8793 56.725 42.4886C56.2752 42.0921 55.7247 41.8938 55.0737 41.8938C54.2984 41.8938 53.6917 42.1365 53.2537 42.6218C52.8217 43.1012 52.6056 43.7256 52.6056 44.495V53H49.454V44.2109C49.454 43.5066 49.2409 42.9444 48.8148 42.5241C48.3946 42.1039 47.8442 41.8938 47.1635 41.8938C46.7019 41.8938 46.2817 42.0122 45.9029 42.2489C45.5241 42.4798 45.2222 42.8082 44.9973 43.2344C44.7724 43.6546 44.66 44.1458 44.66 44.7081V53H41.4462ZM63.8827 53V39.3636H67.0965V53H63.8827ZM65.4985 37.4283C64.9895 37.4283 64.5515 37.2596 64.1846 36.9222C63.8176 36.579 63.6341 36.1676 63.6341 35.6882C63.6341 35.2029 63.8176 34.7915 64.1846 34.4542C64.5515 34.1109 64.9895 33.9393 65.4985 33.9393C66.0134 33.9393 66.4514 34.1109 66.8124 34.4542C67.1794 34.7915 67.3628 35.2029 67.3628 35.6882C67.3628 36.1676 67.1794 36.579 66.8124 36.9222C66.4514 37.2596 66.0134 37.4283 65.4985 37.4283ZM79.0927 47.2649V39.3636H82.3065V53H79.1903V50.5763H79.0483C78.7405 51.3398 78.2345 51.9643 77.5302 52.4496C76.8318 52.9349 75.9706 53.1776 74.9467 53.1776C74.053 53.1776 73.2629 52.9793 72.5763 52.5827C71.8957 52.1803 71.363 51.5973 70.9783 50.8338C70.5936 50.0644 70.4013 49.1352 70.4013 48.0462V39.3636H73.6151V47.549C73.6151 48.4131 73.8518 49.0997 74.3253 49.6087C74.7988 50.1177 75.4202 50.3722 76.1896 50.3722C76.6631 50.3722 77.1218 50.2567 77.5657 50.0259C78.0096 49.7951 78.3736 49.4518 78.6577 48.9961C78.9477 48.5344 79.0927 47.9574 79.0927 47.2649ZM85.6112 53V39.3636H88.683V41.6808H88.8428C89.1269 40.8995 89.5974 40.2899 90.2544 39.8519C90.9113 39.408 91.6955 39.1861 92.607 39.1861C93.5303 39.1861 94.3086 39.411 94.9419 39.8608C95.5811 40.3047 96.0309 40.9113 96.2913 41.6808H96.4333C96.7352 40.9232 97.2442 40.3195 97.9603 39.8697C98.6824 39.4139 99.5376 39.1861 100.526 39.1861C101.781 39.1861 102.805 39.5826 103.598 40.3757C104.391 41.1688 104.787 42.3259 104.787 43.8469V53H101.565V44.3441C101.565 43.4978 101.34 42.8793 100.89 42.4886C100.44 42.0921 99.8898 41.8938 99.2387 41.8938C98.4634 41.8938 97.8567 42.1365 97.4188 42.6218C96.9867 43.1012 96.7707 43.7256 96.7707 44.495V53H93.6191V44.2109C93.6191 43.5066 93.406 42.9444 92.9798 42.5241C92.5596 42.1039 92.0092 41.8938 91.3286 41.8938C90.8669 41.8938 90.4467 42.0122 90.0679 42.2489C89.6891 42.4798 89.3873 42.8082 89.1624 43.2344C88.9375 43.6546 88.825 44.1458 88.825 44.7081V53H85.6112Z" fill="black"/>
</svg>
