<svg width="10" height="16" viewBox="0 0 10 16" fill="none" xmlns="http://www.w3.org/2000/svg">
<path d="M4.64347 15.4545V0.90909H5.57528V15.4545H4.64347ZM7.33097 5.5625C7.27794 5.06629 7.05445 4.67992 6.66051 4.40341C6.27036 4.12689 5.76278 3.98864 5.13778 3.98864C4.69839 3.98864 4.3215 4.05492 4.0071 4.1875C3.69271 4.32008 3.45218 4.5 3.28551 4.72727C3.11884 4.95455 3.03362 5.21402 3.02983 5.50568C3.02983 5.74811 3.08475 5.95833 3.1946 6.13636C3.30824 6.31439 3.46165 6.46591 3.65483 6.59091C3.84801 6.71212 4.06203 6.81439 4.29688 6.89773C4.53172 6.98106 4.76847 7.05114 5.0071 7.10795L6.09801 7.38068C6.53741 7.48295 6.95975 7.62121 7.36506 7.79545C7.77415 7.9697 8.13968 8.18939 8.46165 8.45455C8.78741 8.7197 9.04498 9.03977 9.23438 9.41477C9.42377 9.78977 9.51847 10.2292 9.51847 10.733C9.51847 11.4148 9.34422 12.0152 8.99574 12.5341C8.64725 13.0492 8.14347 13.4527 7.48438 13.7443C6.82907 14.0322 6.03551 14.1761 5.10369 14.1761C4.19839 14.1761 3.41241 14.036 2.74574 13.7557C2.08286 13.4754 1.56392 13.0663 1.18892 12.5284C0.817708 11.9905 0.616951 11.3352 0.586648 10.5625H2.66051C2.69081 10.9678 2.81581 11.3049 3.03551 11.5739C3.25521 11.8428 3.54119 12.0436 3.89347 12.1761C4.24953 12.3087 4.64725 12.375 5.08665 12.375C5.54498 12.375 5.9465 12.3068 6.29119 12.1705C6.63968 12.0303 6.91241 11.8371 7.10938 11.5909C7.30634 11.3409 7.40672 11.0492 7.41051 10.7159C7.40672 10.4129 7.31771 10.1629 7.14347 9.96591C6.96922 9.76515 6.72491 9.59848 6.41051 9.46591C6.09991 9.32955 5.73627 9.20833 5.3196 9.10227L3.99574 8.76136C3.03741 8.51515 2.27983 8.14205 1.72301 7.64205C1.16998 7.13826 0.893466 6.4697 0.893466 5.63636C0.893466 4.95076 1.07907 4.35038 1.45028 3.83523C1.82528 3.32008 2.33475 2.92045 2.97869 2.63636C3.62263 2.34848 4.3518 2.20455 5.16619 2.20455C5.99195 2.20455 6.71544 2.34848 7.33665 2.63636C7.96165 2.92045 8.45218 3.31629 8.80824 3.82386C9.1643 4.32765 9.34801 4.9072 9.35938 5.5625H7.33097Z" fill="black"/>
</svg>
